<svg width="1920" height="1280" viewBox="0 0 1920 1280" fill="none" xmlns="http://www.w3.org/2000/svg">
<g clip-path="url(#clip0_1146_2)">
<rect width="1920" height="1280" fill="url(#paint0_linear_1146_2)"/>
<path d="M248.367 215.625H281.203C288.047 215.625 293.883 216.797 298.711 219.141C303.539 221.484 307.242 224.953 309.82 229.547C312.398 234.141 313.688 239.812 313.688 246.562C313.688 252.094 312.938 256.828 311.438 260.766C309.938 264.656 307.805 267.914 305.039 270.539C302.273 273.117 298.969 275.18 295.125 276.727L288.867 280.453H262.219L262.148 263.367H280.641C283.453 263.367 285.773 262.758 287.602 261.539C289.477 260.273 290.859 258.516 291.75 256.266C292.688 253.969 293.156 251.297 293.156 248.25C293.156 245.016 292.734 242.25 291.891 239.953C291.094 237.609 289.805 235.828 288.023 234.609C286.289 233.344 284.016 232.711 281.203 232.711H268.969V318H248.367V215.625ZM294.844 318L276.07 272.367L297.656 272.297L316.852 317.016V318H294.844ZM324.797 282.562V277.43C324.797 271.477 325.5 266.203 326.906 261.609C328.359 257.016 330.422 253.172 333.094 250.078C335.766 246.938 338.977 244.57 342.727 242.977C346.523 241.336 350.766 240.516 355.453 240.516C360.188 240.516 364.43 241.336 368.18 242.977C371.977 244.57 375.211 246.938 377.883 250.078C380.602 253.172 382.688 257.016 384.141 261.609C385.594 266.203 386.32 271.477 386.32 277.43V282.562C386.32 288.469 385.594 293.719 384.141 298.312C382.688 302.906 380.602 306.773 377.883 309.914C375.211 313.055 372 315.422 368.25 317.016C364.5 318.609 360.281 319.406 355.594 319.406C350.906 319.406 346.664 318.609 342.867 317.016C339.117 315.422 335.883 313.055 333.164 309.914C330.445 306.773 328.359 302.906 326.906 298.312C325.5 293.719 324.797 288.469 324.797 282.562ZM344.484 277.43V282.562C344.484 286.078 344.719 289.125 345.188 291.703C345.703 294.281 346.43 296.414 347.367 298.102C348.352 299.789 349.523 301.031 350.883 301.828C352.242 302.625 353.812 303.023 355.594 303.023C357.375 303.023 358.969 302.625 360.375 301.828C361.781 301.031 362.93 299.789 363.82 298.102C364.758 296.414 365.438 294.281 365.859 291.703C366.328 289.125 366.562 286.078 366.562 282.562V277.43C366.562 274.008 366.305 271.008 365.789 268.43C365.273 265.805 364.547 263.672 363.609 262.031C362.672 260.344 361.5 259.078 360.094 258.234C358.734 257.344 357.188 256.898 355.453 256.898C353.719 256.898 352.172 257.344 350.812 258.234C349.5 259.078 348.352 260.344 347.367 262.031C346.43 263.672 345.703 265.805 345.188 268.43C344.719 271.008 344.484 274.008 344.484 277.43ZM426.258 303.023C428.086 303.023 429.656 302.648 430.969 301.898C432.328 301.148 433.359 299.93 434.062 298.242C434.766 296.555 435.141 294.375 435.188 291.703H453.68C453.68 297.422 452.461 302.367 450.023 306.539C447.633 310.664 444.398 313.852 440.32 316.102C436.289 318.305 431.719 319.406 426.609 319.406C421.5 319.406 417.047 318.586 413.25 316.945C409.453 315.305 406.312 312.914 403.828 309.773C401.391 306.633 399.539 302.812 398.273 298.312C397.055 293.766 396.445 288.562 396.445 282.703V277.148C396.445 271.383 397.055 266.227 398.273 261.68C399.539 257.133 401.391 253.289 403.828 250.148C406.312 247.008 409.43 244.617 413.18 242.977C416.977 241.336 421.43 240.516 426.539 240.516C432.023 240.516 436.781 241.664 440.812 243.961C444.844 246.211 447.984 249.539 450.234 253.945C452.531 258.352 453.68 263.789 453.68 270.258H435.188C435.141 267.352 434.789 264.938 434.133 263.016C433.523 261.047 432.562 259.547 431.25 258.516C429.984 257.438 428.297 256.898 426.188 256.898C423.984 256.898 422.203 257.367 420.844 258.305C419.531 259.195 418.523 260.508 417.82 262.242C417.164 263.93 416.719 266.039 416.484 268.57C416.25 271.102 416.133 273.961 416.133 277.148V282.703C416.133 286.125 416.227 289.102 416.414 291.633C416.648 294.117 417.094 296.227 417.75 297.961C418.453 299.648 419.461 300.914 420.773 301.758C422.133 302.602 423.961 303.023 426.258 303.023ZM484.688 209.93V318H465V209.93H484.688ZM524.695 241.922L497.906 279.75L481.805 297.82L474.844 282.844L487.219 264.773L501.211 241.922H524.695ZM504.164 318L487.57 283.055L501.141 270.539L526.734 318H504.164ZM563.156 319.406C557.953 319.406 553.336 318.609 549.305 317.016C545.32 315.422 541.945 313.125 539.18 310.125C536.414 307.078 534.305 303.398 532.852 299.086C531.398 294.773 530.672 289.852 530.672 284.32V278.062C530.672 271.875 531.375 266.461 532.781 261.82C534.188 257.133 536.18 253.195 538.758 250.008C541.336 246.82 544.5 244.453 548.25 242.906C552.047 241.312 556.336 240.516 561.117 240.516C565.898 240.516 570.094 241.312 573.703 242.906C577.359 244.453 580.383 246.797 582.773 249.938C585.164 253.031 586.969 256.875 588.188 261.469C589.406 266.062 590.016 271.406 590.016 277.5V286.5H539.039V272.648H570.68V270.891C570.68 267.797 570.352 265.219 569.695 263.156C569.039 261.047 568.008 259.477 566.602 258.445C565.195 257.414 563.32 256.898 560.977 256.898C559.008 256.898 557.344 257.297 555.984 258.094C554.625 258.891 553.547 260.133 552.75 261.82C551.953 263.508 551.367 265.711 550.992 268.43C550.617 271.102 550.43 274.312 550.43 278.062V284.32C550.43 287.836 550.734 290.789 551.344 293.18C551.953 295.523 552.844 297.445 554.016 298.945C555.234 300.398 556.711 301.453 558.445 302.109C560.18 302.719 562.195 303.023 564.492 303.023C567.961 303.023 571.078 302.414 573.844 301.195C576.656 299.93 579.047 298.219 581.016 296.062L588.891 308.016C587.531 309.797 585.656 311.578 583.266 313.359C580.875 315.141 578.016 316.594 574.688 317.719C571.359 318.844 567.516 319.406 563.156 319.406ZM634.594 241.922V256.758H595.781V241.922H634.594ZM604.711 223.148H624.328V294.797C624.328 296.906 624.539 298.523 624.961 299.648C625.383 300.773 626.016 301.57 626.859 302.039C627.75 302.461 628.922 302.672 630.375 302.672C631.359 302.672 632.273 302.625 633.117 302.531C633.961 302.391 634.594 302.25 635.016 302.109V317.508C633.469 318.117 631.828 318.586 630.094 318.914C628.406 319.242 626.391 319.406 624.047 319.406C620.109 319.406 616.688 318.656 613.781 317.156C610.922 315.656 608.695 313.266 607.102 309.984C605.508 306.656 604.711 302.297 604.711 296.906V223.148ZM718.125 215.625V318H698.227L666.094 253.945V318H646.547V215.625H666.164L698.578 280.383V215.625H718.125ZM764.391 319.406C759.188 319.406 754.57 318.609 750.539 317.016C746.555 315.422 743.18 313.125 740.414 310.125C737.648 307.078 735.539 303.398 734.086 299.086C732.633 294.773 731.906 289.852 731.906 284.32V278.062C731.906 271.875 732.609 266.461 734.016 261.82C735.422 257.133 737.414 253.195 739.992 250.008C742.57 246.82 745.734 244.453 749.484 242.906C753.281 241.312 757.57 240.516 762.352 240.516C767.133 240.516 771.328 241.312 774.938 242.906C778.594 244.453 781.617 246.797 784.008 249.938C786.398 253.031 788.203 256.875 789.422 261.469C790.641 266.062 791.25 271.406 791.25 277.5V286.5H740.273V272.648H771.914V270.891C771.914 267.797 771.586 265.219 770.93 263.156C770.273 261.047 769.242 259.477 767.836 258.445C766.43 257.414 764.555 256.898 762.211 256.898C760.242 256.898 758.578 257.297 757.219 258.094C755.859 258.891 754.781 260.133 753.984 261.82C753.188 263.508 752.602 265.711 752.227 268.43C751.852 271.102 751.664 274.312 751.664 278.062V284.32C751.664 287.836 751.969 290.789 752.578 293.18C753.188 295.523 754.078 297.445 755.25 298.945C756.469 300.398 757.945 301.453 759.68 302.109C761.414 302.719 763.43 303.023 765.727 303.023C769.195 303.023 772.312 302.414 775.078 301.195C777.891 299.93 780.281 298.219 782.25 296.062L790.125 308.016C788.766 309.797 786.891 311.578 784.5 313.359C782.109 315.141 779.25 316.594 775.922 317.719C772.594 318.844 768.75 319.406 764.391 319.406ZM820.5 297.961L833.789 241.922H846.164L843.141 264.703L830.062 318H819.727L820.5 297.961ZM816.703 241.922L825.773 297.82L825.703 318H813.609L797.789 241.922H816.703ZM856.148 296.906L864.938 241.922H883.992L868.102 318H856.008L856.148 296.906ZM847.852 241.922L861.141 297.539L862.055 318H851.719L838.641 264.844L835.688 241.922H847.852ZM927.656 297.469C927.656 296.156 927.211 294.984 926.32 293.953C925.43 292.922 924.023 291.867 922.102 290.789C920.18 289.664 917.625 288.422 914.438 287.062C910.969 285.656 907.898 284.203 905.227 282.703C902.555 281.203 900.281 279.539 898.406 277.711C896.578 275.883 895.195 273.797 894.258 271.453C893.32 269.109 892.852 266.438 892.852 263.438C892.852 260.203 893.438 257.227 894.609 254.508C895.828 251.742 897.562 249.328 899.812 247.266C902.062 245.156 904.805 243.516 908.039 242.344C911.32 241.125 915 240.516 919.078 240.516C924.797 240.516 929.695 241.523 933.773 243.539C937.898 245.508 941.062 248.273 943.266 251.836C945.469 255.398 946.57 259.547 946.57 264.281H926.883C926.883 262.594 926.625 261.094 926.109 259.781C925.594 258.422 924.75 257.367 923.578 256.617C922.453 255.867 920.93 255.492 919.008 255.492C917.602 255.492 916.336 255.797 915.211 256.406C914.133 257.016 913.266 257.836 912.609 258.867C912 259.852 911.695 261.023 911.695 262.383C911.695 263.414 911.906 264.328 912.328 265.125C912.797 265.922 913.523 266.695 914.508 267.445C915.492 268.195 916.805 268.992 918.445 269.836C920.133 270.633 922.195 271.523 924.633 272.508C929.695 274.383 933.844 276.398 937.078 278.555C940.359 280.711 942.797 283.242 944.391 286.148C945.984 289.008 946.781 292.547 946.781 296.766C946.781 300.141 946.125 303.211 944.812 305.977C943.547 308.742 941.695 311.133 939.258 313.148C936.82 315.164 933.891 316.711 930.469 317.789C927.094 318.867 923.32 319.406 919.148 319.406C913.008 319.406 907.828 318.188 903.609 315.75C899.391 313.312 896.203 310.195 894.047 306.398C891.891 302.555 890.812 298.57 890.812 294.445H909.516C909.609 296.977 910.078 298.969 910.922 300.422C911.812 301.828 913.008 302.812 914.508 303.375C916.008 303.938 917.672 304.219 919.5 304.219C921.328 304.219 922.828 303.984 924 303.516C925.219 303 926.133 302.227 926.742 301.195C927.352 300.117 927.656 298.875 927.656 297.469Z" fill="white"/>
<path d="M261.992 435H250.117L250.195 428.867H261.992C266.055 428.867 269.44 428.021 272.148 426.328C274.857 424.609 276.888 422.214 278.242 419.141C279.622 416.042 280.312 412.422 280.312 408.281V404.805C280.312 401.549 279.922 398.659 279.141 396.133C278.359 393.581 277.214 391.432 275.703 389.688C274.193 387.917 272.344 386.576 270.156 385.664C267.995 384.753 265.508 384.297 262.695 384.297H249.883V378.125H262.695C266.419 378.125 269.818 378.75 272.891 380C275.964 381.224 278.607 383.008 280.82 385.352C283.06 387.669 284.779 390.482 285.977 393.789C287.174 397.07 287.773 400.768 287.773 404.883V408.281C287.773 412.396 287.174 416.107 285.977 419.414C284.779 422.695 283.047 425.495 280.781 427.812C278.542 430.13 275.833 431.914 272.656 433.164C269.505 434.388 265.951 435 261.992 435ZM254.141 378.125V435H246.602V378.125H254.141ZM315.547 435.781C312.604 435.781 309.935 435.286 307.539 434.297C305.169 433.281 303.125 431.862 301.406 430.039C299.714 428.216 298.411 426.055 297.5 423.555C296.589 421.055 296.133 418.32 296.133 415.352V413.711C296.133 410.273 296.641 407.214 297.656 404.531C298.672 401.823 300.052 399.531 301.797 397.656C303.542 395.781 305.521 394.362 307.734 393.398C309.948 392.435 312.24 391.953 314.609 391.953C317.63 391.953 320.234 392.474 322.422 393.516C324.635 394.557 326.445 396.016 327.852 397.891C329.258 399.74 330.299 401.927 330.977 404.453C331.654 406.953 331.992 409.688 331.992 412.656V415.898H300.43V410H324.766V409.453C324.661 407.578 324.271 405.755 323.594 403.984C322.943 402.214 321.901 400.755 320.469 399.609C319.036 398.464 317.083 397.891 314.609 397.891C312.969 397.891 311.458 398.242 310.078 398.945C308.698 399.622 307.513 400.638 306.523 401.992C305.534 403.346 304.766 405 304.219 406.953C303.672 408.906 303.398 411.159 303.398 413.711V415.352C303.398 417.357 303.672 419.245 304.219 421.016C304.792 422.76 305.612 424.297 306.68 425.625C307.773 426.953 309.089 427.995 310.625 428.75C312.188 429.505 313.958 429.883 315.938 429.883C318.49 429.883 320.651 429.362 322.422 428.32C324.193 427.279 325.742 425.885 327.07 424.141L331.445 427.617C330.534 428.997 329.375 430.312 327.969 431.562C326.562 432.812 324.831 433.828 322.773 434.609C320.742 435.391 318.333 435.781 315.547 435.781ZM365.039 423.789C365.039 422.747 364.805 421.784 364.336 420.898C363.893 419.987 362.969 419.167 361.562 418.438C360.182 417.682 358.099 417.031 355.312 416.484C352.969 415.99 350.846 415.404 348.945 414.727C347.07 414.049 345.469 413.229 344.141 412.266C342.839 411.302 341.836 410.169 341.133 408.867C340.43 407.565 340.078 406.042 340.078 404.297C340.078 402.63 340.443 401.055 341.172 399.57C341.927 398.086 342.982 396.771 344.336 395.625C345.716 394.479 347.37 393.581 349.297 392.93C351.224 392.279 353.372 391.953 355.742 391.953C359.128 391.953 362.018 392.552 364.414 393.75C366.81 394.948 368.646 396.549 369.922 398.555C371.198 400.534 371.836 402.734 371.836 405.156H364.609C364.609 403.984 364.258 402.852 363.555 401.758C362.878 400.638 361.875 399.714 360.547 398.984C359.245 398.255 357.643 397.891 355.742 397.891C353.737 397.891 352.109 398.203 350.859 398.828C349.635 399.427 348.737 400.195 348.164 401.133C347.617 402.07 347.344 403.06 347.344 404.102C347.344 404.883 347.474 405.586 347.734 406.211C348.021 406.81 348.516 407.37 349.219 407.891C349.922 408.385 350.911 408.854 352.188 409.297C353.464 409.74 355.091 410.182 357.07 410.625C360.534 411.406 363.385 412.344 365.625 413.438C367.865 414.531 369.531 415.872 370.625 417.461C371.719 419.049 372.266 420.977 372.266 423.242C372.266 425.091 371.875 426.784 371.094 428.32C370.339 429.857 369.232 431.185 367.773 432.305C366.341 433.398 364.622 434.258 362.617 434.883C360.638 435.482 358.411 435.781 355.938 435.781C352.214 435.781 349.062 435.117 346.484 433.789C343.906 432.461 341.953 430.742 340.625 428.633C339.297 426.523 338.633 424.297 338.633 421.953H345.898C346.003 423.932 346.576 425.508 347.617 426.68C348.659 427.826 349.935 428.646 351.445 429.141C352.956 429.609 354.453 429.844 355.938 429.844C357.917 429.844 359.57 429.583 360.898 429.062C362.253 428.542 363.281 427.826 363.984 426.914C364.688 426.003 365.039 424.961 365.039 423.789ZM406.68 427.773V406.016C406.68 404.349 406.341 402.904 405.664 401.68C405.013 400.43 404.023 399.466 402.695 398.789C401.367 398.112 399.727 397.773 397.773 397.773C395.951 397.773 394.349 398.086 392.969 398.711C391.615 399.336 390.547 400.156 389.766 401.172C389.01 402.188 388.633 403.281 388.633 404.453H381.406C381.406 402.943 381.797 401.445 382.578 399.961C383.359 398.477 384.479 397.135 385.938 395.938C387.422 394.714 389.193 393.75 391.25 393.047C393.333 392.318 395.651 391.953 398.203 391.953C401.276 391.953 403.984 392.474 406.328 393.516C408.698 394.557 410.547 396.133 411.875 398.242C413.229 400.326 413.906 402.943 413.906 406.094V425.781C413.906 427.188 414.023 428.685 414.258 430.273C414.518 431.862 414.896 433.229 415.391 434.375V435H407.852C407.487 434.167 407.201 433.06 406.992 431.68C406.784 430.273 406.68 428.971 406.68 427.773ZM407.93 409.375L408.008 414.453H400.703C398.646 414.453 396.81 414.622 395.195 414.961C393.581 415.273 392.227 415.755 391.133 416.406C390.039 417.057 389.206 417.878 388.633 418.867C388.06 419.831 387.773 420.964 387.773 422.266C387.773 423.594 388.073 424.805 388.672 425.898C389.271 426.992 390.169 427.865 391.367 428.516C392.591 429.141 394.089 429.453 395.859 429.453C398.073 429.453 400.026 428.984 401.719 428.047C403.411 427.109 404.753 425.964 405.742 424.609C406.758 423.255 407.305 421.94 407.383 420.664L410.469 424.141C410.286 425.234 409.792 426.445 408.984 427.773C408.177 429.102 407.096 430.378 405.742 431.602C404.414 432.799 402.826 433.802 400.977 434.609C399.154 435.391 397.096 435.781 394.805 435.781C391.94 435.781 389.427 435.221 387.266 434.102C385.13 432.982 383.464 431.484 382.266 429.609C381.094 427.708 380.508 425.586 380.508 423.242C380.508 420.977 380.951 418.984 381.836 417.266C382.721 415.521 383.997 414.076 385.664 412.93C387.331 411.758 389.336 410.872 391.68 410.273C394.023 409.674 396.641 409.375 399.531 409.375H407.93ZM434.922 435H427.695V389.062C427.695 385.859 428.32 383.151 429.57 380.938C430.82 378.724 432.604 377.044 434.922 375.898C437.24 374.753 439.987 374.18 443.164 374.18C445.039 374.18 446.875 374.414 448.672 374.883C450.469 375.326 452.318 375.885 454.219 376.562L453.008 382.656C451.81 382.188 450.417 381.745 448.828 381.328C447.266 380.885 445.547 380.664 443.672 380.664C440.573 380.664 438.333 381.367 436.953 382.773C435.599 384.154 434.922 386.25 434.922 389.062V435ZM443.555 392.734V398.281H421.016V392.734H443.555ZM457.773 392.734V435H450.547V392.734H457.773ZM467.734 414.336V413.438C467.734 410.391 468.177 407.565 469.062 404.961C469.948 402.331 471.224 400.052 472.891 398.125C474.557 396.172 476.576 394.661 478.945 393.594C481.315 392.5 483.971 391.953 486.914 391.953C489.883 391.953 492.552 392.5 494.922 393.594C497.318 394.661 499.349 396.172 501.016 398.125C502.708 400.052 503.997 402.331 504.883 404.961C505.768 407.565 506.211 410.391 506.211 413.438V414.336C506.211 417.383 505.768 420.208 504.883 422.812C503.997 425.417 502.708 427.695 501.016 429.648C499.349 431.576 497.331 433.086 494.961 434.18C492.617 435.247 489.961 435.781 486.992 435.781C484.023 435.781 481.354 435.247 478.984 434.18C476.615 433.086 474.583 431.576 472.891 429.648C471.224 427.695 469.948 425.417 469.062 422.812C468.177 420.208 467.734 417.383 467.734 414.336ZM474.961 413.438V414.336C474.961 416.445 475.208 418.438 475.703 420.312C476.198 422.161 476.94 423.802 477.93 425.234C478.945 426.667 480.208 427.799 481.719 428.633C483.229 429.44 484.987 429.844 486.992 429.844C488.971 429.844 490.703 429.44 492.188 428.633C493.698 427.799 494.948 426.667 495.938 425.234C496.927 423.802 497.669 422.161 498.164 420.312C498.685 418.438 498.945 416.445 498.945 414.336V413.438C498.945 411.354 498.685 409.388 498.164 407.539C497.669 405.664 496.914 404.01 495.898 402.578C494.909 401.12 493.659 399.974 492.148 399.141C490.664 398.307 488.919 397.891 486.914 397.891C484.935 397.891 483.19 398.307 481.68 399.141C480.195 399.974 478.945 401.12 477.93 402.578C476.94 404.01 476.198 405.664 475.703 407.539C475.208 409.388 474.961 411.354 474.961 413.438ZM539.883 423.789C539.883 422.747 539.648 421.784 539.18 420.898C538.737 419.987 537.812 419.167 536.406 418.438C535.026 417.682 532.943 417.031 530.156 416.484C527.812 415.99 525.69 415.404 523.789 414.727C521.914 414.049 520.312 413.229 518.984 412.266C517.682 411.302 516.68 410.169 515.977 408.867C515.273 407.565 514.922 406.042 514.922 404.297C514.922 402.63 515.286 401.055 516.016 399.57C516.771 398.086 517.826 396.771 519.18 395.625C520.56 394.479 522.214 393.581 524.141 392.93C526.068 392.279 528.216 391.953 530.586 391.953C533.971 391.953 536.862 392.552 539.258 393.75C541.654 394.948 543.49 396.549 544.766 398.555C546.042 400.534 546.68 402.734 546.68 405.156H539.453C539.453 403.984 539.102 402.852 538.398 401.758C537.721 400.638 536.719 399.714 535.391 398.984C534.089 398.255 532.487 397.891 530.586 397.891C528.581 397.891 526.953 398.203 525.703 398.828C524.479 399.427 523.581 400.195 523.008 401.133C522.461 402.07 522.188 403.06 522.188 404.102C522.188 404.883 522.318 405.586 522.578 406.211C522.865 406.81 523.359 407.37 524.062 407.891C524.766 408.385 525.755 408.854 527.031 409.297C528.307 409.74 529.935 410.182 531.914 410.625C535.378 411.406 538.229 412.344 540.469 413.438C542.708 414.531 544.375 415.872 545.469 417.461C546.562 419.049 547.109 420.977 547.109 423.242C547.109 425.091 546.719 426.784 545.938 428.32C545.182 429.857 544.076 431.185 542.617 432.305C541.185 433.398 539.466 434.258 537.461 434.883C535.482 435.482 533.255 435.781 530.781 435.781C527.057 435.781 523.906 435.117 521.328 433.789C518.75 432.461 516.797 430.742 515.469 428.633C514.141 426.523 513.477 424.297 513.477 421.953H520.742C520.846 423.932 521.419 425.508 522.461 426.68C523.503 427.826 524.779 428.646 526.289 429.141C527.799 429.609 529.297 429.844 530.781 429.844C532.76 429.844 534.414 429.583 535.742 429.062C537.096 428.542 538.125 427.826 538.828 426.914C539.531 426.003 539.883 424.961 539.883 423.789ZM592.93 435H581.055L581.133 428.867H592.93C596.992 428.867 600.378 428.021 603.086 426.328C605.794 424.609 607.826 422.214 609.18 419.141C610.56 416.042 611.25 412.422 611.25 408.281V404.805C611.25 401.549 610.859 398.659 610.078 396.133C609.297 393.581 608.151 391.432 606.641 389.688C605.13 387.917 603.281 386.576 601.094 385.664C598.932 384.753 596.445 384.297 593.633 384.297H580.82V378.125H593.633C597.357 378.125 600.755 378.75 603.828 380C606.901 381.224 609.544 383.008 611.758 385.352C613.997 387.669 615.716 390.482 616.914 393.789C618.112 397.07 618.711 400.768 618.711 404.883V408.281C618.711 412.396 618.112 416.107 616.914 419.414C615.716 422.695 613.984 425.495 611.719 427.812C609.479 430.13 606.771 431.914 603.594 433.164C600.443 434.388 596.888 435 592.93 435ZM585.078 378.125V435H577.539V378.125H585.078ZM636.797 392.734V435H629.531V392.734H636.797ZM628.984 381.523C628.984 380.352 629.336 379.362 630.039 378.555C630.768 377.747 631.836 377.344 633.242 377.344C634.622 377.344 635.677 377.747 636.406 378.555C637.161 379.362 637.539 380.352 637.539 381.523C637.539 382.643 637.161 383.607 636.406 384.414C635.677 385.195 634.622 385.586 633.242 385.586C631.836 385.586 630.768 385.195 630.039 384.414C629.336 383.607 628.984 382.643 628.984 381.523ZM673.008 423.789C673.008 422.747 672.773 421.784 672.305 420.898C671.862 419.987 670.938 419.167 669.531 418.438C668.151 417.682 666.068 417.031 663.281 416.484C660.938 415.99 658.815 415.404 656.914 414.727C655.039 414.049 653.438 413.229 652.109 412.266C650.807 411.302 649.805 410.169 649.102 408.867C648.398 407.565 648.047 406.042 648.047 404.297C648.047 402.63 648.411 401.055 649.141 399.57C649.896 398.086 650.951 396.771 652.305 395.625C653.685 394.479 655.339 393.581 657.266 392.93C659.193 392.279 661.341 391.953 663.711 391.953C667.096 391.953 669.987 392.552 672.383 393.75C674.779 394.948 676.615 396.549 677.891 398.555C679.167 400.534 679.805 402.734 679.805 405.156H672.578C672.578 403.984 672.227 402.852 671.523 401.758C670.846 400.638 669.844 399.714 668.516 398.984C667.214 398.255 665.612 397.891 663.711 397.891C661.706 397.891 660.078 398.203 658.828 398.828C657.604 399.427 656.706 400.195 656.133 401.133C655.586 402.07 655.312 403.06 655.312 404.102C655.312 404.883 655.443 405.586 655.703 406.211C655.99 406.81 656.484 407.37 657.188 407.891C657.891 408.385 658.88 408.854 660.156 409.297C661.432 409.74 663.06 410.182 665.039 410.625C668.503 411.406 671.354 412.344 673.594 413.438C675.833 414.531 677.5 415.872 678.594 417.461C679.688 419.049 680.234 420.977 680.234 423.242C680.234 425.091 679.844 426.784 679.062 428.32C678.307 429.857 677.201 431.185 675.742 432.305C674.31 433.398 672.591 434.258 670.586 434.883C668.607 435.482 666.38 435.781 663.906 435.781C660.182 435.781 657.031 435.117 654.453 433.789C651.875 432.461 649.922 430.742 648.594 428.633C647.266 426.523 646.602 424.297 646.602 421.953H653.867C653.971 423.932 654.544 425.508 655.586 426.68C656.628 427.826 657.904 428.646 659.414 429.141C660.924 429.609 662.422 429.844 663.906 429.844C665.885 429.844 667.539 429.583 668.867 429.062C670.221 428.542 671.25 427.826 671.953 426.914C672.656 426.003 673.008 424.961 673.008 423.789ZM706.641 429.844C708.359 429.844 709.948 429.492 711.406 428.789C712.865 428.086 714.062 427.122 715 425.898C715.938 424.648 716.471 423.229 716.602 421.641H723.477C723.346 424.141 722.5 426.471 720.938 428.633C719.401 430.768 717.383 432.5 714.883 433.828C712.383 435.13 709.635 435.781 706.641 435.781C703.464 435.781 700.69 435.221 698.32 434.102C695.977 432.982 694.023 431.445 692.461 429.492C690.924 427.539 689.766 425.299 688.984 422.773C688.229 420.221 687.852 417.526 687.852 414.688V413.047C687.852 410.208 688.229 407.526 688.984 405C689.766 402.448 690.924 400.195 692.461 398.242C694.023 396.289 695.977 394.753 698.32 393.633C700.69 392.513 703.464 391.953 706.641 391.953C709.948 391.953 712.839 392.63 715.312 393.984C717.786 395.312 719.727 397.135 721.133 399.453C722.565 401.745 723.346 404.349 723.477 407.266H716.602C716.471 405.521 715.977 403.945 715.117 402.539C714.284 401.133 713.138 400.013 711.68 399.18C710.247 398.32 708.568 397.891 706.641 397.891C704.427 397.891 702.565 398.333 701.055 399.219C699.57 400.078 698.385 401.25 697.5 402.734C696.641 404.193 696.016 405.82 695.625 407.617C695.26 409.388 695.078 411.198 695.078 413.047V414.688C695.078 416.536 695.26 418.359 695.625 420.156C695.99 421.953 696.602 423.581 697.461 425.039C698.346 426.497 699.531 427.669 701.016 428.555C702.526 429.414 704.401 429.844 706.641 429.844ZM729.688 414.336V413.438C729.688 410.391 730.13 407.565 731.016 404.961C731.901 402.331 733.177 400.052 734.844 398.125C736.51 396.172 738.529 394.661 740.898 393.594C743.268 392.5 745.924 391.953 748.867 391.953C751.836 391.953 754.505 392.5 756.875 393.594C759.271 394.661 761.302 396.172 762.969 398.125C764.661 400.052 765.951 402.331 766.836 404.961C767.721 407.565 768.164 410.391 768.164 413.438V414.336C768.164 417.383 767.721 420.208 766.836 422.812C765.951 425.417 764.661 427.695 762.969 429.648C761.302 431.576 759.284 433.086 756.914 434.18C754.57 435.247 751.914 435.781 748.945 435.781C745.977 435.781 743.307 435.247 740.938 434.18C738.568 433.086 736.536 431.576 734.844 429.648C733.177 427.695 731.901 425.417 731.016 422.812C730.13 420.208 729.688 417.383 729.688 414.336ZM736.914 413.438V414.336C736.914 416.445 737.161 418.438 737.656 420.312C738.151 422.161 738.893 423.802 739.883 425.234C740.898 426.667 742.161 427.799 743.672 428.633C745.182 429.44 746.94 429.844 748.945 429.844C750.924 429.844 752.656 429.44 754.141 428.633C755.651 427.799 756.901 426.667 757.891 425.234C758.88 423.802 759.622 422.161 760.117 420.312C760.638 418.438 760.898 416.445 760.898 414.336V413.438C760.898 411.354 760.638 409.388 760.117 407.539C759.622 405.664 758.867 404.01 757.852 402.578C756.862 401.12 755.612 399.974 754.102 399.141C752.617 398.307 750.872 397.891 748.867 397.891C746.888 397.891 745.143 398.307 743.633 399.141C742.148 399.974 740.898 401.12 739.883 402.578C738.893 404.01 738.151 405.664 737.656 407.539C737.161 409.388 736.914 411.354 736.914 413.438ZM789.453 428.477L801.016 392.734H808.398L793.203 435H788.359L789.453 428.477ZM779.805 392.734L791.719 428.672L792.539 435H787.695L772.383 392.734H779.805ZM832.344 435.781C829.401 435.781 826.732 435.286 824.336 434.297C821.966 433.281 819.922 431.862 818.203 430.039C816.51 428.216 815.208 426.055 814.297 423.555C813.385 421.055 812.93 418.32 812.93 415.352V413.711C812.93 410.273 813.438 407.214 814.453 404.531C815.469 401.823 816.849 399.531 818.594 397.656C820.339 395.781 822.318 394.362 824.531 393.398C826.745 392.435 829.036 391.953 831.406 391.953C834.427 391.953 837.031 392.474 839.219 393.516C841.432 394.557 843.242 396.016 844.648 397.891C846.055 399.74 847.096 401.927 847.773 404.453C848.451 406.953 848.789 409.688 848.789 412.656V415.898H817.227V410H841.562V409.453C841.458 407.578 841.068 405.755 840.391 403.984C839.74 402.214 838.698 400.755 837.266 399.609C835.833 398.464 833.88 397.891 831.406 397.891C829.766 397.891 828.255 398.242 826.875 398.945C825.495 399.622 824.31 400.638 823.32 401.992C822.331 403.346 821.562 405 821.016 406.953C820.469 408.906 820.195 411.159 820.195 413.711V415.352C820.195 417.357 820.469 419.245 821.016 421.016C821.589 422.76 822.409 424.297 823.477 425.625C824.57 426.953 825.885 427.995 827.422 428.75C828.984 429.505 830.755 429.883 832.734 429.883C835.286 429.883 837.448 429.362 839.219 428.32C840.99 427.279 842.539 425.885 843.867 424.141L848.242 427.617C847.331 428.997 846.172 430.312 844.766 431.562C843.359 432.812 841.628 433.828 839.57 434.609C837.539 435.391 835.13 435.781 832.344 435.781ZM864.453 399.375V435H857.227V392.734H864.258L864.453 399.375ZM877.656 392.5L877.617 399.219C877.018 399.089 876.445 399.01 875.898 398.984C875.378 398.932 874.779 398.906 874.102 398.906C872.435 398.906 870.964 399.167 869.688 399.688C868.411 400.208 867.331 400.938 866.445 401.875C865.56 402.812 864.857 403.932 864.336 405.234C863.841 406.51 863.516 407.917 863.359 409.453L861.328 410.625C861.328 408.073 861.576 405.677 862.07 403.438C862.591 401.198 863.385 399.219 864.453 397.5C865.521 395.755 866.875 394.401 868.516 393.438C870.182 392.448 872.161 391.953 874.453 391.953C874.974 391.953 875.573 392.018 876.25 392.148C876.927 392.253 877.396 392.37 877.656 392.5Z" fill="white"/>
<rect x="240" y="615" width="1440" height="780" rx="40" fill="white"/>
<rect x="240" y="615" width="1440" height="780" fill="#121214"/>
<g clip-path="url(#clip1_1146_2)">
<path d="M555.448 851.289C555.448 851.289 549.741 823.65 555.094 813.196C560.446 802.743 574.645 805.445 575.972 810.494C577.299 815.544 578.007 828.035 582.032 828.345C586.057 828.655 590.437 830.693 589.419 833.749C588.402 836.805 581.678 838.488 581.324 839.817C580.97 841.146 583.669 853.991 583.669 853.991L555.448 851.289Z" fill="#8157E4"/>
<path d="M566.728 829.939C567.949 829.939 568.939 827.976 568.939 825.554C568.939 823.132 567.949 821.169 566.728 821.169C565.507 821.169 564.516 823.132 564.516 825.554C564.516 827.976 565.507 829.939 566.728 829.939Z" fill="#121214"/>
<path d="M573.937 831.224C575.159 831.224 576.149 829.261 576.149 826.839C576.149 824.417 575.159 822.454 573.937 822.454C572.715 822.454 571.725 824.417 571.725 826.839C571.725 829.261 572.715 831.224 573.937 831.224Z" fill="#121214"/>
<path d="M565.179 817.891C567.568 817.36 571.991 816.872 575.795 819.043C576.193 819.264 576.636 818.777 576.326 818.423C574.38 815.987 570.355 812.665 564.825 817.138C564.471 817.404 564.781 817.98 565.179 817.891Z" fill="#121214"/>
<path d="M575.442 837.248C575.574 836.849 575.309 836.406 574.911 836.362C573.009 836.007 567.922 834.856 563.897 832.464C563.897 832.464 564.561 830.781 562.879 831.799C561.199 832.818 564.693 845.132 571.284 842.917C573.584 842.12 574.911 838.754 575.442 837.248Z" fill="#121214"/>
<path d="M560.49 809.476C560.49 809.476 556.775 801.724 544.345 801.724C531.916 801.724 520.415 826.352 509.003 823.65C497.546 820.948 506.304 830.737 512.718 830.737C512.718 830.737 512.364 832.774 509.666 833.793C506.968 834.812 514.709 839.861 521.123 836.141C521.123 836.141 520.769 837.824 518.778 840.172C516.743 842.519 523.157 844.557 526.873 838.134C530.588 831.711 540.011 814.525 551.467 815.898C562.879 817.227 560.49 809.476 560.49 809.476Z" fill="#8157E4"/>
<path d="M616.579 917.554C616.579 917.554 640.907 944.573 637.811 962.733C634.714 980.894 614.367 977.794 614.367 977.794L597.116 981.337L590.481 982.223C590.481 982.223 594.904 972.478 588.269 959.19L610.828 953.875L594.152 929.911L616.579 917.554Z" fill="white"/>
<path d="M547.397 949.224C550.626 955.557 553.634 963.132 554.696 970.618C554.784 971.282 553.856 971.548 553.59 970.927C551.865 967.074 548.812 961.493 545.363 960.917C545.363 960.917 510.86 960.031 498.475 959.588C486.09 959.145 485.647 999.896 505.552 1005.21C525.457 1010.53 524.13 999.453 524.13 999.453C524.13 999.453 514.355 996.928 510.197 989.885C509.887 989.354 510.551 988.733 511.037 989.133C514.841 992.056 523.776 997.902 534.702 998.567C549.299 999.453 579.378 992.366 587.34 979.077C592.914 969.776 581.589 952.236 574.291 942.535C576.193 943.598 578.228 944.971 580.307 946.831C581.192 947.629 582.386 947.939 583.536 947.762L618.79 941.871L610.385 922.204C601.23 925.792 591.941 932.215 580.307 938.327C565.046 946.344 552.219 948.648 547.397 949.224Z" fill="white"/>
<path d="M511.082 989.177C514.886 992.1 523.821 997.946 534.746 998.611C535.366 998.655 536.029 998.655 536.693 998.699C522.671 987.095 523.732 967.428 524.617 960.429C514.93 960.164 504.27 959.854 498.475 959.632C486.09 959.189 485.647 999.94 505.552 1005.26C525.457 1010.57 524.13 999.497 524.13 999.497C524.13 999.497 514.355 996.972 510.197 989.929C509.887 989.353 510.551 988.777 511.082 989.177Z" fill="#464650"/>
<path d="M721.191 815.012C714.954 807.659 706.063 802.388 696.42 798.579C695.314 801.325 693.103 803.673 690.139 804.204C689.299 804.337 688.016 804.957 687.131 805.046C686.91 805.179 686.688 805.312 686.467 805.445C686.423 805.489 686.379 805.489 686.335 805.533C686.202 805.666 685.892 805.932 685.583 806.065C685.008 806.552 684.477 807.083 683.902 807.615C683.194 808.324 682.486 809.032 681.823 809.785C681.735 809.874 681.646 810.007 681.557 810.14C681.425 810.405 681.292 810.716 681.115 810.981C680.938 811.557 680.717 812.089 680.585 812.664C680.496 813.107 680.407 813.55 680.319 813.993C680.275 814.702 680.142 815.411 680.098 816.119C680.009 817.936 679.965 819.752 680.009 821.523C680.053 824.978 680.186 828.433 679.921 831.888C679.877 832.73 679.7 833.571 679.478 834.324C707.213 840.835 705.355 859.528 676.249 863.514C640.863 868.386 601.937 855.098 601.937 855.098C601.937 855.098 548.193 839.817 521.653 853.991C495.113 868.165 482.109 919.59 513.249 939.036C552.396 963.486 591.144 924.153 619.984 921.45C617.817 917.818 618.967 912.548 621.665 909.58C622.417 908.738 623.479 908.074 624.629 907.587C624.496 907.41 624.319 907.188 624.186 907.011C624.054 906.923 623.656 906.435 623.302 906.08C622.594 905.328 621.886 904.619 621.135 903.955C618.392 901.474 614.986 899.304 613.261 895.893C611.846 893.058 611.536 890.179 612.774 887.211C613.836 884.731 616.18 881.941 619.056 881.586C619.542 881.542 620.028 881.454 620.471 881.409C619.587 881.365 618.702 881.276 617.817 881.276L617.684 879.726C617.684 879.726 611.934 872.373 609.103 866.615C608.882 866.216 609.457 865.862 609.766 866.216C612.952 870.379 619.631 878.663 623.877 880.611C732.249 886.768 743.308 841.146 721.191 815.012ZM609.545 881.542C601.716 882.339 593.223 884.554 584.067 888.54C553.103 901.961 520.946 903.068 513.824 892.66C513.559 892.305 514.001 891.862 514.355 892.128C515.416 892.925 516.92 893.767 518.69 893.855C518.867 893.855 519.044 893.723 519.088 893.546C519.442 891.242 522.007 877.777 531.208 870.379C531.606 870.07 532.048 870.601 531.739 870.955C530.058 872.728 528.156 875.163 527.094 877.998C526.696 879.017 526.74 880.124 527.227 881.054C529.173 885.351 535.056 897.975 535.675 898.019C539.568 898.285 549.476 897.886 566.418 893.368C584.377 888.585 596.585 880.169 609.545 881.542Z" fill="white"/>
<path d="M600.743 929.557C598.841 929.69 597.868 931.993 599.151 933.411C603.22 937.973 608.44 947.142 603.751 960.962C597.558 979.211 489.85 1007.03 463.531 1013.58C462.735 1013.8 462.867 1015 463.708 1015L619.631 1014.56C620.25 1014.56 620.825 1014.47 621.4 1014.29C632.856 1010.7 737.823 974.693 757.197 953.875C773.165 936.777 749.191 924.64 741.096 921.186C739.548 920.521 737.867 920.255 736.186 920.388L600.743 929.557Z" fill="url(#paint1_radial_1146_2)"/>
<path d="M609.103 939.478C609.324 939.965 609.457 940.187 609.634 940.674C614.366 940.319 616.755 940.143 621.576 939.744C621.355 939.301 621.267 939.035 621.046 938.593C616.224 938.991 613.836 939.168 609.103 939.478Z" fill="#04D361"/>
<path d="M616.711 942.536C616.888 942.978 616.932 943.2 617.11 943.687C618.481 943.554 619.189 943.51 620.604 943.377C620.471 942.934 620.383 942.712 620.206 942.269C618.79 942.358 618.083 942.447 616.711 942.536Z" fill="#04D361"/>
<path d="M622.107 942.093C622.284 942.535 622.329 942.756 622.505 943.2C627.017 942.801 629.317 942.58 634.006 942.137C633.829 941.694 633.785 941.517 633.608 941.074C628.919 941.472 626.663 941.694 622.107 942.093Z" fill="#6F33EA"/>
<path d="M635.953 940.852C636.13 941.295 636.218 941.472 636.396 941.915C642.146 941.384 647.852 940.852 653.602 940.276C653.381 939.878 653.292 939.7 653.072 939.302C647.365 939.789 641.659 940.32 635.953 940.852Z" fill="#6F33EA"/>
<path d="M612.067 946.476C612.2 946.92 612.244 947.141 612.333 947.584C613.659 947.451 614.367 947.363 615.694 947.23C615.606 946.787 615.562 946.565 615.429 946.122C614.058 946.255 613.394 946.344 612.067 946.476Z" fill="#04D361"/>
<path d="M617.33 945.946C617.419 946.389 617.508 946.611 617.596 947.053C622.019 946.611 624.275 946.344 628.92 945.902C628.831 945.503 628.787 945.281 628.654 944.838C624.054 945.281 621.798 945.503 617.33 945.946Z" fill="#6F33EA"/>
<path d="M651.612 942.49C651.789 942.889 651.833 943.066 651.966 943.465C656.08 943.022 660.237 942.579 664.351 942.136C664.174 941.782 664.086 941.56 663.865 941.206C658.954 941.782 656.478 942.003 651.612 942.49Z" fill="#04D361"/>
<path d="M631.043 944.573C631.176 944.971 631.22 945.193 631.309 945.591C637.058 945.016 642.853 944.395 648.604 943.819C648.471 943.421 648.383 943.244 648.25 942.845C642.543 943.421 636.793 943.997 631.043 944.573Z" fill="#6F33EA"/>
<path d="M618.171 952.236C618.171 952.634 618.171 952.856 618.171 953.254C619.232 953.121 619.763 953.077 620.825 952.944C620.825 952.545 620.869 952.368 620.869 951.969C619.763 952.058 619.232 952.103 618.171 952.236Z" fill="#04D361"/>
<path d="M622.771 951.704C622.771 952.102 622.771 952.28 622.727 952.678C627.239 952.146 629.583 951.837 634.36 951.305C634.36 950.906 634.36 950.729 634.36 950.331C629.627 950.906 627.283 951.172 622.771 951.704Z" fill="#6F33EA"/>
<path d="M657.097 947.762C657.141 948.116 657.185 948.294 657.185 948.692C658.246 948.559 658.777 948.514 659.839 948.382C659.795 948.027 659.75 947.85 659.706 947.496C658.689 947.584 658.158 947.629 657.097 947.762Z" fill="#AD92FF"/>
<path d="M636.882 950.065C636.882 950.464 636.882 950.641 636.882 951.04C642.898 950.331 648.958 949.622 654.974 948.958C654.929 948.604 654.929 948.426 654.885 948.028C648.869 948.692 642.898 949.356 636.882 950.065Z" fill="#6F33EA"/>
<path d="M661.962 947.186C662.051 947.54 662.051 947.718 662.095 948.072C668.465 947.319 674.79 946.566 681.16 945.813C681.071 945.458 680.982 945.281 680.894 944.971C674.569 945.724 668.287 946.477 661.962 947.186Z" fill="#6F33EA"/>
<path d="M615.87 963.885C615.649 964.239 615.516 964.416 615.295 964.77C616.357 964.594 616.932 964.549 618.038 964.372C618.303 964.018 618.392 963.84 618.613 963.486C617.507 963.663 616.932 963.751 615.87 963.885Z" fill="#04D361"/>
<path d="M621.091 963.221C620.869 963.575 620.737 963.708 620.516 964.062C625.027 963.443 627.46 963.088 632.459 962.424C632.679 962.113 632.813 961.937 633.033 961.582C628.035 962.246 625.603 962.556 621.091 963.221Z" fill="#6F33EA"/>
<path d="M657.361 958.525C657.185 958.835 657.096 959.012 656.875 959.322C658.025 959.189 658.6 959.101 659.794 958.968C659.971 958.658 660.059 958.481 660.236 958.17C659.086 958.303 658.511 958.392 657.361 958.525Z" fill="#04D361"/>
<path d="M635.643 961.227C635.422 961.582 635.333 961.714 635.068 962.069C641.526 961.227 647.984 960.43 654.442 959.632C654.664 959.323 654.752 959.145 654.929 958.835C648.515 959.632 642.102 960.43 635.643 961.227Z" fill="#6F33EA"/>
<path d="M662.625 957.861C662.449 958.171 662.36 958.348 662.183 958.658C669.084 957.817 675.984 956.975 682.884 956.089C683.017 955.779 683.106 955.602 683.194 955.292C676.382 956.178 669.526 957.019 662.625 957.861Z" fill="#6F33EA"/>
<path d="M611.712 969.022C611.403 969.333 611.226 969.509 610.872 969.82C611.933 969.642 612.465 969.598 613.526 969.421C613.88 969.111 614.056 968.933 614.366 968.624C613.305 968.757 612.774 968.845 611.712 969.022Z" fill="#04D361"/>
<path d="M616.976 968.093C616.667 968.403 616.49 968.58 616.136 968.89C620.603 968.226 623.036 967.915 628.123 967.251C628.477 966.941 628.61 966.764 628.964 966.454C623.921 967.119 621.488 967.473 616.976 968.093Z" fill="#6F33EA"/>
<path d="M654.53 963.353C654.221 963.663 654.088 963.84 653.778 964.151C655.017 964.017 655.636 963.929 656.875 963.796C657.184 963.486 657.316 963.308 657.626 962.999C656.388 963.132 655.769 963.22 654.53 963.353Z" fill="#04D361"/>
<path d="M631.618 966.099C631.309 966.409 631.132 966.586 630.822 966.896C637.413 966.055 644.048 965.213 650.638 964.416C650.948 964.106 651.081 963.928 651.391 963.619C644.8 964.46 638.209 965.258 631.618 966.099Z" fill="#6F33EA"/>
<path d="M659.308 962.689C659.043 962.999 658.91 963.176 658.601 963.486C665.722 962.645 672.843 961.758 679.965 960.872C680.231 960.563 680.319 960.385 680.585 960.075C673.507 960.961 666.386 961.802 659.308 962.689Z" fill="#6F33EA"/>
<path d="M603.574 972.123C603.22 972.433 603.043 972.566 602.689 972.876C603.574 972.743 604.016 972.655 604.901 972.477C605.254 972.168 605.432 972.034 605.786 971.725C604.901 971.902 604.458 971.99 603.574 972.123Z" fill="#04D361"/>
<path d="M607.511 971.503C607.157 971.813 606.98 971.946 606.582 972.256C610.519 971.636 612.73 971.282 617.42 970.662C617.817 970.351 617.995 970.219 618.348 969.908C613.659 970.528 611.448 970.839 607.511 971.503Z" fill="#6F33EA"/>
<path d="M642.411 966.985C642.057 967.295 641.88 967.472 641.482 967.783C642.676 967.65 643.296 967.561 644.534 967.428C644.932 967.118 645.109 966.941 645.463 966.631C644.225 966.764 643.605 966.808 642.411 966.985Z" fill="#04D361"/>
<path d="M620.825 969.554C620.471 969.864 620.25 969.997 619.896 970.307C626.221 969.466 632.502 968.669 638.828 967.871C639.182 967.561 639.403 967.428 639.757 967.118C633.431 967.871 627.106 968.669 620.825 969.554Z" fill="#6F33EA"/>
<path d="M614.367 961.582C614.19 961.936 614.101 962.113 613.924 962.468C618.083 961.848 620.294 961.538 624.939 960.918C625.115 960.563 625.204 960.386 625.381 960.031C620.781 960.696 618.524 961.006 614.367 961.582Z" fill="#04D361"/>
<path d="M648.338 957.152C648.205 957.507 648.117 957.639 647.939 957.994C649.046 957.861 649.577 957.773 650.726 957.639C650.903 957.285 650.947 957.152 651.081 956.798C649.975 956.931 649.399 956.975 648.338 957.152Z" fill="#04D361"/>
<path d="M627.858 959.72C627.681 960.075 627.593 960.252 627.416 960.607C633.475 959.809 639.58 959.012 645.64 958.259C645.817 957.905 645.861 957.771 646.038 957.417C639.978 958.17 633.918 958.923 627.858 959.72Z" fill="#6F33EA"/>
<path d="M653.381 956.488C653.248 956.842 653.16 956.975 653.027 957.329C659.707 956.488 666.386 955.69 673.109 954.849C673.198 954.538 673.242 954.362 673.331 954.007C666.696 954.849 660.061 955.69 653.381 956.488Z" fill="#6F33EA"/>
<path d="M675.763 953.742C675.675 954.051 675.631 954.229 675.542 954.583C690.316 952.723 705.046 950.862 719.776 948.737C719.776 948.426 719.82 948.249 719.82 947.939C705.135 950.021 690.449 951.925 675.763 953.742Z" fill="#6F33EA"/>
<path d="M627.682 954.007C627.638 954.406 627.594 954.583 627.505 954.938C632.149 954.362 634.582 954.051 639.537 953.476C639.581 953.121 639.625 952.944 639.669 952.545C634.76 953.121 632.327 953.431 627.682 954.007Z" fill="#04D361"/>
<path d="M663.156 949.755C663.156 950.109 663.156 950.287 663.156 950.641C664.263 950.508 664.793 950.464 665.899 950.331C665.899 949.976 665.899 949.8 665.855 949.445C664.793 949.578 664.263 949.622 663.156 949.755Z" fill="#04D361"/>
<path d="M642.279 952.235C642.234 952.589 642.234 952.767 642.146 953.165C648.383 952.413 654.62 951.659 660.857 950.906C660.857 950.552 660.857 950.375 660.857 950.02C654.664 950.774 648.471 951.482 642.279 952.235Z" fill="#6F33EA"/>
<path d="M668.2 949.135C668.244 949.489 668.244 949.666 668.244 950.02C674.746 949.224 681.293 948.426 687.794 947.629C687.751 947.275 687.707 947.142 687.618 946.787C681.16 947.584 674.657 948.382 668.2 949.135Z" fill="#6F33EA"/>
<path d="M608.75 967.295C608.484 967.606 608.352 967.782 608.086 968.093C611.935 967.473 614.013 967.163 618.525 966.498C618.835 966.188 618.967 966.011 619.233 965.701C614.721 966.321 612.598 966.676 608.75 967.295Z" fill="#6F33EA"/>
<path d="M642.278 962.689C642.013 963.044 641.88 963.176 641.57 963.531C642.721 963.398 643.296 963.309 644.49 963.176C644.756 962.867 644.888 962.689 645.153 962.335C644.003 962.468 643.428 962.556 642.278 962.689Z" fill="#04D361"/>
<path d="M670.101 959.189C669.88 959.5 669.791 959.677 669.57 959.987C670.765 959.854 671.384 959.765 672.578 959.632C672.799 959.323 672.888 959.145 673.109 958.835C671.915 958.969 671.295 959.057 670.101 959.189Z" fill="#04D361"/>
<path d="M621.578 965.346C621.313 965.656 621.179 965.833 620.87 966.144C626.885 965.302 632.946 964.504 639.006 963.751C639.271 963.441 639.403 963.264 639.669 962.954C633.653 963.751 627.638 964.504 621.578 965.346Z" fill="#6F33EA"/>
<path d="M647.144 962.025C646.878 962.334 646.745 962.512 646.48 962.821C653.336 961.98 660.193 961.138 667.049 960.297C667.27 959.987 667.403 959.81 667.58 959.5C660.812 960.341 653.955 961.182 647.144 962.025Z" fill="#6F33EA"/>
<path d="M675.63 958.525C675.453 958.834 675.32 959.012 675.144 959.321C682.132 958.436 689.165 957.595 696.155 956.664C696.331 956.354 696.42 956.177 696.552 955.867C689.564 956.797 682.575 957.639 675.63 958.525Z" fill="#6F33EA"/>
<path d="M658.866 938.725C659.131 939.125 659.22 939.301 659.441 939.7C665.501 939.125 671.561 938.504 677.621 937.84C677.311 937.486 677.178 937.308 676.869 936.954C670.897 937.574 664.881 938.15 658.866 938.725Z" fill="#6F33EA"/>
<path d="M679.434 936.688C679.743 937.042 679.921 937.219 680.186 937.574C683.769 937.219 685.582 936.998 689.165 936.6C688.856 936.245 688.679 936.068 688.325 935.757C684.787 936.156 683.017 936.333 679.434 936.688Z" fill="#04D361"/>
<path d="M690.935 935.493C691.289 935.847 691.466 936.024 691.82 936.334C692.66 936.245 693.103 936.201 693.987 936.112C693.633 935.758 693.457 935.625 693.103 935.271C692.218 935.36 691.775 935.404 690.935 935.493Z" fill="#04D361"/>
<path d="M654.708 939.125C654.93 939.523 655.062 939.7 655.284 940.099C656.301 940.011 656.787 939.966 657.805 939.833C657.584 939.435 657.451 939.257 657.23 938.859C656.212 938.992 655.726 939.036 654.708 939.125Z" fill="#AD92FF"/>
<path d="M613.04 949.489C613.084 949.932 613.128 950.109 613.173 950.552C617.464 950.065 619.675 949.8 624.187 949.312C624.142 948.913 624.142 948.692 624.054 948.293C619.587 948.781 617.331 949.002 613.04 949.489Z" fill="#04D361"/>
<path d="M626.487 948.027C626.531 948.426 626.575 948.647 626.62 949.045C632.37 948.426 638.076 947.761 643.827 947.141C643.783 946.743 643.738 946.565 643.65 946.167C637.9 946.787 632.193 947.407 626.487 948.027Z" fill="#6F33EA"/>
<path d="M649.533 945.547C649.621 945.945 649.665 946.123 649.753 946.521C655.99 945.813 662.272 945.149 668.509 944.439C668.376 944.085 668.287 943.908 668.155 943.554C661.962 944.174 655.769 944.838 649.533 945.547Z" fill="#6F33EA"/>
<path d="M670.808 943.2C670.986 943.554 671.03 943.731 671.162 944.085C684.698 942.535 698.234 940.94 711.725 939.213C711.459 938.903 711.371 938.725 711.105 938.416C697.703 940.099 684.255 941.694 670.808 943.2Z" fill="#6F33EA"/>
<path d="M645.331 945.99C645.419 946.388 645.463 946.566 645.507 946.964C646.525 946.831 647.056 946.787 648.073 946.699C647.985 946.3 647.94 946.123 647.852 945.725C646.835 945.813 646.304 945.901 645.331 945.99Z" fill="#AD92FF"/>
<path d="M613.659 958.923C613.571 959.277 613.482 959.499 613.394 959.853C617.508 959.277 619.719 958.968 624.275 958.347C624.408 957.993 624.452 957.816 624.585 957.462C619.985 958.082 617.773 958.347 613.659 958.923Z" fill="#04D361"/>
<path d="M626.974 957.151C626.841 957.506 626.797 957.683 626.665 958.038C632.592 957.24 638.563 956.532 644.534 955.778C644.668 955.424 644.712 955.247 644.8 954.893C638.828 955.645 632.901 956.399 626.974 957.151Z" fill="#6F33EA"/>
<path d="M651.037 954.139C650.948 954.494 650.904 954.671 650.816 955.026C657.495 954.228 664.174 953.387 670.854 952.589C670.898 952.235 670.942 952.102 670.942 951.748C664.307 952.545 657.672 953.343 651.037 954.139Z" fill="#6F33EA"/>
<path d="M673.772 951.394C673.728 951.749 673.728 951.881 673.684 952.236C687.971 950.464 702.215 948.648 716.502 946.655C716.457 946.344 716.413 946.168 716.369 945.857C702.215 947.806 688.015 949.622 673.772 951.394Z" fill="#6F33EA"/>
<path d="M646.569 954.717C646.48 955.071 646.436 955.248 646.304 955.602C647.365 955.469 647.94 955.425 649.002 955.248C649.09 954.893 649.134 954.717 649.223 954.362C648.161 954.495 647.63 954.583 646.569 954.717Z" fill="#04D361"/>
<path d="M622.992 938.46C623.214 938.902 623.301 939.169 623.523 939.611C629.185 939.169 634.847 938.681 640.509 938.238C640.288 937.795 640.155 937.618 639.889 937.175C634.272 937.618 628.654 938.061 622.992 938.46Z" fill="#6F33EA"/>
<path d="M645.507 936.688C645.773 937.087 645.905 937.308 646.171 937.751C652.01 937.264 657.848 936.732 663.687 936.201C663.378 935.802 663.2 935.625 662.891 935.226C657.097 935.758 651.302 936.245 645.507 936.688Z" fill="#6F33EA"/>
<path d="M664.926 935.049C665.28 935.448 665.413 935.625 665.767 936.024C677.046 934.961 688.37 933.853 699.649 932.701C699.207 932.392 698.986 932.214 698.544 931.86C687.308 933.012 676.117 934.031 664.926 935.049Z" fill="#6F33EA"/>
<path d="M641.925 936.998C642.19 937.441 642.323 937.618 642.544 938.061C643.34 937.972 643.739 937.972 644.534 937.884C644.269 937.485 644.181 937.263 643.915 936.82C643.119 936.909 642.721 936.909 641.925 936.998Z" fill="#AD92FF"/>
<path d="M600.389 974.559C599.991 974.87 599.814 975.002 599.371 975.268C603.043 974.604 605.166 974.249 609.899 973.585C610.341 973.275 610.563 973.142 610.961 972.832C606.272 973.54 604.104 973.895 600.389 974.559Z" fill="#04D361"/>
<path d="M602.291 975.844C601.848 976.109 601.628 976.287 601.14 976.552C602.335 976.376 602.954 976.243 604.281 976.065C604.768 975.8 604.989 975.622 605.431 975.357C604.148 975.578 603.529 975.667 602.291 975.844Z" fill="#04D361"/>
<path d="M607.29 975.091C606.847 975.401 606.582 975.534 606.139 975.8C610.475 975.179 612.863 974.87 617.95 974.205C618.436 973.895 618.658 973.762 619.144 973.496C614.013 974.161 611.625 974.471 607.29 975.091Z" fill="#6F33EA"/>
<path d="M621.754 973.142C621.267 973.452 621.046 973.585 620.559 973.851C627.283 973.009 634.051 972.212 640.774 971.459C641.217 971.149 641.482 971.016 641.924 970.706C635.201 971.503 628.477 972.345 621.754 973.142Z" fill="#6F33EA"/>
<path d="M594.152 978.767C593.665 979.033 593.445 979.166 592.957 979.432C593.975 979.255 594.506 979.166 595.612 978.989C596.098 978.723 596.364 978.59 596.85 978.28C595.7 978.457 595.169 978.59 594.152 978.767Z" fill="#04D361"/>
<path d="M598.443 978.014C597.956 978.28 597.691 978.413 597.205 978.723C600.964 978.103 603.132 977.793 607.821 977.173C608.352 976.907 608.617 976.73 609.103 976.464C604.415 977.128 602.247 977.439 598.443 978.014Z" fill="#6F33EA"/>
<path d="M634.847 973.364C634.36 973.673 634.095 973.806 633.564 974.072C638.563 973.496 643.605 972.965 648.604 972.433C649.09 972.123 649.356 971.99 649.842 971.68C644.844 972.256 639.845 972.788 634.847 973.364Z" fill="#04D361"/>
<path d="M611.58 976.155C611.049 976.42 610.828 976.597 610.297 976.863C616.711 976.022 623.169 975.269 629.627 974.56C630.158 974.25 630.423 974.117 630.91 973.851C624.408 974.56 617.994 975.313 611.58 976.155Z" fill="#6F33EA"/>
<path d="M590.392 982.089C589.817 982.356 589.508 982.489 588.933 982.754C589.817 982.621 590.259 982.533 591.188 982.4C591.807 982.134 592.073 982.001 592.648 981.735C591.719 981.868 591.277 981.957 590.392 982.089Z" fill="#04D361"/>
<path d="M594.373 981.469C593.798 981.735 593.489 981.868 592.869 982.133C596.939 981.558 599.239 981.247 604.238 980.671C604.857 980.406 605.167 980.273 605.742 980.008C600.743 980.627 598.443 980.893 594.373 981.469Z" fill="#6F33EA"/>
<path d="M631.308 977.174C630.733 977.439 630.424 977.616 629.805 977.882C631.043 977.75 631.707 977.705 632.945 977.572C633.565 977.307 633.83 977.129 634.449 976.863C633.166 976.996 632.547 977.085 631.308 977.174Z" fill="#04D361"/>
<path d="M608.395 979.697C607.775 979.963 607.466 980.096 606.891 980.362C613.659 979.609 620.426 978.856 627.238 978.147C627.857 977.881 628.167 977.704 628.742 977.439C621.93 978.191 615.163 978.9 608.395 979.697Z" fill="#6F33EA"/>
<path d="M637.102 976.597C636.527 976.907 636.218 977.04 635.643 977.306C643.251 976.552 650.86 975.755 658.467 975.002C659.042 974.692 659.308 974.559 659.883 974.249C652.275 975.046 644.666 975.8 637.102 976.597Z" fill="#6F33EA"/>
<path d="M570.62 990.019C569.869 990.284 569.515 990.373 568.719 990.639C569.515 990.55 569.957 990.461 570.842 990.373C571.594 990.107 571.992 990.019 572.743 989.752C571.903 989.841 571.461 989.885 570.62 990.019Z" fill="#04D361"/>
<path d="M574.468 989.531C573.716 989.797 573.318 989.93 572.566 990.151C576.502 989.708 578.803 989.443 583.846 988.955C584.642 988.689 585.04 988.557 585.791 988.291C580.705 988.778 578.405 989.044 574.468 989.531Z" fill="#6F33EA"/>
<path d="M611.979 985.988C611.182 986.253 610.785 986.431 610.032 986.696C611.316 986.608 611.979 986.519 613.306 986.431C614.102 986.165 614.5 985.988 615.252 985.722C613.925 985.855 613.306 985.899 611.979 985.988Z" fill="#04D361"/>
<path d="M588.446 988.069C587.65 988.335 587.251 988.468 586.455 988.733C593.4 988.114 600.389 987.493 607.334 986.962C608.13 986.696 608.528 986.563 609.324 986.253C602.335 986.784 595.39 987.405 588.446 988.069Z" fill="#6F33EA"/>
<path d="M617.995 985.501C617.198 985.766 616.844 985.944 616.048 986.209C623.877 985.589 631.751 984.969 639.58 984.349C640.376 984.039 640.73 983.906 641.482 983.596C633.653 984.26 625.824 984.881 617.995 985.501Z" fill="#6F33EA"/>
<path d="M558.855 993.695C558.014 993.96 557.616 994.049 556.776 994.315C557.528 994.226 557.926 994.182 558.81 994.093C559.651 993.827 560.049 993.739 560.889 993.473C560.005 993.517 559.606 993.561 558.855 993.695Z" fill="#04D361"/>
<path d="M562.437 993.252C561.596 993.517 561.198 993.606 560.313 993.871C564.073 993.473 566.329 993.252 571.283 992.853C572.168 992.587 572.566 992.454 573.45 992.189C568.497 992.632 566.24 992.853 562.437 993.252Z" fill="#6F33EA"/>
<path d="M599.637 990.239C598.753 990.506 598.354 990.683 597.47 990.948C598.753 990.86 599.416 990.815 600.743 990.727C601.627 990.461 602.07 990.284 602.911 990.018C601.628 990.063 600.964 990.107 599.637 990.239Z" fill="#04D361"/>
<path d="M576.105 992.011C575.264 992.277 574.822 992.409 573.937 992.675C580.882 992.099 587.826 991.612 594.771 991.125C595.656 990.859 596.098 990.727 596.938 990.416C589.993 990.903 583.049 991.435 576.105 992.011Z" fill="#6F33EA"/>
<path d="M605.697 989.796C604.813 990.063 604.414 990.24 603.53 990.505C611.448 989.974 619.321 989.442 627.239 988.911C628.123 988.601 628.522 988.468 629.406 988.158C621.488 988.689 613.571 989.221 605.697 989.796Z" fill="#6F33EA"/>
<path d="M548.371 996.086C547.53 996.308 547.132 996.44 546.292 996.662C546.778 996.573 546.999 996.529 547.574 996.44C548.415 996.219 548.857 996.086 549.697 995.865C549.122 995.953 548.857 995.997 548.371 996.086Z" fill="#04D361"/>
<path d="M550.803 995.732C549.963 995.953 549.52 996.086 548.68 996.352C551.334 995.997 553.103 995.821 557.217 995.466C558.102 995.2 558.544 995.067 559.429 994.846C555.271 995.2 553.502 995.378 550.803 995.732Z" fill="#6F33EA"/>
<path d="M582.961 992.985C582.077 993.252 581.59 993.384 580.661 993.65C581.899 993.561 582.519 993.517 583.757 993.428C584.686 993.163 585.128 993.03 586.057 992.72C584.819 992.897 584.2 992.941 582.961 992.985Z" fill="#04D361"/>
<path d="M561.641 994.625C560.756 994.89 560.314 995.023 559.429 995.245C565.666 994.714 571.903 994.27 578.14 993.871C579.069 993.606 579.511 993.473 580.44 993.208C574.159 993.606 567.922 994.049 561.641 994.625Z" fill="#6F33EA"/>
<path d="M573.628 988.423C572.921 988.689 572.567 988.778 571.859 989.043C574.866 988.556 576.769 988.334 581.06 987.803C581.811 987.537 582.165 987.404 582.873 987.183C578.583 987.715 576.68 987.936 573.628 988.423Z" fill="#04D361"/>
<path d="M606.537 984.791C605.785 985.057 605.431 985.19 604.679 985.456C605.873 985.367 606.493 985.278 607.731 985.19C608.483 984.924 608.837 984.791 609.589 984.482C608.35 984.614 607.731 984.658 606.537 984.791Z" fill="#04D361"/>
<path d="M585.217 986.918C584.465 987.183 584.112 987.316 583.359 987.582C589.64 986.874 595.877 986.298 602.159 985.722C602.911 985.456 603.265 985.323 604.016 985.057C597.735 985.633 591.454 986.209 585.217 986.918Z" fill="#6F33EA"/>
<path d="M612.199 984.26C611.448 984.526 611.094 984.658 610.341 984.969C617.994 984.304 625.646 983.64 633.299 983.02C634.051 982.709 634.404 982.577 635.112 982.266C627.46 982.931 619.852 983.595 612.199 984.26Z" fill="#6F33EA"/>
<path d="M637.898 982.045C637.19 982.355 636.837 982.488 636.085 982.798C652.23 981.425 668.375 980.14 684.432 978.369C685.14 978.058 685.494 977.882 686.201 977.527C670.145 979.299 653.999 980.627 637.898 982.045Z" fill="#6F33EA"/>
<path d="M594.55 982.842C593.931 983.108 593.577 983.24 592.957 983.507C597.425 982.931 599.902 982.665 605.254 982.089C605.918 981.823 606.228 981.69 606.891 981.425C601.539 982.001 599.017 982.266 594.55 982.842Z" fill="#04D361"/>
<path d="M633.608 978.634C632.989 978.901 632.679 979.077 632.015 979.343C633.298 979.21 633.962 979.166 635.245 979.033C635.908 978.723 636.218 978.59 636.837 978.325C635.555 978.457 634.891 978.546 633.608 978.634Z" fill="#04D361"/>
<path d="M609.634 981.071C608.971 981.336 608.661 981.469 607.997 981.735C615.119 980.982 622.197 980.273 629.318 979.609C629.982 979.343 630.291 979.165 630.911 978.9C623.833 979.609 616.756 980.317 609.634 981.071Z" fill="#6F33EA"/>
<path d="M639.58 978.058C638.961 978.369 638.651 978.502 637.987 978.767C645.685 978.014 653.381 977.306 661.077 976.552C661.697 976.243 662.006 976.11 662.581 975.8C654.929 976.597 647.233 977.306 639.58 978.058Z" fill="#6F33EA"/>
<path d="M560.668 992.455C559.916 992.676 559.518 992.809 558.766 993.031C561.154 992.632 562.747 992.411 566.595 991.968C567.391 991.702 567.789 991.613 568.63 991.347C564.737 991.835 563.057 992.057 560.668 992.455Z" fill="#6F33EA"/>
<path d="M590.924 989.309C590.083 989.575 589.685 989.708 588.845 989.973C590.039 989.885 590.614 989.84 591.853 989.752C592.693 989.486 593.091 989.353 593.931 989.088C592.693 989.177 592.073 989.221 590.924 989.309Z" fill="#04D361"/>
<path d="M622.063 986.874C621.267 987.184 620.825 987.317 620.028 987.626C621.4 987.538 622.063 987.494 623.434 987.361C624.275 987.051 624.673 986.918 625.469 986.608C624.098 986.741 623.434 986.785 622.063 986.874Z" fill="#04D361"/>
<path d="M570.664 991.17C569.867 991.435 569.47 991.568 568.629 991.79C574.557 991.17 580.484 990.683 586.367 990.195C587.208 989.929 587.605 989.796 588.446 989.531C582.518 990.018 576.591 990.55 570.664 991.17Z" fill="#6F33EA"/>
<path d="M596.453 988.866C595.612 989.132 595.215 989.265 594.374 989.53C601.982 988.954 609.59 988.378 617.198 987.803C618.039 987.493 618.437 987.36 619.277 987.094C611.669 987.67 604.061 988.246 596.453 988.866Z" fill="#6F33EA"/>
<path d="M628.301 986.43C627.504 986.74 627.062 986.873 626.265 987.183C634.007 986.607 641.792 986.031 649.532 985.455C650.373 985.146 650.771 984.968 651.567 984.658C643.782 985.234 636.041 985.854 628.301 986.43Z" fill="#6F33EA"/>
<path d="M649.134 969.909C648.691 970.219 648.47 970.352 648.028 970.662C655.592 969.82 663.156 968.979 670.72 968.093C671.117 967.783 671.339 967.65 671.737 967.34C664.217 968.182 656.653 969.068 649.134 969.909Z" fill="#6F33EA"/>
<path d="M674.922 966.985C674.525 967.295 674.303 967.428 673.906 967.738C678.329 967.251 680.541 966.985 684.919 966.454C685.318 966.144 685.494 966.011 685.893 965.701C681.557 966.188 679.346 966.454 674.922 966.985Z" fill="#04D361"/>
<path d="M688.945 965.302C688.547 965.613 688.37 965.789 687.972 966.1C688.989 965.967 689.52 965.922 690.537 965.789C690.935 965.479 691.112 965.302 691.51 964.992C690.493 965.125 690.006 965.169 688.945 965.302Z" fill="#04D361"/>
<path d="M643.959 970.484C643.517 970.794 643.296 970.927 642.809 971.237C644.048 971.104 644.667 971.015 645.906 970.883C646.348 970.572 646.569 970.44 647.011 970.13C645.817 970.307 645.198 970.351 643.959 970.484Z" fill="#04D361"/>
<path d="M590.924 980.628C590.393 980.894 590.127 981.027 589.596 981.292C592.782 980.717 594.683 980.407 598.93 979.831C599.505 979.565 599.77 979.432 600.301 979.166C596.099 979.742 594.152 980.008 590.924 980.628Z" fill="#04D361"/>
<path d="M602.601 978.812C602.071 979.077 601.761 979.21 601.23 979.476C607.29 978.679 613.35 977.926 619.454 977.262C620.029 976.995 620.295 976.819 620.869 976.553C614.765 977.262 608.706 977.97 602.601 978.812Z" fill="#6F33EA"/>
<path d="M627.681 975.799C627.15 976.065 626.841 976.242 626.31 976.508C633.785 975.666 641.305 974.914 648.78 974.116C649.312 973.806 649.577 973.673 650.107 973.363C642.632 974.16 635.157 974.958 627.681 975.799Z" fill="#6F33EA"/>
<path d="M653.292 973.009C652.761 973.319 652.496 973.452 651.965 973.762C667.756 972.079 683.592 970.44 699.339 968.491C699.826 968.181 700.091 968.004 700.533 967.694C684.831 969.643 669.084 971.326 653.292 973.009Z" fill="#6F33EA"/>
<path d="M622.771 976.332C622.241 976.597 621.931 976.775 621.356 977.04C622.506 976.907 623.125 976.863 624.275 976.731C624.85 976.464 625.116 976.288 625.646 976.021C624.496 976.155 623.921 976.199 622.771 976.332Z" fill="#04D361"/>
<path d="M577.698 986.652C577.034 986.918 576.724 987.007 576.061 987.272C578.98 986.785 580.794 986.519 584.996 985.988C585.704 985.722 586.013 985.589 586.721 985.323C582.519 985.899 580.661 986.164 577.698 986.652Z" fill="#04D361"/>
<path d="M588.933 985.057C588.269 985.322 587.915 985.455 587.207 985.721C593.312 984.968 599.461 984.348 605.564 983.772C606.272 983.506 606.626 983.373 607.334 983.108C601.185 983.684 595.037 984.348 588.933 985.057Z" fill="#6F33EA"/>
<path d="M614.278 982.4C613.571 982.665 613.217 982.798 612.509 983.108C620.206 982.4 627.902 981.691 635.599 980.982C636.307 980.672 636.616 980.539 637.324 980.274C629.671 980.938 621.975 981.647 614.278 982.4Z" fill="#6F33EA"/>
<path d="M640.686 979.92C640.023 980.23 639.669 980.363 639.006 980.672C654.974 979.255 670.942 977.838 686.91 976.066C687.574 975.756 687.884 975.579 688.547 975.269C672.579 977.04 656.61 978.458 640.686 979.92Z" fill="#6F33EA"/>
<path d="M609.014 982.887C608.262 983.196 607.864 983.329 607.112 983.64C608.394 983.507 609.058 983.463 610.341 983.329C611.093 983.02 611.491 982.887 612.243 982.577C610.96 982.709 610.297 982.753 609.014 982.887Z" fill="#04D361"/>
<path d="M612.907 972.566C612.509 972.876 612.288 973.009 611.845 973.319C618.038 972.433 624.231 971.636 630.468 970.883C630.91 970.572 631.087 970.44 631.53 970.13C625.293 970.927 619.1 971.68 612.907 972.566Z" fill="#6F33EA"/>
<path d="M638.209 969.333C637.81 969.643 637.59 969.776 637.191 970.086C644.49 969.2 651.744 968.358 659.042 967.517C659.441 967.207 659.617 967.074 660.016 966.764C652.673 967.606 645.419 968.447 638.209 969.333Z" fill="#6F33EA"/>
<path d="M662.537 966.453C662.184 966.764 661.962 966.896 661.609 967.206C675.497 965.612 689.343 963.973 703.188 962.201C703.497 961.891 703.675 961.714 703.984 961.404C690.183 963.176 676.382 964.814 662.537 966.453Z" fill="#6F33EA"/>
<path d="M633.874 969.82C633.475 970.13 633.254 970.263 632.812 970.573C633.785 970.44 634.228 970.395 635.201 970.263C635.643 969.952 635.82 969.82 636.262 969.51C635.289 969.687 634.803 969.731 633.874 969.82Z" fill="#04D361"/>
<path d="M542.178 997.814C541.337 998.035 540.895 998.168 540.01 998.39C541.824 998.08 543.284 997.902 547.043 997.548C547.972 997.283 548.415 997.194 549.299 996.928C545.539 997.327 544.035 997.504 542.178 997.814Z" fill="#04D361"/>
<path d="M538.551 999.187C537.622 999.453 537.179 999.541 536.25 999.807C537.047 999.718 537.489 999.674 538.418 999.585C539.347 999.32 539.833 999.231 540.762 998.965C539.789 999.054 539.347 999.098 538.551 999.187Z" fill="#04D361"/>
<path d="M542.134 998.833C541.205 999.099 540.718 999.187 539.789 999.453C543.151 999.187 545.23 999.01 549.963 998.7C550.936 998.434 551.423 998.302 552.396 998.035C547.618 998.39 545.54 998.567 542.134 998.833Z" fill="#6F33EA"/>
<path d="M554.872 997.903C553.899 998.168 553.412 998.301 552.439 998.566C559.251 998.168 566.063 997.769 572.831 997.415C573.848 997.149 574.335 996.972 575.308 996.706C568.54 997.105 561.684 997.503 554.872 997.903Z" fill="#6F33EA"/>
<path d="M529.041 1001.36C528.112 1001.58 527.669 1001.71 526.74 1001.98C527.183 1001.89 527.448 1001.89 528.067 1001.8C528.996 1001.53 529.483 1001.45 530.412 1001.18C529.748 1001.22 529.483 1001.27 529.041 1001.36Z" fill="#04D361"/>
<path d="M531.341 1001.05C530.412 1001.31 529.925 1001.4 528.952 1001.67C531.296 1001.45 532.933 1001.31 536.87 1001.05C537.888 1000.78 538.374 1000.65 539.347 1000.38C535.41 1000.69 533.729 1000.83 531.341 1001.05Z" fill="#6F33EA"/>
<path d="M564.162 999.009C563.145 999.276 562.614 999.453 561.597 999.718C566.816 999.453 572.08 999.231 577.299 999.009C578.317 998.7 578.847 998.567 579.865 998.257C574.645 998.522 569.382 998.744 564.162 999.009Z" fill="#04D361"/>
<path d="M541.559 1000.25C540.586 1000.52 540.055 1000.65 539.082 1000.91C545.23 1000.52 551.379 1000.21 557.527 999.94C558.544 999.674 559.075 999.541 560.093 999.231C553.899 999.541 547.707 999.851 541.559 1000.25Z" fill="#6F33EA"/>
<path d="M516.743 1004.81C515.726 1005.08 515.239 1005.21 514.222 1005.43C514.708 1005.39 514.974 1005.39 515.549 1005.34C516.566 1005.08 517.097 1004.94 518.114 1004.72C517.539 1004.72 517.23 1004.77 516.743 1004.81Z" fill="#04D361"/>
<path d="M519.265 1004.59C518.248 1004.86 517.717 1004.99 516.7 1005.26C519.486 1005.08 521.344 1004.99 525.723 1004.81C526.785 1004.55 527.316 1004.41 528.377 1004.15C523.998 1004.32 522.096 1004.41 519.265 1004.59Z" fill="#6F33EA"/>
<path d="M553.015 1003.13C551.909 1003.44 551.379 1003.57 550.272 1003.88C551.555 1003.84 552.174 1003.79 553.502 1003.75C554.607 1003.44 555.182 1003.31 556.244 1003C554.917 1003.04 554.298 1003.08 553.015 1003.13Z" fill="#04D361"/>
<path d="M530.722 1004.01C529.66 1004.28 529.129 1004.41 528.024 1004.68C534.57 1004.41 541.073 1004.15 547.619 1003.93C548.725 1003.62 549.256 1003.48 550.362 1003.22C543.815 1003.48 537.269 1003.7 530.722 1004.01Z" fill="#6F33EA"/>
<path d="M558.942 1002.91C557.836 1003.22 557.305 1003.35 556.2 1003.66C564.073 1003.39 571.946 1003.13 579.82 1002.86C580.926 1002.55 581.501 1002.38 582.607 1002.07C574.689 1002.33 566.815 1002.64 558.942 1002.91Z" fill="#6F33EA"/>
<path d="M483.391 1013.23C482.285 1013.49 481.71 1013.67 480.56 1013.94C480.958 1013.94 481.18 1013.94 481.666 1013.94C482.816 1013.67 483.391 1013.49 484.541 1013.23C484.055 1013.23 483.789 1013.23 483.391 1013.23Z" fill="#AD92FF"/>
<path d="M485.559 1013.18C484.409 1013.45 483.834 1013.63 482.684 1013.89C485.161 1013.85 486.886 1013.85 491.088 1013.8C492.283 1013.49 492.902 1013.36 494.096 1013.05C489.85 1013.14 488.081 1013.14 485.559 1013.18Z" fill="#6F33EA"/>
<path d="M518.203 1012.74C516.965 1013.05 516.345 1013.23 515.063 1013.54C516.301 1013.54 516.965 1013.54 518.247 1013.49C519.486 1013.18 520.15 1013.01 521.388 1012.7C520.105 1012.74 519.486 1012.74 518.203 1012.74Z" fill="#04D361"/>
<path d="M496.352 1013.05C495.158 1013.36 494.538 1013.49 493.344 1013.8C499.758 1013.72 506.128 1013.67 512.541 1013.58C513.78 1013.27 514.399 1013.1 515.638 1012.79C509.18 1012.87 502.766 1012.96 496.352 1013.05Z" fill="#6F33EA"/>
<path d="M524.086 1012.7C522.848 1013.01 522.229 1013.18 520.946 1013.49C528.642 1013.41 536.384 1013.36 544.08 1013.27C545.363 1012.92 545.982 1012.79 547.264 1012.43C539.568 1012.52 531.827 1012.61 524.086 1012.7Z" fill="#6F33EA"/>
<path d="M491.044 1011.06C489.982 1011.32 489.407 1011.46 488.346 1011.72C489.407 1011.68 490.513 1011.63 493.61 1011.59C494.76 1011.32 495.335 1011.15 496.44 1010.88C493.3 1010.97 492.15 1011.01 491.044 1011.06Z" fill="#04D361"/>
<path d="M516.876 1010.48C515.682 1010.79 515.062 1010.92 513.868 1011.23C515.018 1011.23 515.593 1011.19 516.787 1011.19C517.982 1010.88 518.601 1010.75 519.795 1010.44C518.601 1010.44 518.026 1010.44 516.876 1010.48Z" fill="#04D361"/>
<path d="M498.121 1010.84C496.971 1011.1 496.396 1011.28 495.246 1011.54C500.643 1011.41 506.083 1011.32 511.48 1011.23C512.674 1010.92 513.294 1010.79 514.488 1010.48C509.047 1010.61 503.562 1010.7 498.121 1010.84Z" fill="#6F33EA"/>
<path d="M522.317 1010.35C521.122 1010.66 520.503 1010.79 519.309 1011.1C526.873 1010.97 534.436 1010.88 541.956 1010.75C543.195 1010.44 543.814 1010.26 545.008 1009.95C537.444 1010.08 529.881 1010.22 522.317 1010.35Z" fill="#6F33EA"/>
<path d="M547.84 1009.91C546.601 1010.22 545.982 1010.39 544.743 1010.7C559.915 1010.48 575.132 1010.26 590.304 1010.08C591.631 1009.73 592.25 1009.55 593.577 1009.15C578.316 1009.42 563.056 1009.64 547.84 1009.91Z" fill="#6F33EA"/>
<path d="M514.929 1006.36C513.868 1006.63 513.337 1006.76 512.231 1007.03C515.637 1006.89 517.804 1006.81 522.67 1006.63C523.776 1006.36 524.351 1006.19 525.457 1005.92C520.547 1006.14 518.38 1006.23 514.929 1006.36Z" fill="#04D361"/>
<path d="M551.689 1005.12C550.538 1005.43 549.963 1005.57 548.857 1005.88C550.184 1005.83 550.848 1005.83 552.175 1005.79C553.325 1005.48 553.899 1005.34 555.05 1005.03C553.634 1005.03 552.971 1005.08 551.689 1005.12Z" fill="#04D361"/>
<path d="M528.022 1005.88C526.917 1006.14 526.341 1006.32 525.236 1006.58C532.18 1006.36 539.125 1006.14 546.114 1005.96C547.264 1005.65 547.839 1005.52 548.945 1005.21C541.956 1005.39 535.011 1005.61 528.022 1005.88Z" fill="#6F33EA"/>
<path d="M557.792 1004.95C556.642 1005.26 556.066 1005.39 554.916 1005.7C562.79 1005.48 570.663 1005.26 578.493 1005.08C579.643 1004.77 580.218 1004.59 581.368 1004.28C573.538 1004.46 565.665 1004.68 557.792 1004.95Z" fill="#6F33EA"/>
<path d="M582.961 996.308C581.988 996.618 581.501 996.751 580.484 997.016C588.578 996.618 596.673 996.175 604.812 995.777C605.83 995.466 606.316 995.333 607.289 995.023C599.15 995.466 591.056 995.865 582.961 996.308Z" fill="#6F33EA"/>
<path d="M610.651 994.846C609.678 995.156 609.191 995.333 608.174 995.643C612.907 995.422 615.251 995.289 619.763 995.068C620.781 994.758 621.267 994.58 622.241 994.271C617.729 994.492 615.384 994.58 610.651 994.846Z" fill="#04D361"/>
<path d="M625.425 994.049C624.452 994.359 623.921 994.536 622.948 994.846C624.009 994.802 624.54 994.758 625.558 994.713C626.575 994.403 627.062 994.226 628.035 993.916C627.017 993.96 626.487 994.004 625.425 994.049Z" fill="#04D361"/>
<path d="M577.476 996.573C576.502 996.84 576.016 997.016 574.998 997.282C576.281 997.194 576.945 997.194 578.271 997.105C579.289 996.84 579.775 996.662 580.749 996.396C579.422 996.485 578.759 996.529 577.476 996.573Z" fill="#04D361"/>
<path d="M522.627 1003.04C521.698 1003.26 521.211 1003.39 520.238 1003.66C521.521 1003.48 522.715 1003.35 525.9 1003.13C526.917 1002.86 527.404 1002.73 528.421 1002.51C525.192 1002.73 523.998 1002.82 522.627 1003.04Z" fill="#04D361"/>
<path d="M530.146 1002.38C529.129 1002.64 528.642 1002.77 527.625 1003.04C533.065 1002.69 538.506 1002.46 543.947 1002.2C545.008 1001.93 545.539 1001.8 546.557 1001.49C541.071 1001.76 535.631 1002.02 530.146 1002.38Z" fill="#6F33EA"/>
<path d="M553.324 1001.18C552.262 1001.45 551.732 1001.62 550.67 1001.89C558.411 1001.58 566.108 1001.27 573.848 1000.96C574.91 1000.65 575.441 1000.52 576.502 1000.21C568.761 1000.47 561.065 1000.83 553.324 1001.18Z" fill="#6F33EA"/>
<path d="M579.909 1000.03C578.847 1000.34 578.316 1000.47 577.255 1000.78C593.223 1000.16 609.147 999.585 625.115 998.833C626.221 998.478 626.796 998.301 627.858 997.947C611.889 998.744 595.877 999.365 579.909 1000.03Z" fill="#6F33EA"/>
<path d="M548.415 1001.4C547.353 1001.67 546.822 1001.8 545.805 1002.11C546.955 1002.07 547.53 1002.02 548.68 1001.98C549.741 1001.71 550.272 1001.53 551.334 1001.27C550.14 1001.31 549.565 1001.31 548.415 1001.4Z" fill="#04D361"/>
<path d="M499.051 1008.98C497.989 1009.24 497.502 1009.37 496.441 1009.64C497.325 1009.55 498.343 1009.51 501.262 1009.42C502.368 1009.15 502.899 1009.02 504.005 1008.75C501.085 1008.84 500.024 1008.89 499.051 1008.98Z" fill="#04D361"/>
<path d="M505.685 1008.67C504.58 1008.93 504.005 1009.07 502.899 1009.33C508.163 1009.15 513.426 1009.02 518.69 1008.89C519.84 1008.58 520.415 1008.45 521.565 1008.18C516.257 1008.36 510.949 1008.49 505.685 1008.67Z" fill="#6F33EA"/>
<path d="M528.245 1008.05C527.095 1008.36 526.52 1008.49 525.326 1008.8C532.978 1008.62 540.63 1008.44 548.327 1008.31C549.522 1008 550.097 1007.82 551.291 1007.51C543.594 1007.65 535.942 1007.82 528.245 1008.05Z" fill="#6F33EA"/>
<path d="M554.652 1007.43C553.457 1007.74 552.883 1007.91 551.688 1008.22C567.125 1007.91 582.563 1007.6 597.956 1007.29C599.195 1006.94 599.814 1006.76 601.052 1006.41C585.615 1006.72 570.133 1007.07 554.652 1007.43Z" fill="#6F33EA"/>
<path d="M523.423 1008.13C522.273 1008.44 521.698 1008.58 520.504 1008.89C521.61 1008.84 522.185 1008.84 523.379 1008.8C524.529 1008.49 525.148 1008.36 526.299 1008.05C525.104 1008.09 524.529 1008.13 523.423 1008.13Z" fill="#04D361"/>
<path d="M550.936 996.796C550.007 997.061 549.566 997.15 548.637 997.415C554.431 996.928 560.225 996.529 566.02 996.131C566.993 995.865 567.435 995.733 568.364 995.466C562.57 995.909 556.731 996.308 550.936 996.796Z" fill="#6F33EA"/>
<path d="M575.265 995.067C574.336 995.333 573.849 995.466 572.876 995.776C580.661 995.289 588.402 994.846 596.187 994.403C597.16 994.092 597.603 993.96 598.576 993.65C590.791 994.092 583.05 994.58 575.265 995.067Z" fill="#6F33EA"/>
<path d="M601.406 993.473C600.477 993.783 599.991 993.916 599.017 994.227C613.659 993.384 628.3 992.588 642.897 991.658C643.87 991.303 644.357 991.17 645.286 990.815C630.689 991.79 616.048 992.632 601.406 993.473Z" fill="#6F33EA"/>
<path d="M570.796 995.333C569.867 995.599 569.381 995.732 568.407 995.997C569.381 995.953 569.867 995.909 570.885 995.865C571.858 995.599 572.3 995.466 573.273 995.2C572.256 995.245 571.769 995.289 570.796 995.333Z" fill="#04D361"/>
<path d="M741.141 921.186C739.593 920.521 737.911 920.255 736.231 920.388L600.743 929.557C598.842 929.69 597.869 931.993 599.151 933.411C600.168 934.562 601.274 936.024 602.292 937.795C602.425 937.707 602.512 937.662 602.646 937.574C603.353 936.378 604.548 935.625 605.919 935.493L742.998 922.027C742.335 921.717 741.716 921.451 741.141 921.186Z" fill="#D7D7E1"/>
<path d="M637.147 787.107C630.512 784.892 611.492 768.061 611.05 778.248C610.607 788.436 626.974 803.939 626.974 803.939C611.492 795.08 607.29 780.153 607.29 780.153C603.663 779.931 600.876 781.172 600.433 785.335C599.107 798.623 618.569 812.798 618.569 812.798C601.318 804.825 597.779 789.765 597.779 789.765C595.125 790.65 590.702 796.409 597.779 806.596C604.857 816.784 619.012 822.099 619.012 822.099C625.647 809.254 638.475 802.167 643.782 806.153C649.09 810.14 644.667 818.556 644.667 818.556C651.302 818.113 652.187 824.757 652.187 824.757C646.436 819.885 638.475 821.656 638.475 821.656C644.225 818.556 645.552 804.825 637.147 807.925C628.743 811.026 615.473 826.086 624.32 833.173C633.166 840.26 657.273 832.065 657.273 832.065C667.049 832.065 675.1 833.084 681.425 834.812C683.371 822.675 690.802 808.722 696.907 798.801C672.18 788.923 641.924 788.702 637.147 787.107Z" fill="url(#paint2_linear_1146_2)"/>
<path d="M624.32 921.318C624.32 921.318 627.859 927.076 639.802 926.633C639.802 926.633 633.166 947.894 641.129 951.438C648.87 954.893 652.01 930.221 652.187 928.893C652.187 928.848 652.187 928.848 652.187 928.848V928.893C652.054 930.088 649.71 950.154 655.283 951.438C661.033 952.767 663.245 928.848 663.245 928.848C663.245 928.848 662.803 952.324 671.207 947.451C679.612 942.579 673.862 916.003 657.495 899.171C645.463 886.769 629.098 879.195 608.219 881.719C602.381 901.74 605.255 915.87 608.573 924.064C614.102 922.204 619.366 921.097 624.32 921.318Z" fill="url(#paint3_linear_1146_2)"/>
<path d="M607.948 933.508C608.423 932.682 607.867 931.466 606.703 930.794C605.54 930.122 604.21 930.246 603.733 931.072C603.257 931.898 603.814 933.113 604.978 933.786C606.142 934.459 607.471 934.334 607.948 933.508Z" fill="#AAAABC"/>
<path d="M614.14 933.065C614.617 932.239 614.059 931.023 612.896 930.351C611.732 929.678 610.402 929.803 609.927 930.629C609.45 931.455 610.007 932.67 611.17 933.343C612.334 934.016 613.664 933.891 614.14 933.065Z" fill="#AAAABC"/>
<path d="M620.333 932.621C620.809 931.795 620.252 930.58 619.089 929.907C617.925 929.234 616.596 929.359 616.119 930.185C615.643 931.011 616.2 932.226 617.364 932.899C618.527 933.572 619.857 933.448 620.333 932.621Z" fill="#04D361"/>
<path d="M573.937 849.384L579.555 857.889C580.263 858.952 579.51 860.414 578.184 860.414C577.387 860.414 576.901 861.299 577.343 861.964L584.022 872.329C584.199 872.639 584.509 872.772 584.863 872.772H586.323C586.986 872.772 587.605 873.17 587.826 873.791C588.623 875.784 590.347 880.39 591.586 884.554L590.436 884.953C590.436 884.953 588.534 878.485 586.853 874.41C586.676 873.967 586.234 873.746 585.791 873.791L584.509 873.967C583.89 874.056 583.27 873.791 582.916 873.215L575.618 861.698C574.954 860.679 575.618 859.35 576.812 859.217L577.166 859.173C577.874 859.085 578.272 858.376 577.962 857.711L573.937 849.384Z" fill="#D7D7E1"/>
<path d="M580.042 863.161L584.554 870.071C584.864 870.514 585.35 870.69 585.748 870.514H585.792C586.456 870.247 586.677 869.273 586.235 868.564L581.679 861.655C581.457 861.345 581.148 861.167 580.838 861.123C579.953 861.123 579.467 862.319 580.042 863.161Z" fill="#8157E4"/>
<path d="M863.663 900.342H851.746V926.953H836.79V854.26H863.763C872.338 854.26 878.953 856.174 883.606 860.002C888.259 863.83 890.586 869.238 890.586 876.227C890.586 881.187 889.505 885.331 887.345 888.659C885.218 891.955 881.977 894.584 877.623 896.548L893.328 926.254V926.953H877.274L863.663 900.342ZM851.746 888.21H863.812C867.568 888.21 870.476 887.262 872.538 885.364C874.598 883.434 875.628 880.787 875.628 877.426C875.628 873.998 874.648 871.302 872.687 869.338C870.759 867.374 867.785 866.392 863.763 866.392H851.746V888.21ZM898.812 899.444C898.812 894.085 899.842 889.308 901.904 885.115C903.964 880.921 906.923 877.676 910.778 875.379C914.667 873.083 919.171 871.934 924.29 871.934C931.569 871.934 937.502 874.164 942.089 878.625C946.709 883.084 949.285 889.142 949.817 896.797L949.917 900.492C949.917 908.779 947.607 915.436 942.986 920.462C938.367 925.455 932.167 927.951 924.39 927.951C916.612 927.951 910.396 925.455 905.743 920.462C901.122 915.47 898.812 908.68 898.812 900.093V899.444ZM913.222 900.492C913.222 905.617 914.185 909.545 916.113 912.274C918.041 914.97 920.8 916.318 924.39 916.318C927.88 916.318 930.605 914.987 932.566 912.324C934.528 909.629 935.507 905.335 935.507 899.444C935.507 894.418 934.528 890.523 932.566 887.761C930.605 884.998 927.846 883.617 924.29 883.617C920.766 883.617 918.041 884.998 916.113 887.761C914.185 890.49 913.222 894.734 913.222 900.492ZM981.227 916.318C983.886 916.318 986.047 915.586 987.709 914.122C989.371 912.657 990.235 910.71 990.302 908.28H1003.81C1003.78 911.941 1002.78 915.303 1000.82 918.365C998.86 921.394 996.168 923.757 992.744 925.455C989.354 927.119 985.598 927.951 981.477 927.951C973.765 927.951 967.682 925.505 963.229 920.612C958.775 915.686 956.548 908.896 956.548 900.242V899.294C956.548 890.973 958.758 884.333 963.179 879.373C967.599 874.414 973.666 871.934 981.377 871.934C988.124 871.934 993.526 873.864 997.58 877.726C1001.67 881.553 1003.75 886.662 1003.81 893.053H990.302C990.235 890.257 989.371 887.994 987.709 886.263C986.047 884.499 983.853 883.617 981.127 883.617C977.771 883.617 975.228 884.848 973.5 887.311C971.804 889.741 970.957 893.702 970.957 899.194V900.692C970.957 906.25 971.804 910.244 973.5 912.674C975.194 915.103 977.771 916.318 981.227 916.318ZM1031.63 905.284L1026.45 910.477V926.953H1012.04V850.266H1026.45V892.753L1029.24 889.158L1043.05 872.933H1060.35L1040.86 895.449L1062.05 926.953H1045.49L1031.63 905.284ZM1090.42 927.951C1082.51 927.951 1076.06 925.521 1071.07 920.662C1066.12 915.803 1063.64 909.329 1063.64 901.241V899.843C1063.64 894.418 1064.69 889.574 1066.78 885.314C1068.88 881.02 1071.84 877.726 1075.66 875.429C1079.51 873.099 1083.9 871.934 1088.82 871.934C1096.2 871.934 1102 874.264 1106.22 878.924C1110.48 883.584 1112.6 890.191 1112.6 898.744V904.635H1078.25C1078.72 908.164 1080.11 910.993 1082.44 913.123C1084.8 915.253 1087.77 916.318 1091.36 916.318C1096.91 916.318 1101.25 914.305 1104.38 910.278L1111.46 918.215C1109.3 921.278 1106.37 923.674 1102.68 925.405C1098.99 927.102 1094.9 927.951 1090.42 927.951ZM1088.77 883.617C1085.91 883.617 1083.59 884.582 1081.79 886.513C1080.03 888.443 1078.9 891.205 1078.4 894.8H1098.44V893.652C1098.38 890.457 1097.51 887.994 1095.85 886.263C1094.19 884.499 1091.83 883.617 1088.77 883.617ZM1138.08 859.653V872.933H1147.3V883.517H1138.08V910.477C1138.08 912.474 1138.46 913.905 1139.23 914.771C1139.99 915.636 1141.45 916.069 1143.61 916.069C1145.21 916.069 1146.62 915.952 1147.85 915.719V926.653C1145.03 927.519 1142.12 927.951 1139.13 927.951C1129.02 927.951 1123.87 922.842 1123.67 912.624V883.517H1115.79V872.933H1123.67V859.653H1138.08ZM1215.31 926.953H1200.35L1171.24 879.124V926.953H1156.28V854.26H1171.24L1200.4 902.189V854.26H1215.31V926.953ZM1252.25 927.951C1244.34 927.951 1237.89 925.521 1232.91 920.662C1227.96 915.803 1225.48 909.329 1225.48 901.241V899.843C1225.48 894.418 1226.53 889.574 1228.62 885.314C1230.72 881.02 1233.67 877.726 1237.49 875.429C1241.35 873.099 1245.74 871.934 1250.66 871.934C1258.04 871.934 1263.84 874.264 1268.06 878.924C1272.31 883.584 1274.44 890.191 1274.44 898.744V904.635H1240.09C1240.55 908.164 1241.95 910.993 1244.27 913.123C1246.63 915.253 1249.61 916.318 1253.2 916.318C1258.75 916.318 1263.09 914.305 1266.21 910.278L1273.3 918.215C1271.13 921.278 1268.21 923.674 1264.52 925.405C1260.83 927.102 1256.74 927.951 1252.25 927.951ZM1250.61 883.617C1247.75 883.617 1245.42 884.582 1243.63 886.513C1241.87 888.443 1240.74 891.205 1240.24 894.8H1260.28V893.652C1260.21 890.457 1259.35 887.994 1257.69 886.263C1256.03 884.499 1253.67 883.617 1250.61 883.617ZM1329.58 907.332L1336.66 872.933H1350.57L1336.81 926.953H1324.75L1314.53 892.953L1304.31 926.953H1292.29L1278.53 872.933H1292.44L1299.47 907.282L1309.34 872.933H1319.76L1329.58 907.332ZM1386.97 912.025C1386.97 910.261 1386.09 908.88 1384.33 907.881C1382.6 906.849 1379.81 905.933 1375.95 905.135C1363.12 902.439 1356.71 896.98 1356.71 888.759C1356.71 883.966 1358.69 879.972 1362.64 876.777C1366.63 873.548 1371.83 871.934 1378.24 871.934C1385.09 871.934 1390.56 873.548 1394.65 876.777C1398.77 880.006 1400.83 884.199 1400.83 889.359H1386.42C1386.42 887.294 1385.76 885.597 1384.42 884.266C1383.1 882.901 1381.02 882.219 1378.19 882.219C1375.77 882.219 1373.89 882.768 1372.56 883.866C1371.23 884.965 1370.57 886.363 1370.57 888.061C1370.57 889.658 1371.31 890.956 1372.81 891.955C1374.34 892.92 1376.9 893.769 1380.49 894.501C1384.08 895.2 1387.11 895.998 1389.57 896.897C1397.17 899.693 1400.98 904.536 1400.98 911.426C1400.98 916.351 1398.87 920.346 1394.65 923.408C1390.42 926.436 1384.98 927.951 1378.29 927.951C1373.77 927.951 1369.75 927.152 1366.23 925.555C1362.74 923.924 1360 921.71 1358 918.915C1356.01 916.085 1355.01 913.04 1355.01 909.778H1368.67C1368.8 912.341 1369.75 914.305 1371.51 915.669C1373.28 917.034 1375.63 917.716 1378.6 917.716C1381.35 917.716 1383.43 917.201 1384.83 916.168C1386.25 915.103 1386.97 913.722 1386.97 912.025Z" fill="#E1E1E6"/>
<path d="M1411.05 919.863C1411.05 917.566 1411.82 915.703 1413.34 914.272C1414.91 912.84 1416.85 912.125 1419.18 912.125C1421.54 912.125 1423.48 912.84 1425.01 914.272C1426.57 915.703 1427.35 917.566 1427.35 919.863C1427.35 922.126 1426.59 923.974 1425.06 925.405C1423.53 926.803 1421.57 927.502 1419.18 927.502C1416.82 927.502 1414.87 926.803 1413.34 925.405C1411.82 923.974 1411.05 922.126 1411.05 919.863Z" fill="#04D361"/>
</g>
</g>
<defs>
<linearGradient id="paint0_linear_1146_2" x1="960" y1="0" x2="960" y2="1280" gradientUnits="userSpaceOnUse">
<stop stop-color="#6D4BC3"/>
<stop offset="1" stop-color="#9E7EFF"/>
</linearGradient>
<radialGradient id="paint1_radial_1146_2" cx="0" cy="0" r="1" gradientUnits="userSpaceOnUse" gradientTransform="translate(745.318 898.117) scale(366.843 367.346)">
<stop offset="0.2882" stop-color="#27272E"/>
<stop offset="1" stop-color="#121214"/>
</radialGradient>
<linearGradient id="paint2_linear_1146_2" x1="695.736" y1="828.568" x2="563.453" y2="782.257" gradientUnits="userSpaceOnUse">
<stop offset="0.3276" stop-color="#8157E4"/>
<stop offset="0.395" stop-color="#7D55DD"/>
<stop offset="0.495" stop-color="#724EC9"/>
<stop offset="0.615" stop-color="#6143A8"/>
<stop offset="0.7508" stop-color="#49347A"/>
<stop offset="0.8976" stop-color="#2A2141"/>
<stop offset="1" stop-color="#121214"/>
</linearGradient>
<linearGradient id="paint3_linear_1146_2" x1="693.912" y1="892.41" x2="575.527" y2="940.762" gradientUnits="userSpaceOnUse">
<stop offset="0.3276" stop-color="#8157E4"/>
<stop offset="0.395" stop-color="#7D55DD"/>
<stop offset="0.495" stop-color="#724EC9"/>
<stop offset="0.615" stop-color="#6143A8"/>
<stop offset="0.7508" stop-color="#49347A"/>
<stop offset="0.8976" stop-color="#2A2141"/>
<stop offset="1" stop-color="#121214"/>
</linearGradient>
<clipPath id="clip0_1146_2">
<rect width="1920" height="1280" fill="white"/>
</clipPath>
<clipPath id="clip1_1146_2">
<rect width="993.433" height="240" fill="white" transform="translate(463 775)"/>
</clipPath>
</defs>
</svg>
