<svg width="1920" height="1280" viewBox="0 0 1920 1280" fill="none" xmlns="http://www.w3.org/2000/svg">
<g clip-path="url(#clip0_653_2)">
<rect width="1920" height="1280" fill="url(#paint0_linear_653_2)"/>
<path d="M291.609 291.07C291.609 289.242 291.445 287.578 291.117 286.078C290.789 284.578 290.086 283.195 289.008 281.93C287.977 280.664 286.453 279.398 284.438 278.133C282.469 276.867 279.891 275.555 276.703 274.195C272.906 272.602 269.227 270.914 265.664 269.133C262.102 267.305 258.891 265.195 256.031 262.805C253.172 260.414 250.898 257.602 249.211 254.367C247.57 251.086 246.75 247.242 246.75 242.836C246.75 238.523 247.523 234.609 249.07 231.094C250.664 227.578 252.914 224.578 255.82 222.094C258.727 219.562 262.125 217.617 266.016 216.258C269.953 214.898 274.336 214.219 279.164 214.219C285.727 214.219 291.398 215.578 296.18 218.297C301.008 221.016 304.734 224.742 307.359 229.477C310.031 234.211 311.367 239.648 311.367 245.789H290.836C290.836 242.883 290.414 240.328 289.57 238.125C288.773 235.875 287.484 234.117 285.703 232.852C283.922 231.586 281.625 230.953 278.812 230.953C276.188 230.953 274.008 231.492 272.273 232.57C270.586 233.602 269.32 235.031 268.477 236.859C267.68 238.641 267.281 240.656 267.281 242.906C267.281 244.594 267.68 246.117 268.477 247.477C269.32 248.789 270.469 249.984 271.922 251.062C273.375 252.094 275.086 253.102 277.055 254.086C279.07 255.07 281.273 256.031 283.664 256.969C288.305 258.797 292.406 260.812 295.969 263.016C299.531 265.172 302.508 267.609 304.898 270.328C307.289 273 309.094 276.023 310.312 279.398C311.531 282.773 312.141 286.617 312.141 290.93C312.141 295.195 311.391 299.086 309.891 302.602C308.438 306.07 306.305 309.07 303.492 311.602C300.68 314.086 297.281 316.008 293.297 317.367C289.359 318.727 284.953 319.406 280.078 319.406C275.344 319.406 270.867 318.75 266.648 317.438C262.43 316.078 258.703 314.039 255.469 311.32C252.281 308.555 249.773 305.062 247.945 300.844C246.117 296.578 245.203 291.539 245.203 285.727H265.805C265.805 288.82 266.109 291.469 266.719 293.672C267.328 295.828 268.266 297.562 269.531 298.875C270.797 300.141 272.344 301.102 274.172 301.758C276.047 302.367 278.18 302.672 280.57 302.672C283.289 302.672 285.445 302.156 287.039 301.125C288.68 300.094 289.852 298.711 290.555 296.977C291.258 295.242 291.609 293.273 291.609 291.07ZM345.75 241.922V318H325.992V241.922H345.75ZM325.078 222.234C325.078 219.188 326.039 216.68 327.961 214.711C329.93 212.695 332.555 211.688 335.836 211.688C339.164 211.688 341.789 212.695 343.711 214.711C345.633 216.68 346.594 219.188 346.594 222.234C346.594 225.234 345.609 227.742 343.641 229.758C341.719 231.727 339.141 232.711 335.906 232.711C332.578 232.711 329.93 231.727 327.961 229.758C326.039 227.742 325.078 225.234 325.078 222.234ZM398.203 301.195V210H417.961V318L400.102 318.07L398.203 301.195ZM358.758 282.633V277.57C358.758 271.383 359.273 265.969 360.305 261.328C361.383 256.688 362.977 252.82 365.086 249.727C367.195 246.633 369.773 244.336 372.82 242.836C375.914 241.289 379.453 240.516 383.438 240.516C387.047 240.516 390.211 241.43 392.93 243.258C395.695 245.039 398.039 247.547 399.961 250.781C401.883 254.016 403.43 257.836 404.602 262.242C405.773 266.648 406.594 271.477 407.062 276.727V284.039C406.5 289.008 405.633 293.648 404.461 297.961C403.336 302.273 401.789 306.023 399.82 309.211C397.898 312.398 395.578 314.906 392.859 316.734C390.141 318.516 386.977 319.406 383.367 319.406C379.383 319.406 375.844 318.609 372.75 317.016C369.703 315.422 367.125 313.078 365.016 309.984C362.953 306.844 361.383 303 360.305 298.453C359.273 293.859 358.758 288.586 358.758 282.633ZM378.445 277.57V282.633C378.445 286.195 378.609 289.266 378.938 291.844C379.312 294.375 379.898 296.461 380.695 298.102C381.539 299.695 382.641 300.891 384 301.688C385.359 302.438 387.047 302.812 389.062 302.812C391.688 302.812 393.82 302.156 395.461 300.844C397.102 299.484 398.32 297.633 399.117 295.289C399.961 292.898 400.43 290.156 400.523 287.062V273.773C400.43 271.195 400.125 268.875 399.609 266.812C399.094 264.75 398.367 262.992 397.43 261.539C396.492 260.086 395.32 258.961 393.914 258.164C392.555 257.367 390.961 256.969 389.133 256.969C387.164 256.969 385.477 257.367 384.07 258.164C382.711 258.961 381.633 260.203 380.836 261.891C380.039 263.531 379.43 265.664 379.008 268.289C378.633 270.867 378.445 273.961 378.445 277.57ZM463.453 319.406C458.25 319.406 453.633 318.609 449.602 317.016C445.617 315.422 442.242 313.125 439.477 310.125C436.711 307.078 434.602 303.398 433.148 299.086C431.695 294.773 430.969 289.852 430.969 284.32V278.062C430.969 271.875 431.672 266.461 433.078 261.82C434.484 257.133 436.477 253.195 439.055 250.008C441.633 246.82 444.797 244.453 448.547 242.906C452.344 241.312 456.633 240.516 461.414 240.516C466.195 240.516 470.391 241.312 474 242.906C477.656 244.453 480.68 246.797 483.07 249.938C485.461 253.031 487.266 256.875 488.484 261.469C489.703 266.062 490.312 271.406 490.312 277.5V286.5H439.336V272.648H470.977V270.891C470.977 267.797 470.648 265.219 469.992 263.156C469.336 261.047 468.305 259.477 466.898 258.445C465.492 257.414 463.617 256.898 461.273 256.898C459.305 256.898 457.641 257.297 456.281 258.094C454.922 258.891 453.844 260.133 453.047 261.82C452.25 263.508 451.664 265.711 451.289 268.43C450.914 271.102 450.727 274.312 450.727 278.062V284.32C450.727 287.836 451.031 290.789 451.641 293.18C452.25 295.523 453.141 297.445 454.312 298.945C455.531 300.398 457.008 301.453 458.742 302.109C460.477 302.719 462.492 303.023 464.789 303.023C468.258 303.023 471.375 302.414 474.141 301.195C476.953 299.93 479.344 298.219 481.312 296.062L489.188 308.016C487.828 309.797 485.953 311.578 483.562 313.359C481.172 315.141 478.312 316.594 474.984 317.719C471.656 318.844 467.812 319.406 463.453 319.406ZM501.773 210H521.391V300.352L519.984 318H501.773V210ZM560.906 277.43V282.422C560.906 288.609 560.414 294 559.43 298.594C558.492 303.188 557.016 307.031 555 310.125C553.031 313.219 550.5 315.539 547.406 317.086C544.312 318.633 540.656 319.406 536.438 319.406C532.641 319.406 529.383 318.516 526.664 316.734C523.945 314.906 521.648 312.398 519.773 309.211C517.945 305.977 516.445 302.203 515.273 297.891C514.148 293.531 513.328 288.773 512.812 283.617V276.234C513.281 271.172 514.078 266.461 515.203 262.102C516.375 257.742 517.875 253.969 519.703 250.781C521.531 247.547 523.805 245.039 526.523 243.258C529.289 241.43 532.547 240.516 536.297 240.516C540.609 240.516 544.312 241.312 547.406 242.906C550.5 244.453 553.031 246.773 555 249.867C557.016 252.961 558.492 256.828 559.43 261.469C560.414 266.062 560.906 271.383 560.906 277.43ZM541.289 282.422V277.43C541.289 273.914 541.148 270.891 540.867 268.359C540.586 265.828 540.07 263.719 539.32 262.031C538.57 260.344 537.492 259.078 536.086 258.234C534.727 257.391 532.922 256.969 530.672 256.969C528.656 256.969 526.969 257.367 525.609 258.164C524.25 258.914 523.078 260.039 522.094 261.539C521.156 262.992 520.453 264.727 519.984 266.742C519.562 268.711 519.328 270.891 519.281 273.281V286.57C519.328 289.805 519.727 292.664 520.477 295.148C521.227 297.633 522.422 299.555 524.062 300.914C525.75 302.273 528 302.953 530.812 302.953C533.016 302.953 534.797 302.578 536.156 301.828C537.516 301.078 538.57 299.883 539.32 298.242C540.117 296.602 540.633 294.492 540.867 291.914C541.148 289.289 541.289 286.125 541.289 282.422ZM606.539 300.492V265.336C606.539 263.039 606.258 261.211 605.695 259.852C605.18 258.492 604.383 257.508 603.305 256.898C602.273 256.242 601.008 255.914 599.508 255.914C597.82 255.914 596.414 256.266 595.289 256.969C594.164 257.672 593.32 258.68 592.758 259.992C592.242 261.305 591.984 262.875 591.984 264.703H572.227C572.227 261.422 572.859 258.328 574.125 255.422C575.391 252.469 577.242 249.891 579.68 247.688C582.164 245.438 585.117 243.68 588.539 242.414C591.961 241.148 595.805 240.516 600.07 240.516C605.133 240.516 609.633 241.383 613.57 243.117C617.508 244.805 620.625 247.5 622.922 251.203C625.219 254.906 626.367 259.711 626.367 265.617V299.508C626.367 303.773 626.578 307.242 627 309.914C627.469 312.586 628.148 314.883 629.039 316.805V318H609.211C608.32 315.891 607.641 313.266 607.172 310.125C606.75 306.938 606.539 303.727 606.539 300.492ZM608.93 271.523L609 283.336H601.758C599.883 283.336 598.242 283.641 596.836 284.25C595.477 284.859 594.328 285.727 593.391 286.852C592.453 287.93 591.75 289.195 591.281 290.648C590.859 292.102 590.648 293.648 590.648 295.289C590.648 297.117 590.906 298.664 591.422 299.93C591.938 301.195 592.711 302.156 593.742 302.812C594.773 303.469 595.992 303.797 597.398 303.797C599.555 303.797 601.43 303.352 603.023 302.461C604.617 301.57 605.789 300.492 606.539 299.227C607.336 297.961 607.594 296.789 607.312 295.711L611.812 303.375C611.25 305.109 610.477 306.914 609.492 308.789C608.555 310.664 607.359 312.398 605.906 313.992C604.453 315.586 602.648 316.898 600.492 317.93C598.383 318.914 595.875 319.406 592.969 319.406C588.891 319.406 585.164 318.469 581.789 316.594C578.414 314.719 575.742 312.094 573.773 308.719C571.852 305.344 570.891 301.336 570.891 296.695C570.891 292.852 571.5 289.383 572.719 286.289C573.984 283.148 575.859 280.5 578.344 278.344C580.828 276.141 583.969 274.453 587.766 273.281C591.562 272.109 596.016 271.523 601.125 271.523H608.93ZM660.609 258.867V318H640.922V241.922H659.484L660.609 258.867ZM678.539 241.359L678.258 260.977C677.367 260.789 676.289 260.648 675.023 260.555C673.805 260.461 672.727 260.414 671.789 260.414C669.586 260.414 667.711 260.766 666.164 261.469C664.617 262.125 663.328 263.133 662.297 264.492C661.312 265.805 660.562 267.445 660.047 269.414C659.531 271.383 659.227 273.609 659.133 276.094L655.406 274.688C655.406 269.719 655.781 265.172 656.531 261.047C657.328 256.875 658.5 253.266 660.047 250.219C661.594 247.125 663.445 244.734 665.602 243.047C667.805 241.359 670.289 240.516 673.055 240.516C673.992 240.516 674.977 240.609 676.008 240.797C677.086 240.938 677.93 241.125 678.539 241.359ZM722.836 215.625H755.672C762.516 215.625 768.352 216.797 773.18 219.141C778.008 221.484 781.711 224.953 784.289 229.547C786.867 234.141 788.156 239.812 788.156 246.562C788.156 252.094 787.406 256.828 785.906 260.766C784.406 264.656 782.273 267.914 779.508 270.539C776.742 273.117 773.438 275.18 769.594 276.727L763.336 280.453H736.688L736.617 263.367H755.109C757.922 263.367 760.242 262.758 762.07 261.539C763.945 260.273 765.328 258.516 766.219 256.266C767.156 253.969 767.625 251.297 767.625 248.25C767.625 245.016 767.203 242.25 766.359 239.953C765.562 237.609 764.273 235.828 762.492 234.609C760.758 233.344 758.484 232.711 755.672 232.711H743.438V318H722.836V215.625ZM769.312 318L750.539 272.367L772.125 272.297L791.32 317.016V318H769.312ZM832.172 319.406C826.969 319.406 822.352 318.609 818.32 317.016C814.336 315.422 810.961 313.125 808.195 310.125C805.43 307.078 803.32 303.398 801.867 299.086C800.414 294.773 799.688 289.852 799.688 284.32V278.062C799.688 271.875 800.391 266.461 801.797 261.82C803.203 257.133 805.195 253.195 807.773 250.008C810.352 246.82 813.516 244.453 817.266 242.906C821.062 241.312 825.352 240.516 830.133 240.516C834.914 240.516 839.109 241.312 842.719 242.906C846.375 244.453 849.398 246.797 851.789 249.938C854.18 253.031 855.984 256.875 857.203 261.469C858.422 266.062 859.031 271.406 859.031 277.5V286.5H808.055V272.648H839.695V270.891C839.695 267.797 839.367 265.219 838.711 263.156C838.055 261.047 837.023 259.477 835.617 258.445C834.211 257.414 832.336 256.898 829.992 256.898C828.023 256.898 826.359 257.297 825 258.094C823.641 258.891 822.562 260.133 821.766 261.82C820.969 263.508 820.383 265.711 820.008 268.43C819.633 271.102 819.445 274.312 819.445 278.062V284.32C819.445 287.836 819.75 290.789 820.359 293.18C820.969 295.523 821.859 297.445 823.031 298.945C824.25 300.398 825.727 301.453 827.461 302.109C829.195 302.719 831.211 303.023 833.508 303.023C836.977 303.023 840.094 302.414 842.859 301.195C845.672 299.93 848.062 298.219 850.031 296.062L857.906 308.016C856.547 309.797 854.672 311.578 852.281 313.359C849.891 315.141 847.031 316.594 843.703 317.719C840.375 318.844 836.531 319.406 832.172 319.406ZM904.172 297.469C904.172 296.156 903.727 294.984 902.836 293.953C901.945 292.922 900.539 291.867 898.617 290.789C896.695 289.664 894.141 288.422 890.953 287.062C887.484 285.656 884.414 284.203 881.742 282.703C879.07 281.203 876.797 279.539 874.922 277.711C873.094 275.883 871.711 273.797 870.773 271.453C869.836 269.109 869.367 266.438 869.367 263.438C869.367 260.203 869.953 257.227 871.125 254.508C872.344 251.742 874.078 249.328 876.328 247.266C878.578 245.156 881.32 243.516 884.555 242.344C887.836 241.125 891.516 240.516 895.594 240.516C901.312 240.516 906.211 241.523 910.289 243.539C914.414 245.508 917.578 248.273 919.781 251.836C921.984 255.398 923.086 259.547 923.086 264.281H903.398C903.398 262.594 903.141 261.094 902.625 259.781C902.109 258.422 901.266 257.367 900.094 256.617C898.969 255.867 897.445 255.492 895.523 255.492C894.117 255.492 892.852 255.797 891.727 256.406C890.648 257.016 889.781 257.836 889.125 258.867C888.516 259.852 888.211 261.023 888.211 262.383C888.211 263.414 888.422 264.328 888.844 265.125C889.312 265.922 890.039 266.695 891.023 267.445C892.008 268.195 893.32 268.992 894.961 269.836C896.648 270.633 898.711 271.523 901.148 272.508C906.211 274.383 910.359 276.398 913.594 278.555C916.875 280.711 919.312 283.242 920.906 286.148C922.5 289.008 923.297 292.547 923.297 296.766C923.297 300.141 922.641 303.211 921.328 305.977C920.062 308.742 918.211 311.133 915.773 313.148C913.336 315.164 910.406 316.711 906.984 317.789C903.609 318.867 899.836 319.406 895.664 319.406C889.523 319.406 884.344 318.188 880.125 315.75C875.906 313.312 872.719 310.195 870.562 306.398C868.406 302.555 867.328 298.57 867.328 294.445H886.031C886.125 296.977 886.594 298.969 887.438 300.422C888.328 301.828 889.523 302.812 891.023 303.375C892.523 303.938 894.188 304.219 896.016 304.219C897.844 304.219 899.344 303.984 900.516 303.516C901.734 303 902.648 302.227 903.258 301.195C903.867 300.117 904.172 298.875 904.172 297.469ZM955.5 256.547V347.25H935.883V241.922H954.023L955.5 256.547ZM995.016 277.359V282.422C995.016 288.375 994.5 293.648 993.469 298.242C992.438 302.789 990.891 306.656 988.828 309.844C986.812 312.984 984.281 315.375 981.234 317.016C978.188 318.609 974.625 319.406 970.547 319.406C966.75 319.406 963.469 318.516 960.703 316.734C957.984 314.906 955.688 312.398 953.812 309.211C951.938 306.023 950.438 302.297 949.312 298.031C948.188 293.766 947.32 289.195 946.711 284.32V276.445C947.273 271.242 948.094 266.461 949.172 262.102C950.25 257.695 951.727 253.875 953.602 250.641C955.523 247.406 957.844 244.922 960.562 243.188C963.328 241.406 966.609 240.516 970.406 240.516C974.531 240.516 978.117 241.266 981.164 242.766C984.258 244.266 986.812 246.539 988.828 249.586C990.891 252.586 992.438 256.406 993.469 261.047C994.5 265.688 995.016 271.125 995.016 277.359ZM975.328 282.422V277.359C975.328 273.703 975.117 270.586 974.695 268.008C974.32 265.43 973.711 263.32 972.867 261.68C972.023 260.039 970.922 258.844 969.562 258.094C968.203 257.344 966.539 256.969 964.57 256.969C962.648 256.969 960.961 257.344 959.508 258.094C958.102 258.844 956.953 259.945 956.062 261.398C955.172 262.805 954.492 264.539 954.023 266.602C953.555 268.617 953.297 270.914 953.25 273.492V287.273C953.344 290.32 953.742 293.016 954.445 295.359C955.195 297.703 956.391 299.578 958.031 300.984C959.672 302.344 961.898 303.023 964.711 303.023C966.727 303.023 968.391 302.602 969.703 301.758C971.062 300.914 972.164 299.648 973.008 297.961C973.852 296.273 974.438 294.141 974.766 291.562C975.141 288.984 975.328 285.938 975.328 282.422ZM1004.86 282.562V277.43C1004.86 271.477 1005.56 266.203 1006.97 261.609C1008.42 257.016 1010.48 253.172 1013.16 250.078C1015.83 246.938 1019.04 244.57 1022.79 242.977C1026.59 241.336 1030.83 240.516 1035.52 240.516C1040.25 240.516 1044.49 241.336 1048.24 242.977C1052.04 244.57 1055.27 246.938 1057.95 250.078C1060.66 253.172 1062.75 257.016 1064.2 261.609C1065.66 266.203 1066.38 271.477 1066.38 277.43V282.562C1066.38 288.469 1065.66 293.719 1064.2 298.312C1062.75 302.906 1060.66 306.773 1057.95 309.914C1055.27 313.055 1052.06 315.422 1048.31 317.016C1044.56 318.609 1040.34 319.406 1035.66 319.406C1030.97 319.406 1026.73 318.609 1022.93 317.016C1019.18 315.422 1015.95 313.055 1013.23 309.914C1010.51 306.773 1008.42 302.906 1006.97 298.312C1005.56 293.719 1004.86 288.469 1004.86 282.562ZM1024.55 277.43V282.562C1024.55 286.078 1024.78 289.125 1025.25 291.703C1025.77 294.281 1026.49 296.414 1027.43 298.102C1028.41 299.789 1029.59 301.031 1030.95 301.828C1032.3 302.625 1033.88 303.023 1035.66 303.023C1037.44 303.023 1039.03 302.625 1040.44 301.828C1041.84 301.031 1042.99 299.789 1043.88 298.102C1044.82 296.414 1045.5 294.281 1045.92 291.703C1046.39 289.125 1046.62 286.078 1046.62 282.562V277.43C1046.62 274.008 1046.37 271.008 1045.85 268.43C1045.34 265.805 1044.61 263.672 1043.67 262.031C1042.73 260.344 1041.56 259.078 1040.16 258.234C1038.8 257.344 1037.25 256.898 1035.52 256.898C1033.78 256.898 1032.23 257.344 1030.88 258.234C1029.56 259.078 1028.41 260.344 1027.43 262.031C1026.49 263.672 1025.77 265.805 1025.25 268.43C1024.78 271.008 1024.55 274.008 1024.55 277.43ZM1098.16 258.164V318H1078.41V241.922H1096.9L1098.16 258.164ZM1095.21 277.359L1089.94 277.5C1089.84 271.781 1090.38 266.648 1091.55 262.102C1092.77 257.555 1094.48 253.688 1096.69 250.5C1098.94 247.266 1101.61 244.805 1104.7 243.117C1107.84 241.383 1111.34 240.516 1115.18 240.516C1118.13 240.516 1120.83 241.031 1123.27 242.062C1125.75 243.094 1127.88 244.734 1129.66 246.984C1131.45 249.234 1132.83 252.234 1133.81 255.984C1134.8 259.688 1135.29 264.234 1135.29 269.625V318H1115.53V269.484C1115.53 266.203 1115.2 263.672 1114.55 261.891C1113.89 260.062 1112.91 258.797 1111.59 258.094C1110.28 257.344 1108.64 256.969 1106.67 256.969C1104.8 256.969 1103.13 257.508 1101.68 258.586C1100.23 259.617 1099.01 261.047 1098.02 262.875C1097.09 264.703 1096.36 266.859 1095.84 269.344C1095.38 271.828 1095.16 274.5 1095.21 277.359ZM1183.45 297.469C1183.45 296.156 1183.01 294.984 1182.12 293.953C1181.23 292.922 1179.82 291.867 1177.9 290.789C1175.98 289.664 1173.42 288.422 1170.23 287.062C1166.77 285.656 1163.7 284.203 1161.02 282.703C1158.35 281.203 1156.08 279.539 1154.2 277.711C1152.38 275.883 1150.99 273.797 1150.05 271.453C1149.12 269.109 1148.65 266.438 1148.65 263.438C1148.65 260.203 1149.23 257.227 1150.41 254.508C1151.62 251.742 1153.36 249.328 1155.61 247.266C1157.86 245.156 1160.6 243.516 1163.84 242.344C1167.12 241.125 1170.8 240.516 1174.88 240.516C1180.59 240.516 1185.49 241.523 1189.57 243.539C1193.7 245.508 1196.86 248.273 1199.06 251.836C1201.27 255.398 1202.37 259.547 1202.37 264.281H1182.68C1182.68 262.594 1182.42 261.094 1181.91 259.781C1181.39 258.422 1180.55 257.367 1179.38 256.617C1178.25 255.867 1176.73 255.492 1174.8 255.492C1173.4 255.492 1172.13 255.797 1171.01 256.406C1169.93 257.016 1169.06 257.836 1168.41 258.867C1167.8 259.852 1167.49 261.023 1167.49 262.383C1167.49 263.414 1167.7 264.328 1168.12 265.125C1168.59 265.922 1169.32 266.695 1170.3 267.445C1171.29 268.195 1172.6 268.992 1174.24 269.836C1175.93 270.633 1177.99 271.523 1180.43 272.508C1185.49 274.383 1189.64 276.398 1192.88 278.555C1196.16 280.711 1198.59 283.242 1200.19 286.148C1201.78 289.008 1202.58 292.547 1202.58 296.766C1202.58 300.141 1201.92 303.211 1200.61 305.977C1199.34 308.742 1197.49 311.133 1195.05 313.148C1192.62 315.164 1189.69 316.711 1186.27 317.789C1182.89 318.867 1179.12 319.406 1174.95 319.406C1168.8 319.406 1163.62 318.188 1159.41 315.75C1155.19 313.312 1152 310.195 1149.84 306.398C1147.69 302.555 1146.61 298.57 1146.61 294.445H1165.31C1165.41 296.977 1165.88 298.969 1166.72 300.422C1167.61 301.828 1168.8 302.812 1170.3 303.375C1171.8 303.938 1173.47 304.219 1175.3 304.219C1177.12 304.219 1178.62 303.984 1179.8 303.516C1181.02 303 1181.93 302.227 1182.54 301.195C1183.15 300.117 1183.45 298.875 1183.45 297.469ZM1235.77 241.922V318H1216.01V241.922H1235.77ZM1215.09 222.234C1215.09 219.188 1216.05 216.68 1217.98 214.711C1219.95 212.695 1222.57 211.688 1225.85 211.688C1229.18 211.688 1231.8 212.695 1233.73 214.711C1235.65 216.68 1236.61 219.188 1236.61 222.234C1236.61 225.234 1235.62 227.742 1233.66 229.758C1231.73 231.727 1229.16 232.711 1225.92 232.711C1222.59 232.711 1219.95 231.727 1217.98 229.758C1216.05 227.742 1215.09 225.234 1215.09 222.234ZM1273.8 302.812L1286.04 241.922H1306.57L1285.69 318H1273.38L1273.8 302.812ZM1266.56 241.922L1279.01 302.883L1279.22 318H1266.84L1245.96 241.922H1266.56ZM1348.48 300.492V265.336C1348.48 263.039 1348.2 261.211 1347.63 259.852C1347.12 258.492 1346.32 257.508 1345.24 256.898C1344.21 256.242 1342.95 255.914 1341.45 255.914C1339.76 255.914 1338.35 256.266 1337.23 256.969C1336.1 257.672 1335.26 258.68 1334.7 259.992C1334.18 261.305 1333.92 262.875 1333.92 264.703H1314.16C1314.16 261.422 1314.8 258.328 1316.06 255.422C1317.33 252.469 1319.18 249.891 1321.62 247.688C1324.1 245.438 1327.05 243.68 1330.48 242.414C1333.9 241.148 1337.74 240.516 1342.01 240.516C1347.07 240.516 1351.57 241.383 1355.51 243.117C1359.45 244.805 1362.56 247.5 1364.86 251.203C1367.16 254.906 1368.3 259.711 1368.3 265.617V299.508C1368.3 303.773 1368.52 307.242 1368.94 309.914C1369.41 312.586 1370.09 314.883 1370.98 316.805V318H1351.15C1350.26 315.891 1349.58 313.266 1349.11 310.125C1348.69 306.938 1348.48 303.727 1348.48 300.492ZM1350.87 271.523L1350.94 283.336H1343.7C1341.82 283.336 1340.18 283.641 1338.77 284.25C1337.41 284.859 1336.27 285.727 1335.33 286.852C1334.39 287.93 1333.69 289.195 1333.22 290.648C1332.8 292.102 1332.59 293.648 1332.59 295.289C1332.59 297.117 1332.84 298.664 1333.36 299.93C1333.88 301.195 1334.65 302.156 1335.68 302.812C1336.71 303.469 1337.93 303.797 1339.34 303.797C1341.49 303.797 1343.37 303.352 1344.96 302.461C1346.55 301.57 1347.73 300.492 1348.48 299.227C1349.27 297.961 1349.53 296.789 1349.25 295.711L1353.75 303.375C1353.19 305.109 1352.41 306.914 1351.43 308.789C1350.49 310.664 1349.3 312.398 1347.84 313.992C1346.39 315.586 1344.59 316.898 1342.43 317.93C1340.32 318.914 1337.81 319.406 1334.91 319.406C1330.83 319.406 1327.1 318.469 1323.73 316.594C1320.35 314.719 1317.68 312.094 1315.71 308.719C1313.79 305.344 1312.83 301.336 1312.83 296.695C1312.83 292.852 1313.44 289.383 1314.66 286.289C1315.92 283.148 1317.8 280.5 1320.28 278.344C1322.77 276.141 1325.91 274.453 1329.7 273.281C1333.5 272.109 1337.95 271.523 1343.06 271.523H1350.87Z" fill="#121214"/>
<path d="M261.992 435H250.117L250.195 428.867H261.992C266.055 428.867 269.44 428.021 272.148 426.328C274.857 424.609 276.888 422.214 278.242 419.141C279.622 416.042 280.312 412.422 280.312 408.281V404.805C280.312 401.549 279.922 398.659 279.141 396.133C278.359 393.581 277.214 391.432 275.703 389.688C274.193 387.917 272.344 386.576 270.156 385.664C267.995 384.753 265.508 384.297 262.695 384.297H249.883V378.125H262.695C266.419 378.125 269.818 378.75 272.891 380C275.964 381.224 278.607 383.008 280.82 385.352C283.06 387.669 284.779 390.482 285.977 393.789C287.174 397.07 287.773 400.768 287.773 404.883V408.281C287.773 412.396 287.174 416.107 285.977 419.414C284.779 422.695 283.047 425.495 280.781 427.812C278.542 430.13 275.833 431.914 272.656 433.164C269.505 434.388 265.951 435 261.992 435ZM254.141 378.125V435H246.602V378.125H254.141ZM315.547 435.781C312.604 435.781 309.935 435.286 307.539 434.297C305.169 433.281 303.125 431.862 301.406 430.039C299.714 428.216 298.411 426.055 297.5 423.555C296.589 421.055 296.133 418.32 296.133 415.352V413.711C296.133 410.273 296.641 407.214 297.656 404.531C298.672 401.823 300.052 399.531 301.797 397.656C303.542 395.781 305.521 394.362 307.734 393.398C309.948 392.435 312.24 391.953 314.609 391.953C317.63 391.953 320.234 392.474 322.422 393.516C324.635 394.557 326.445 396.016 327.852 397.891C329.258 399.74 330.299 401.927 330.977 404.453C331.654 406.953 331.992 409.688 331.992 412.656V415.898H300.43V410H324.766V409.453C324.661 407.578 324.271 405.755 323.594 403.984C322.943 402.214 321.901 400.755 320.469 399.609C319.036 398.464 317.083 397.891 314.609 397.891C312.969 397.891 311.458 398.242 310.078 398.945C308.698 399.622 307.513 400.638 306.523 401.992C305.534 403.346 304.766 405 304.219 406.953C303.672 408.906 303.398 411.159 303.398 413.711V415.352C303.398 417.357 303.672 419.245 304.219 421.016C304.792 422.76 305.612 424.297 306.68 425.625C307.773 426.953 309.089 427.995 310.625 428.75C312.188 429.505 313.958 429.883 315.938 429.883C318.49 429.883 320.651 429.362 322.422 428.32C324.193 427.279 325.742 425.885 327.07 424.141L331.445 427.617C330.534 428.997 329.375 430.312 327.969 431.562C326.562 432.812 324.831 433.828 322.773 434.609C320.742 435.391 318.333 435.781 315.547 435.781ZM365.039 423.789C365.039 422.747 364.805 421.784 364.336 420.898C363.893 419.987 362.969 419.167 361.562 418.438C360.182 417.682 358.099 417.031 355.312 416.484C352.969 415.99 350.846 415.404 348.945 414.727C347.07 414.049 345.469 413.229 344.141 412.266C342.839 411.302 341.836 410.169 341.133 408.867C340.43 407.565 340.078 406.042 340.078 404.297C340.078 402.63 340.443 401.055 341.172 399.57C341.927 398.086 342.982 396.771 344.336 395.625C345.716 394.479 347.37 393.581 349.297 392.93C351.224 392.279 353.372 391.953 355.742 391.953C359.128 391.953 362.018 392.552 364.414 393.75C366.81 394.948 368.646 396.549 369.922 398.555C371.198 400.534 371.836 402.734 371.836 405.156H364.609C364.609 403.984 364.258 402.852 363.555 401.758C362.878 400.638 361.875 399.714 360.547 398.984C359.245 398.255 357.643 397.891 355.742 397.891C353.737 397.891 352.109 398.203 350.859 398.828C349.635 399.427 348.737 400.195 348.164 401.133C347.617 402.07 347.344 403.06 347.344 404.102C347.344 404.883 347.474 405.586 347.734 406.211C348.021 406.81 348.516 407.37 349.219 407.891C349.922 408.385 350.911 408.854 352.188 409.297C353.464 409.74 355.091 410.182 357.07 410.625C360.534 411.406 363.385 412.344 365.625 413.438C367.865 414.531 369.531 415.872 370.625 417.461C371.719 419.049 372.266 420.977 372.266 423.242C372.266 425.091 371.875 426.784 371.094 428.32C370.339 429.857 369.232 431.185 367.773 432.305C366.341 433.398 364.622 434.258 362.617 434.883C360.638 435.482 358.411 435.781 355.938 435.781C352.214 435.781 349.062 435.117 346.484 433.789C343.906 432.461 341.953 430.742 340.625 428.633C339.297 426.523 338.633 424.297 338.633 421.953H345.898C346.003 423.932 346.576 425.508 347.617 426.68C348.659 427.826 349.935 428.646 351.445 429.141C352.956 429.609 354.453 429.844 355.938 429.844C357.917 429.844 359.57 429.583 360.898 429.062C362.253 428.542 363.281 427.826 363.984 426.914C364.688 426.003 365.039 424.961 365.039 423.789ZM406.68 427.773V406.016C406.68 404.349 406.341 402.904 405.664 401.68C405.013 400.43 404.023 399.466 402.695 398.789C401.367 398.112 399.727 397.773 397.773 397.773C395.951 397.773 394.349 398.086 392.969 398.711C391.615 399.336 390.547 400.156 389.766 401.172C389.01 402.188 388.633 403.281 388.633 404.453H381.406C381.406 402.943 381.797 401.445 382.578 399.961C383.359 398.477 384.479 397.135 385.938 395.938C387.422 394.714 389.193 393.75 391.25 393.047C393.333 392.318 395.651 391.953 398.203 391.953C401.276 391.953 403.984 392.474 406.328 393.516C408.698 394.557 410.547 396.133 411.875 398.242C413.229 400.326 413.906 402.943 413.906 406.094V425.781C413.906 427.188 414.023 428.685 414.258 430.273C414.518 431.862 414.896 433.229 415.391 434.375V435H407.852C407.487 434.167 407.201 433.06 406.992 431.68C406.784 430.273 406.68 428.971 406.68 427.773ZM407.93 409.375L408.008 414.453H400.703C398.646 414.453 396.81 414.622 395.195 414.961C393.581 415.273 392.227 415.755 391.133 416.406C390.039 417.057 389.206 417.878 388.633 418.867C388.06 419.831 387.773 420.964 387.773 422.266C387.773 423.594 388.073 424.805 388.672 425.898C389.271 426.992 390.169 427.865 391.367 428.516C392.591 429.141 394.089 429.453 395.859 429.453C398.073 429.453 400.026 428.984 401.719 428.047C403.411 427.109 404.753 425.964 405.742 424.609C406.758 423.255 407.305 421.94 407.383 420.664L410.469 424.141C410.286 425.234 409.792 426.445 408.984 427.773C408.177 429.102 407.096 430.378 405.742 431.602C404.414 432.799 402.826 433.802 400.977 434.609C399.154 435.391 397.096 435.781 394.805 435.781C391.94 435.781 389.427 435.221 387.266 434.102C385.13 432.982 383.464 431.484 382.266 429.609C381.094 427.708 380.508 425.586 380.508 423.242C380.508 420.977 380.951 418.984 381.836 417.266C382.721 415.521 383.997 414.076 385.664 412.93C387.331 411.758 389.336 410.872 391.68 410.273C394.023 409.674 396.641 409.375 399.531 409.375H407.93ZM434.922 435H427.695V389.062C427.695 385.859 428.32 383.151 429.57 380.938C430.82 378.724 432.604 377.044 434.922 375.898C437.24 374.753 439.987 374.18 443.164 374.18C445.039 374.18 446.875 374.414 448.672 374.883C450.469 375.326 452.318 375.885 454.219 376.562L453.008 382.656C451.81 382.188 450.417 381.745 448.828 381.328C447.266 380.885 445.547 380.664 443.672 380.664C440.573 380.664 438.333 381.367 436.953 382.773C435.599 384.154 434.922 386.25 434.922 389.062V435ZM443.555 392.734V398.281H421.016V392.734H443.555ZM457.773 392.734V435H450.547V392.734H457.773ZM467.734 414.336V413.438C467.734 410.391 468.177 407.565 469.062 404.961C469.948 402.331 471.224 400.052 472.891 398.125C474.557 396.172 476.576 394.661 478.945 393.594C481.315 392.5 483.971 391.953 486.914 391.953C489.883 391.953 492.552 392.5 494.922 393.594C497.318 394.661 499.349 396.172 501.016 398.125C502.708 400.052 503.997 402.331 504.883 404.961C505.768 407.565 506.211 410.391 506.211 413.438V414.336C506.211 417.383 505.768 420.208 504.883 422.812C503.997 425.417 502.708 427.695 501.016 429.648C499.349 431.576 497.331 433.086 494.961 434.18C492.617 435.247 489.961 435.781 486.992 435.781C484.023 435.781 481.354 435.247 478.984 434.18C476.615 433.086 474.583 431.576 472.891 429.648C471.224 427.695 469.948 425.417 469.062 422.812C468.177 420.208 467.734 417.383 467.734 414.336ZM474.961 413.438V414.336C474.961 416.445 475.208 418.438 475.703 420.312C476.198 422.161 476.94 423.802 477.93 425.234C478.945 426.667 480.208 427.799 481.719 428.633C483.229 429.44 484.987 429.844 486.992 429.844C488.971 429.844 490.703 429.44 492.188 428.633C493.698 427.799 494.948 426.667 495.938 425.234C496.927 423.802 497.669 422.161 498.164 420.312C498.685 418.438 498.945 416.445 498.945 414.336V413.438C498.945 411.354 498.685 409.388 498.164 407.539C497.669 405.664 496.914 404.01 495.898 402.578C494.909 401.12 493.659 399.974 492.148 399.141C490.664 398.307 488.919 397.891 486.914 397.891C484.935 397.891 483.19 398.307 481.68 399.141C480.195 399.974 478.945 401.12 477.93 402.578C476.94 404.01 476.198 405.664 475.703 407.539C475.208 409.388 474.961 411.354 474.961 413.438ZM539.883 423.789C539.883 422.747 539.648 421.784 539.18 420.898C538.737 419.987 537.812 419.167 536.406 418.438C535.026 417.682 532.943 417.031 530.156 416.484C527.812 415.99 525.69 415.404 523.789 414.727C521.914 414.049 520.312 413.229 518.984 412.266C517.682 411.302 516.68 410.169 515.977 408.867C515.273 407.565 514.922 406.042 514.922 404.297C514.922 402.63 515.286 401.055 516.016 399.57C516.771 398.086 517.826 396.771 519.18 395.625C520.56 394.479 522.214 393.581 524.141 392.93C526.068 392.279 528.216 391.953 530.586 391.953C533.971 391.953 536.862 392.552 539.258 393.75C541.654 394.948 543.49 396.549 544.766 398.555C546.042 400.534 546.68 402.734 546.68 405.156H539.453C539.453 403.984 539.102 402.852 538.398 401.758C537.721 400.638 536.719 399.714 535.391 398.984C534.089 398.255 532.487 397.891 530.586 397.891C528.581 397.891 526.953 398.203 525.703 398.828C524.479 399.427 523.581 400.195 523.008 401.133C522.461 402.07 522.188 403.06 522.188 404.102C522.188 404.883 522.318 405.586 522.578 406.211C522.865 406.81 523.359 407.37 524.062 407.891C524.766 408.385 525.755 408.854 527.031 409.297C528.307 409.74 529.935 410.182 531.914 410.625C535.378 411.406 538.229 412.344 540.469 413.438C542.708 414.531 544.375 415.872 545.469 417.461C546.562 419.049 547.109 420.977 547.109 423.242C547.109 425.091 546.719 426.784 545.938 428.32C545.182 429.857 544.076 431.185 542.617 432.305C541.185 433.398 539.466 434.258 537.461 434.883C535.482 435.482 533.255 435.781 530.781 435.781C527.057 435.781 523.906 435.117 521.328 433.789C518.75 432.461 516.797 430.742 515.469 428.633C514.141 426.523 513.477 424.297 513.477 421.953H520.742C520.846 423.932 521.419 425.508 522.461 426.68C523.503 427.826 524.779 428.646 526.289 429.141C527.799 429.609 529.297 429.844 530.781 429.844C532.76 429.844 534.414 429.583 535.742 429.062C537.096 428.542 538.125 427.826 538.828 426.914C539.531 426.003 539.883 424.961 539.883 423.789ZM592.93 435H581.055L581.133 428.867H592.93C596.992 428.867 600.378 428.021 603.086 426.328C605.794 424.609 607.826 422.214 609.18 419.141C610.56 416.042 611.25 412.422 611.25 408.281V404.805C611.25 401.549 610.859 398.659 610.078 396.133C609.297 393.581 608.151 391.432 606.641 389.688C605.13 387.917 603.281 386.576 601.094 385.664C598.932 384.753 596.445 384.297 593.633 384.297H580.82V378.125H593.633C597.357 378.125 600.755 378.75 603.828 380C606.901 381.224 609.544 383.008 611.758 385.352C613.997 387.669 615.716 390.482 616.914 393.789C618.112 397.07 618.711 400.768 618.711 404.883V408.281C618.711 412.396 618.112 416.107 616.914 419.414C615.716 422.695 613.984 425.495 611.719 427.812C609.479 430.13 606.771 431.914 603.594 433.164C600.443 434.388 596.888 435 592.93 435ZM585.078 378.125V435H577.539V378.125H585.078ZM636.797 392.734V435H629.531V392.734H636.797ZM628.984 381.523C628.984 380.352 629.336 379.362 630.039 378.555C630.768 377.747 631.836 377.344 633.242 377.344C634.622 377.344 635.677 377.747 636.406 378.555C637.161 379.362 637.539 380.352 637.539 381.523C637.539 382.643 637.161 383.607 636.406 384.414C635.677 385.195 634.622 385.586 633.242 385.586C631.836 385.586 630.768 385.195 630.039 384.414C629.336 383.607 628.984 382.643 628.984 381.523ZM673.008 423.789C673.008 422.747 672.773 421.784 672.305 420.898C671.862 419.987 670.938 419.167 669.531 418.438C668.151 417.682 666.068 417.031 663.281 416.484C660.938 415.99 658.815 415.404 656.914 414.727C655.039 414.049 653.438 413.229 652.109 412.266C650.807 411.302 649.805 410.169 649.102 408.867C648.398 407.565 648.047 406.042 648.047 404.297C648.047 402.63 648.411 401.055 649.141 399.57C649.896 398.086 650.951 396.771 652.305 395.625C653.685 394.479 655.339 393.581 657.266 392.93C659.193 392.279 661.341 391.953 663.711 391.953C667.096 391.953 669.987 392.552 672.383 393.75C674.779 394.948 676.615 396.549 677.891 398.555C679.167 400.534 679.805 402.734 679.805 405.156H672.578C672.578 403.984 672.227 402.852 671.523 401.758C670.846 400.638 669.844 399.714 668.516 398.984C667.214 398.255 665.612 397.891 663.711 397.891C661.706 397.891 660.078 398.203 658.828 398.828C657.604 399.427 656.706 400.195 656.133 401.133C655.586 402.07 655.312 403.06 655.312 404.102C655.312 404.883 655.443 405.586 655.703 406.211C655.99 406.81 656.484 407.37 657.188 407.891C657.891 408.385 658.88 408.854 660.156 409.297C661.432 409.74 663.06 410.182 665.039 410.625C668.503 411.406 671.354 412.344 673.594 413.438C675.833 414.531 677.5 415.872 678.594 417.461C679.688 419.049 680.234 420.977 680.234 423.242C680.234 425.091 679.844 426.784 679.062 428.32C678.307 429.857 677.201 431.185 675.742 432.305C674.31 433.398 672.591 434.258 670.586 434.883C668.607 435.482 666.38 435.781 663.906 435.781C660.182 435.781 657.031 435.117 654.453 433.789C651.875 432.461 649.922 430.742 648.594 428.633C647.266 426.523 646.602 424.297 646.602 421.953H653.867C653.971 423.932 654.544 425.508 655.586 426.68C656.628 427.826 657.904 428.646 659.414 429.141C660.924 429.609 662.422 429.844 663.906 429.844C665.885 429.844 667.539 429.583 668.867 429.062C670.221 428.542 671.25 427.826 671.953 426.914C672.656 426.003 673.008 424.961 673.008 423.789ZM706.641 429.844C708.359 429.844 709.948 429.492 711.406 428.789C712.865 428.086 714.062 427.122 715 425.898C715.938 424.648 716.471 423.229 716.602 421.641H723.477C723.346 424.141 722.5 426.471 720.938 428.633C719.401 430.768 717.383 432.5 714.883 433.828C712.383 435.13 709.635 435.781 706.641 435.781C703.464 435.781 700.69 435.221 698.32 434.102C695.977 432.982 694.023 431.445 692.461 429.492C690.924 427.539 689.766 425.299 688.984 422.773C688.229 420.221 687.852 417.526 687.852 414.688V413.047C687.852 410.208 688.229 407.526 688.984 405C689.766 402.448 690.924 400.195 692.461 398.242C694.023 396.289 695.977 394.753 698.32 393.633C700.69 392.513 703.464 391.953 706.641 391.953C709.948 391.953 712.839 392.63 715.312 393.984C717.786 395.312 719.727 397.135 721.133 399.453C722.565 401.745 723.346 404.349 723.477 407.266H716.602C716.471 405.521 715.977 403.945 715.117 402.539C714.284 401.133 713.138 400.013 711.68 399.18C710.247 398.32 708.568 397.891 706.641 397.891C704.427 397.891 702.565 398.333 701.055 399.219C699.57 400.078 698.385 401.25 697.5 402.734C696.641 404.193 696.016 405.82 695.625 407.617C695.26 409.388 695.078 411.198 695.078 413.047V414.688C695.078 416.536 695.26 418.359 695.625 420.156C695.99 421.953 696.602 423.581 697.461 425.039C698.346 426.497 699.531 427.669 701.016 428.555C702.526 429.414 704.401 429.844 706.641 429.844ZM729.688 414.336V413.438C729.688 410.391 730.13 407.565 731.016 404.961C731.901 402.331 733.177 400.052 734.844 398.125C736.51 396.172 738.529 394.661 740.898 393.594C743.268 392.5 745.924 391.953 748.867 391.953C751.836 391.953 754.505 392.5 756.875 393.594C759.271 394.661 761.302 396.172 762.969 398.125C764.661 400.052 765.951 402.331 766.836 404.961C767.721 407.565 768.164 410.391 768.164 413.438V414.336C768.164 417.383 767.721 420.208 766.836 422.812C765.951 425.417 764.661 427.695 762.969 429.648C761.302 431.576 759.284 433.086 756.914 434.18C754.57 435.247 751.914 435.781 748.945 435.781C745.977 435.781 743.307 435.247 740.938 434.18C738.568 433.086 736.536 431.576 734.844 429.648C733.177 427.695 731.901 425.417 731.016 422.812C730.13 420.208 729.688 417.383 729.688 414.336ZM736.914 413.438V414.336C736.914 416.445 737.161 418.438 737.656 420.312C738.151 422.161 738.893 423.802 739.883 425.234C740.898 426.667 742.161 427.799 743.672 428.633C745.182 429.44 746.94 429.844 748.945 429.844C750.924 429.844 752.656 429.44 754.141 428.633C755.651 427.799 756.901 426.667 757.891 425.234C758.88 423.802 759.622 422.161 760.117 420.312C760.638 418.438 760.898 416.445 760.898 414.336V413.438C760.898 411.354 760.638 409.388 760.117 407.539C759.622 405.664 758.867 404.01 757.852 402.578C756.862 401.12 755.612 399.974 754.102 399.141C752.617 398.307 750.872 397.891 748.867 397.891C746.888 397.891 745.143 398.307 743.633 399.141C742.148 399.974 740.898 401.12 739.883 402.578C738.893 404.01 738.151 405.664 737.656 407.539C737.161 409.388 736.914 411.354 736.914 413.438ZM789.453 428.477L801.016 392.734H808.398L793.203 435H788.359L789.453 428.477ZM779.805 392.734L791.719 428.672L792.539 435H787.695L772.383 392.734H779.805ZM832.344 435.781C829.401 435.781 826.732 435.286 824.336 434.297C821.966 433.281 819.922 431.862 818.203 430.039C816.51 428.216 815.208 426.055 814.297 423.555C813.385 421.055 812.93 418.32 812.93 415.352V413.711C812.93 410.273 813.438 407.214 814.453 404.531C815.469 401.823 816.849 399.531 818.594 397.656C820.339 395.781 822.318 394.362 824.531 393.398C826.745 392.435 829.036 391.953 831.406 391.953C834.427 391.953 837.031 392.474 839.219 393.516C841.432 394.557 843.242 396.016 844.648 397.891C846.055 399.74 847.096 401.927 847.773 404.453C848.451 406.953 848.789 409.688 848.789 412.656V415.898H817.227V410H841.562V409.453C841.458 407.578 841.068 405.755 840.391 403.984C839.74 402.214 838.698 400.755 837.266 399.609C835.833 398.464 833.88 397.891 831.406 397.891C829.766 397.891 828.255 398.242 826.875 398.945C825.495 399.622 824.31 400.638 823.32 401.992C822.331 403.346 821.562 405 821.016 406.953C820.469 408.906 820.195 411.159 820.195 413.711V415.352C820.195 417.357 820.469 419.245 821.016 421.016C821.589 422.76 822.409 424.297 823.477 425.625C824.57 426.953 825.885 427.995 827.422 428.75C828.984 429.505 830.755 429.883 832.734 429.883C835.286 429.883 837.448 429.362 839.219 428.32C840.99 427.279 842.539 425.885 843.867 424.141L848.242 427.617C847.331 428.997 846.172 430.312 844.766 431.562C843.359 432.812 841.628 433.828 839.57 434.609C837.539 435.391 835.13 435.781 832.344 435.781ZM864.453 399.375V435H857.227V392.734H864.258L864.453 399.375ZM877.656 392.5L877.617 399.219C877.018 399.089 876.445 399.01 875.898 398.984C875.378 398.932 874.779 398.906 874.102 398.906C872.435 398.906 870.964 399.167 869.688 399.688C868.411 400.208 867.331 400.938 866.445 401.875C865.56 402.812 864.857 403.932 864.336 405.234C863.841 406.51 863.516 407.917 863.359 409.453L861.328 410.625C861.328 408.073 861.576 405.677 862.07 403.438C862.591 401.198 863.385 399.219 864.453 397.5C865.521 395.755 866.875 394.401 868.516 393.438C870.182 392.448 872.161 391.953 874.453 391.953C874.974 391.953 875.573 392.018 876.25 392.148C876.927 392.253 877.396 392.37 877.656 392.5Z" fill="#121214"/>
<g clip-path="url(#clip1_653_2)">
<rect x="240" y="615" width="1366" height="768" rx="40" fill="white"/>
<rect x="240" y="615" width="1366" height="768" fill="#DCE4E3"/>
<rect x="240" y="615" width="250" height="768" fill="#18C29C"/>
<path d="M455 653H473" stroke="#084236" stroke-width="2" stroke-linecap="round" stroke-linejoin="round"/>
<path d="M455 647H473" stroke="#084236" stroke-width="2" stroke-linecap="round" stroke-linejoin="round"/>
<path d="M455 659H473" stroke="#084236" stroke-width="2" stroke-linecap="round" stroke-linejoin="round"/>
<path d="M308.41 768.545C309.55 768.545 310.535 768.76 311.365 769.19C312.205 769.61 312.845 770.215 313.285 771.005C313.735 771.795 313.96 772.725 313.96 773.795C313.96 774.865 313.735 775.795 313.285 776.585C312.845 777.365 312.205 777.965 311.365 778.385C310.535 778.795 309.55 779 308.41 779H305.155V768.545H308.41ZM308.41 777.875C309.76 777.875 310.79 777.52 311.5 776.81C312.21 776.09 312.565 775.085 312.565 773.795C312.565 772.495 312.205 771.48 311.485 770.75C310.775 770.02 309.75 769.655 308.41 769.655H306.52V777.875H308.41ZM315.25 774.86C315.25 774.02 315.42 773.285 315.76 772.655C316.1 772.015 316.565 771.52 317.155 771.17C317.755 770.82 318.42 770.645 319.15 770.645C319.87 770.645 320.495 770.8 321.025 771.11C321.555 771.42 321.95 771.81 322.21 772.28V770.78H323.59V779H322.21V777.47C321.94 777.95 321.535 778.35 320.995 778.67C320.465 778.98 319.845 779.135 319.135 779.135C318.405 779.135 317.745 778.955 317.155 778.595C316.565 778.235 316.1 777.73 315.76 777.08C315.42 776.43 315.25 775.69 315.25 774.86ZM322.21 774.875C322.21 774.255 322.085 773.715 321.835 773.255C321.585 772.795 321.245 772.445 320.815 772.205C320.395 771.955 319.93 771.83 319.42 771.83C318.91 771.83 318.445 771.95 318.025 772.19C317.605 772.43 317.27 772.78 317.02 773.24C316.77 773.7 316.645 774.24 316.645 774.86C316.645 775.49 316.77 776.04 317.02 776.51C317.27 776.97 317.605 777.325 318.025 777.575C318.445 777.815 318.91 777.935 319.42 777.935C319.93 777.935 320.395 777.815 320.815 777.575C321.245 777.325 321.585 776.97 321.835 776.51C322.085 776.04 322.21 775.495 322.21 774.875ZM328.807 779.135C328.177 779.135 327.612 779.03 327.112 778.82C326.612 778.6 326.217 778.3 325.927 777.92C325.637 777.53 325.477 777.085 325.447 776.585H326.857C326.897 776.995 327.087 777.33 327.427 777.59C327.777 777.85 328.232 777.98 328.792 777.98C329.312 777.98 329.722 777.865 330.022 777.635C330.322 777.405 330.472 777.115 330.472 776.765C330.472 776.405 330.312 776.14 329.992 775.97C329.672 775.79 329.177 775.615 328.507 775.445C327.897 775.285 327.397 775.125 327.007 774.965C326.627 774.795 326.297 774.55 326.017 774.23C325.747 773.9 325.612 773.47 325.612 772.94C325.612 772.52 325.737 772.135 325.987 771.785C326.237 771.435 326.592 771.16 327.052 770.96C327.512 770.75 328.037 770.645 328.627 770.645C329.537 770.645 330.272 770.875 330.832 771.335C331.392 771.795 331.692 772.425 331.732 773.225H330.367C330.337 772.795 330.162 772.45 329.842 772.19C329.532 771.93 329.112 771.8 328.582 771.8C328.092 771.8 327.702 771.905 327.412 772.115C327.122 772.325 326.977 772.6 326.977 772.94C326.977 773.21 327.062 773.435 327.232 773.615C327.412 773.785 327.632 773.925 327.892 774.035C328.162 774.135 328.532 774.25 329.002 774.38C329.592 774.54 330.072 774.7 330.442 774.86C330.812 775.01 331.127 775.24 331.387 775.55C331.657 775.86 331.797 776.265 331.807 776.765C331.807 777.215 331.682 777.62 331.432 777.98C331.182 778.34 330.827 778.625 330.367 778.835C329.917 779.035 329.397 779.135 328.807 779.135ZM337.814 770.63C338.434 770.63 338.994 770.765 339.494 771.035C339.994 771.295 340.384 771.69 340.664 772.22C340.954 772.75 341.099 773.395 341.099 774.155V779H339.749V774.35C339.749 773.53 339.544 772.905 339.134 772.475C338.724 772.035 338.164 771.815 337.454 771.815C336.734 771.815 336.159 772.04 335.729 772.49C335.309 772.94 335.099 773.595 335.099 774.455V779H333.734V767.9H335.099V771.95C335.369 771.53 335.739 771.205 336.209 770.975C336.689 770.745 337.224 770.63 337.814 770.63ZM344.694 772.31C344.974 771.82 345.384 771.42 345.924 771.11C346.464 770.8 347.079 770.645 347.769 770.645C348.509 770.645 349.174 770.82 349.764 771.17C350.354 771.52 350.819 772.015 351.159 772.655C351.499 773.285 351.669 774.02 351.669 774.86C351.669 775.69 351.499 776.43 351.159 777.08C350.819 777.73 350.349 778.235 349.749 778.595C349.159 778.955 348.499 779.135 347.769 779.135C347.059 779.135 346.434 778.98 345.894 778.67C345.364 778.36 344.964 777.965 344.694 777.485V779H343.329V767.9H344.694V772.31ZM350.274 774.86C350.274 774.24 350.149 773.7 349.899 773.24C349.649 772.78 349.309 772.43 348.879 772.19C348.459 771.95 347.994 771.83 347.484 771.83C346.984 771.83 346.519 771.955 346.089 772.205C345.669 772.445 345.329 772.8 345.069 773.27C344.819 773.73 344.694 774.265 344.694 774.875C344.694 775.495 344.819 776.04 345.069 776.51C345.329 776.97 345.669 777.325 346.089 777.575C346.519 777.815 346.984 777.935 347.484 777.935C347.994 777.935 348.459 777.815 348.879 777.575C349.309 777.325 349.649 776.97 349.899 776.51C350.149 776.04 350.274 775.49 350.274 774.86ZM357.051 779.135C356.281 779.135 355.581 778.96 354.951 778.61C354.331 778.26 353.841 777.765 353.481 777.125C353.131 776.475 352.956 775.725 352.956 774.875C352.956 774.035 353.136 773.295 353.496 772.655C353.866 772.005 354.366 771.51 354.996 771.17C355.626 770.82 356.331 770.645 357.111 770.645C357.891 770.645 358.596 770.82 359.226 771.17C359.856 771.51 360.351 772 360.711 772.64C361.081 773.28 361.266 774.025 361.266 774.875C361.266 775.725 361.076 776.475 360.696 777.125C360.326 777.765 359.821 778.26 359.181 778.61C358.541 778.96 357.831 779.135 357.051 779.135ZM357.051 777.935C357.541 777.935 358.001 777.82 358.431 777.59C358.861 777.36 359.206 777.015 359.466 776.555C359.736 776.095 359.871 775.535 359.871 774.875C359.871 774.215 359.741 773.655 359.481 773.195C359.221 772.735 358.881 772.395 358.461 772.175C358.041 771.945 357.586 771.83 357.096 771.83C356.596 771.83 356.136 771.945 355.716 772.175C355.306 772.395 354.976 772.735 354.726 773.195C354.476 773.655 354.351 774.215 354.351 774.875C354.351 775.545 354.471 776.11 354.711 776.57C354.961 777.03 355.291 777.375 355.701 777.605C356.111 777.825 356.561 777.935 357.051 777.935ZM362.55 774.86C362.55 774.02 362.72 773.285 363.06 772.655C363.4 772.015 363.865 771.52 364.455 771.17C365.055 770.82 365.72 770.645 366.45 770.645C367.17 770.645 367.795 770.8 368.325 771.11C368.855 771.42 369.25 771.81 369.51 772.28V770.78H370.89V779H369.51V777.47C369.24 777.95 368.835 778.35 368.295 778.67C367.765 778.98 367.145 779.135 366.435 779.135C365.705 779.135 365.045 778.955 364.455 778.595C363.865 778.235 363.4 777.73 363.06 777.08C362.72 776.43 362.55 775.69 362.55 774.86ZM369.51 774.875C369.51 774.255 369.385 773.715 369.135 773.255C368.885 772.795 368.545 772.445 368.115 772.205C367.695 771.955 367.23 771.83 366.72 771.83C366.21 771.83 365.745 771.95 365.325 772.19C364.905 772.43 364.57 772.78 364.32 773.24C364.07 773.7 363.945 774.24 363.945 774.86C363.945 775.49 364.07 776.04 364.32 776.51C364.57 776.97 364.905 777.325 365.325 777.575C365.745 777.815 366.21 777.935 366.72 777.935C367.23 777.935 367.695 777.815 368.115 777.575C368.545 777.325 368.885 776.97 369.135 776.51C369.385 776.04 369.51 775.495 369.51 774.875ZM372.687 774.86C372.687 774.02 372.857 773.285 373.197 772.655C373.537 772.015 374.002 771.52 374.592 771.17C375.192 770.82 375.862 770.645 376.602 770.645C377.242 770.645 377.837 770.795 378.387 771.095C378.937 771.385 379.357 771.77 379.647 772.25V767.9H381.027V779H379.647V777.455C379.377 777.945 378.977 778.35 378.447 778.67C377.917 778.98 377.297 779.135 376.587 779.135C375.857 779.135 375.192 778.955 374.592 778.595C374.002 778.235 373.537 777.73 373.197 777.08C372.857 776.43 372.687 775.69 372.687 774.86ZM379.647 774.875C379.647 774.255 379.522 773.715 379.272 773.255C379.022 772.795 378.682 772.445 378.252 772.205C377.832 771.955 377.367 771.83 376.857 771.83C376.347 771.83 375.882 771.95 375.462 772.19C375.042 772.43 374.707 772.78 374.457 773.24C374.207 773.7 374.082 774.24 374.082 774.86C374.082 775.49 374.207 776.04 374.457 776.51C374.707 776.97 375.042 777.325 375.462 777.575C375.882 777.815 376.347 777.935 376.857 777.935C377.367 777.935 377.832 777.815 378.252 777.575C378.682 777.325 379.022 776.97 379.272 776.51C379.522 776.04 379.647 775.495 379.647 774.875Z" fill="#084236"/>
<path d="M277 765H270V772H277V765Z" stroke="#084236" stroke-width="2" stroke-linecap="round" stroke-linejoin="round"/>
<path d="M288 765H281V772H288V765Z" stroke="#084236" stroke-width="2" stroke-linecap="round" stroke-linejoin="round"/>
<path d="M288 776H281V783H288V776Z" stroke="#084236" stroke-width="2" stroke-linecap="round" stroke-linejoin="round"/>
<path d="M277 776H270V783H277V776Z" stroke="#084236" stroke-width="2" stroke-linecap="round" stroke-linejoin="round"/>
<path d="M304.645 890.765C304.645 889.745 304.875 888.83 305.335 888.02C305.795 887.2 306.42 886.56 307.21 886.1C308.01 885.64 308.895 885.41 309.865 885.41C311.005 885.41 312 885.685 312.85 886.235C313.7 886.785 314.32 887.565 314.71 888.575H313.075C312.785 887.945 312.365 887.46 311.815 887.12C311.275 886.78 310.625 886.61 309.865 886.61C309.135 886.61 308.48 886.78 307.9 887.12C307.32 887.46 306.865 887.945 306.535 888.575C306.205 889.195 306.04 889.925 306.04 890.765C306.04 891.595 306.205 892.325 306.535 892.955C306.865 893.575 307.32 894.055 307.9 894.395C308.48 894.735 309.135 894.905 309.865 894.905C310.625 894.905 311.275 894.74 311.815 894.41C312.365 894.07 312.785 893.585 313.075 892.955H314.71C314.32 893.955 313.7 894.73 312.85 895.28C312 895.82 311.005 896.09 309.865 896.09C308.895 896.09 308.01 895.865 307.21 895.415C306.42 894.955 305.795 894.32 305.335 893.51C304.875 892.7 304.645 891.785 304.645 890.765ZM318.107 884.9V896H316.742V884.9H318.107ZM321.138 886.445C320.878 886.445 320.658 886.355 320.478 886.175C320.298 885.995 320.208 885.775 320.208 885.515C320.208 885.255 320.298 885.035 320.478 884.855C320.658 884.675 320.878 884.585 321.138 884.585C321.388 884.585 321.598 884.675 321.768 884.855C321.948 885.035 322.038 885.255 322.038 885.515C322.038 885.775 321.948 885.995 321.768 886.175C321.598 886.355 321.388 886.445 321.138 886.445ZM321.798 887.78V896H320.433V887.78H321.798ZM331.625 891.575C331.625 891.835 331.61 892.11 331.58 892.4H325.01C325.06 893.21 325.335 893.845 325.835 894.305C326.345 894.755 326.96 894.98 327.68 894.98C328.27 894.98 328.76 894.845 329.15 894.575C329.55 894.295 329.83 893.925 329.99 893.465H331.46C331.24 894.255 330.8 894.9 330.14 895.4C329.48 895.89 328.66 896.135 327.68 896.135C326.9 896.135 326.2 895.96 325.58 895.61C324.97 895.26 324.49 894.765 324.14 894.125C323.79 893.475 323.615 892.725 323.615 891.875C323.615 891.025 323.785 890.28 324.125 889.64C324.465 889 324.94 888.51 325.55 888.17C326.17 887.82 326.88 887.645 327.68 887.645C328.46 887.645 329.15 887.815 329.75 888.155C330.35 888.495 330.81 888.965 331.13 889.565C331.46 890.155 331.625 890.825 331.625 891.575ZM330.215 891.29C330.215 890.77 330.1 890.325 329.87 889.955C329.64 889.575 329.325 889.29 328.925 889.1C328.535 888.9 328.1 888.8 327.62 888.8C326.93 888.8 326.34 889.02 325.85 889.46C325.37 889.9 325.095 890.51 325.025 891.29H330.215ZM337.431 887.63C338.431 887.63 339.241 887.935 339.861 888.545C340.481 889.145 340.791 890.015 340.791 891.155V896H339.441V891.35C339.441 890.53 339.236 889.905 338.826 889.475C338.416 889.035 337.856 888.815 337.146 888.815C336.426 888.815 335.851 889.04 335.421 889.49C335.001 889.94 334.791 890.595 334.791 891.455V896H333.426V887.78H334.791V888.95C335.061 888.53 335.426 888.205 335.886 887.975C336.356 887.745 336.871 887.63 337.431 887.63ZM344.686 888.905V893.75C344.686 894.15 344.771 894.435 344.941 894.605C345.111 894.765 345.406 894.845 345.826 894.845H346.831V896H345.601C344.841 896 344.271 895.825 343.891 895.475C343.511 895.125 343.321 894.55 343.321 893.75V888.905H342.256V887.78H343.321V885.71H344.686V887.78H346.831V888.905H344.686ZM355.985 891.575C355.985 891.835 355.97 892.11 355.94 892.4H349.37C349.42 893.21 349.695 893.845 350.195 894.305C350.705 894.755 351.32 894.98 352.04 894.98C352.63 894.98 353.12 894.845 353.51 894.575C353.91 894.295 354.19 893.925 354.35 893.465H355.82C355.6 894.255 355.16 894.9 354.5 895.4C353.84 895.89 353.02 896.135 352.04 896.135C351.26 896.135 350.56 895.96 349.94 895.61C349.33 895.26 348.85 894.765 348.5 894.125C348.15 893.475 347.975 892.725 347.975 891.875C347.975 891.025 348.145 890.28 348.485 889.64C348.825 889 349.3 888.51 349.91 888.17C350.53 887.82 351.24 887.645 352.04 887.645C352.82 887.645 353.51 887.815 354.11 888.155C354.71 888.495 355.17 888.965 355.49 889.565C355.82 890.155 355.985 890.825 355.985 891.575ZM354.575 891.29C354.575 890.77 354.46 890.325 354.23 889.955C354 889.575 353.685 889.29 353.285 889.1C352.895 888.9 352.46 888.8 351.98 888.8C351.29 888.8 350.7 889.02 350.21 889.46C349.73 889.9 349.455 890.51 349.385 891.29H354.575ZM360.697 896.135C360.067 896.135 359.502 896.03 359.002 895.82C358.502 895.6 358.107 895.3 357.817 894.92C357.527 894.53 357.367 894.085 357.337 893.585H358.747C358.787 893.995 358.977 894.33 359.317 894.59C359.667 894.85 360.122 894.98 360.682 894.98C361.202 894.98 361.612 894.865 361.912 894.635C362.212 894.405 362.362 894.115 362.362 893.765C362.362 893.405 362.202 893.14 361.882 892.97C361.562 892.79 361.067 892.615 360.397 892.445C359.787 892.285 359.287 892.125 358.897 891.965C358.517 891.795 358.187 891.55 357.907 891.23C357.637 890.9 357.502 890.47 357.502 889.94C357.502 889.52 357.627 889.135 357.877 888.785C358.127 888.435 358.482 888.16 358.942 887.96C359.402 887.75 359.927 887.645 360.517 887.645C361.427 887.645 362.162 887.875 362.722 888.335C363.282 888.795 363.582 889.425 363.622 890.225H362.257C362.227 889.795 362.052 889.45 361.732 889.19C361.422 888.93 361.002 888.8 360.472 888.8C359.982 888.8 359.592 888.905 359.302 889.115C359.012 889.325 358.867 889.6 358.867 889.94C358.867 890.21 358.952 890.435 359.122 890.615C359.302 890.785 359.522 890.925 359.782 891.035C360.052 891.135 360.422 891.25 360.892 891.38C361.482 891.54 361.962 891.7 362.332 891.86C362.702 892.01 363.017 892.24 363.277 892.55C363.547 892.86 363.687 893.265 363.697 893.765C363.697 894.215 363.572 894.62 363.322 894.98C363.072 895.34 362.717 895.625 362.257 895.835C361.807 896.035 361.287 896.135 360.697 896.135Z" fill="#084236"/>
<path d="M287 899V897C287 895.939 286.579 894.922 285.828 894.172C285.078 893.421 284.061 893 283 893H275C273.939 893 272.922 893.421 272.172 894.172C271.421 894.922 271 895.939 271 897V899" stroke="#084236" stroke-width="2" stroke-linecap="round" stroke-linejoin="round"/>
<path d="M279 889C281.209 889 283 887.209 283 885C283 882.791 281.209 881 279 881C276.791 881 275 882.791 275 885C275 887.209 276.791 889 279 889Z" stroke="#084236" stroke-width="2" stroke-linecap="round" stroke-linejoin="round"/>
<rect x="254" y="691" width="222" height="50.9174" rx="12" fill="#8ED7C6"/>
<path d="M310.39 716.615C310.77 716.675 311.115 716.83 311.425 717.08C311.745 717.33 311.995 717.64 312.175 718.01C312.365 718.38 312.46 718.775 312.46 719.195C312.46 719.725 312.325 720.205 312.055 720.635C311.785 721.055 311.39 721.39 310.87 721.64C310.36 721.88 309.755 722 309.055 722H305.155V711.545H308.905C309.615 711.545 310.22 711.665 310.72 711.905C311.22 712.135 311.595 712.45 311.845 712.85C312.095 713.25 312.22 713.7 312.22 714.2C312.22 714.82 312.05 715.335 311.71 715.745C311.38 716.145 310.94 716.435 310.39 716.615ZM306.52 716.06H308.815C309.455 716.06 309.95 715.91 310.3 715.61C310.65 715.31 310.825 714.895 310.825 714.365C310.825 713.835 310.65 713.42 310.3 713.12C309.95 712.82 309.445 712.67 308.785 712.67H306.52V716.06ZM308.935 720.875C309.615 720.875 310.145 720.715 310.525 720.395C310.905 720.075 311.095 719.63 311.095 719.06C311.095 718.48 310.895 718.025 310.495 717.695C310.095 717.355 309.56 717.185 308.89 717.185H306.52V720.875H308.935ZM321.644 713.78V722H320.279V720.785C320.019 721.205 319.654 721.535 319.184 721.775C318.724 722.005 318.214 722.12 317.654 722.12C317.014 722.12 316.439 721.99 315.929 721.73C315.419 721.46 315.014 721.06 314.714 720.53C314.424 720 314.279 719.355 314.279 718.595V713.78H315.629V718.415C315.629 719.225 315.834 719.85 316.244 720.29C316.654 720.72 317.214 720.935 317.924 720.935C318.654 720.935 319.229 720.71 319.649 720.26C320.069 719.81 320.279 719.155 320.279 718.295V713.78H321.644ZM326.859 722.135C326.229 722.135 325.664 722.03 325.164 721.82C324.664 721.6 324.269 721.3 323.979 720.92C323.689 720.53 323.529 720.085 323.499 719.585H324.909C324.949 719.995 325.139 720.33 325.479 720.59C325.829 720.85 326.284 720.98 326.844 720.98C327.364 720.98 327.774 720.865 328.074 720.635C328.374 720.405 328.524 720.115 328.524 719.765C328.524 719.405 328.364 719.14 328.044 718.97C327.724 718.79 327.229 718.615 326.559 718.445C325.949 718.285 325.449 718.125 325.059 717.965C324.679 717.795 324.349 717.55 324.069 717.23C323.799 716.9 323.664 716.47 323.664 715.94C323.664 715.52 323.789 715.135 324.039 714.785C324.289 714.435 324.644 714.16 325.104 713.96C325.564 713.75 326.089 713.645 326.679 713.645C327.589 713.645 328.324 713.875 328.884 714.335C329.444 714.795 329.744 715.425 329.784 716.225H328.419C328.389 715.795 328.214 715.45 327.894 715.19C327.584 714.93 327.164 714.8 326.634 714.8C326.144 714.8 325.754 714.905 325.464 715.115C325.174 715.325 325.029 715.6 325.029 715.94C325.029 716.21 325.114 716.435 325.284 716.615C325.464 716.785 325.684 716.925 325.944 717.035C326.214 717.135 326.584 717.25 327.054 717.38C327.644 717.54 328.124 717.7 328.494 717.86C328.864 718.01 329.179 718.24 329.439 718.55C329.709 718.86 329.849 719.265 329.859 719.765C329.859 720.215 329.734 720.62 329.484 720.98C329.234 721.34 328.879 721.625 328.419 721.835C327.969 722.035 327.449 722.135 326.859 722.135ZM331.276 717.875C331.276 717.025 331.446 716.285 331.786 715.655C332.126 715.015 332.596 714.52 333.196 714.17C333.806 713.82 334.501 713.645 335.281 713.645C336.291 713.645 337.121 713.89 337.771 714.38C338.431 714.87 338.866 715.55 339.076 716.42H337.606C337.466 715.92 337.191 715.525 336.781 715.235C336.381 714.945 335.881 714.8 335.281 714.8C334.501 714.8 333.871 715.07 333.391 715.61C332.911 716.14 332.671 716.895 332.671 717.875C332.671 718.865 332.911 719.63 333.391 720.17C333.871 720.71 334.501 720.98 335.281 720.98C335.881 720.98 336.381 720.84 336.781 720.56C337.181 720.28 337.456 719.88 337.606 719.36H339.076C338.856 720.2 338.416 720.875 337.756 721.385C337.096 721.885 336.271 722.135 335.281 722.135C334.501 722.135 333.806 721.96 333.196 721.61C332.596 721.26 332.126 720.765 331.786 720.125C331.446 719.485 331.276 718.735 331.276 717.875ZM340.387 717.86C340.387 717.02 340.557 716.285 340.897 715.655C341.237 715.015 341.702 714.52 342.292 714.17C342.892 713.82 343.557 713.645 344.287 713.645C345.007 713.645 345.632 713.8 346.162 714.11C346.692 714.42 347.087 714.81 347.347 715.28V713.78H348.727V722H347.347V720.47C347.077 720.95 346.672 721.35 346.132 721.67C345.602 721.98 344.982 722.135 344.272 722.135C343.542 722.135 342.882 721.955 342.292 721.595C341.702 721.235 341.237 720.73 340.897 720.08C340.557 719.43 340.387 718.69 340.387 717.86ZM347.347 717.875C347.347 717.255 347.222 716.715 346.972 716.255C346.722 715.795 346.382 715.445 345.952 715.205C345.532 714.955 345.067 714.83 344.557 714.83C344.047 714.83 343.582 714.95 343.162 715.19C342.742 715.43 342.407 715.78 342.157 716.24C341.907 716.7 341.782 717.24 341.782 717.86C341.782 718.49 341.907 719.04 342.157 719.51C342.407 719.97 342.742 720.325 343.162 720.575C343.582 720.815 344.047 720.935 344.557 720.935C345.067 720.935 345.532 720.815 345.952 720.575C346.382 720.325 346.722 719.97 346.972 719.51C347.222 719.04 347.347 718.495 347.347 717.875ZM352.399 715.115C352.639 714.645 352.979 714.28 353.419 714.02C353.869 713.76 354.414 713.63 355.054 713.63V715.04H354.694C353.164 715.04 352.399 715.87 352.399 717.53V722H351.034V713.78H352.399V715.115Z" fill="#084236"/>
<path d="M278 723C282.418 723 286 719.418 286 715C286 710.582 282.418 707 278 707C273.582 707 270 710.582 270 715C270 719.418 273.582 723 278 723Z" stroke="#084236" stroke-width="2" stroke-linecap="round" stroke-linejoin="round"/>
<path d="M288 725L283.65 720.65" stroke="#084236" stroke-width="2" stroke-linecap="round" stroke-linejoin="round"/>
<path d="M312.145 829.605C312.145 830.475 311.845 831.2 311.245 831.78C310.655 832.35 309.75 832.635 308.53 832.635H306.52V837H305.155V826.545H308.53C309.71 826.545 310.605 826.83 311.215 827.4C311.835 827.97 312.145 828.705 312.145 829.605ZM308.53 831.51C309.29 831.51 309.85 831.345 310.21 831.015C310.57 830.685 310.75 830.215 310.75 829.605C310.75 828.315 310.01 827.67 308.53 827.67H306.52V831.51H308.53ZM321.342 832.575C321.342 832.835 321.327 833.11 321.297 833.4H314.727C314.777 834.21 315.052 834.845 315.552 835.305C316.062 835.755 316.677 835.98 317.397 835.98C317.987 835.98 318.477 835.845 318.867 835.575C319.267 835.295 319.547 834.925 319.707 834.465H321.177C320.957 835.255 320.517 835.9 319.857 836.4C319.197 836.89 318.377 837.135 317.397 837.135C316.617 837.135 315.917 836.96 315.297 836.61C314.687 836.26 314.207 835.765 313.857 835.125C313.507 834.475 313.332 833.725 313.332 832.875C313.332 832.025 313.502 831.28 313.842 830.64C314.182 830 314.657 829.51 315.267 829.17C315.887 828.82 316.597 828.645 317.397 828.645C318.177 828.645 318.867 828.815 319.467 829.155C320.067 829.495 320.527 829.965 320.847 830.565C321.177 831.155 321.342 831.825 321.342 832.575ZM319.932 832.29C319.932 831.77 319.817 831.325 319.587 830.955C319.357 830.575 319.042 830.29 318.642 830.1C318.252 829.9 317.817 829.8 317.337 829.8C316.647 829.8 316.057 830.02 315.567 830.46C315.087 830.9 314.812 831.51 314.742 832.29H319.932ZM324.808 829.905V834.75C324.808 835.15 324.893 835.435 325.063 835.605C325.233 835.765 325.528 835.845 325.948 835.845H326.953V837H325.723C324.963 837 324.393 836.825 324.013 836.475C323.633 836.125 323.443 835.55 323.443 834.75V829.905H322.378V828.78H323.443V826.71H324.808V828.78H326.953V829.905H324.808ZM331.517 837.135C330.887 837.135 330.322 837.03 329.822 836.82C329.322 836.6 328.927 836.3 328.637 835.92C328.347 835.53 328.187 835.085 328.157 834.585H329.567C329.607 834.995 329.797 835.33 330.137 835.59C330.487 835.85 330.942 835.98 331.502 835.98C332.022 835.98 332.432 835.865 332.732 835.635C333.032 835.405 333.182 835.115 333.182 834.765C333.182 834.405 333.022 834.14 332.702 833.97C332.382 833.79 331.887 833.615 331.217 833.445C330.607 833.285 330.107 833.125 329.717 832.965C329.337 832.795 329.007 832.55 328.727 832.23C328.457 831.9 328.322 831.47 328.322 830.94C328.322 830.52 328.447 830.135 328.697 829.785C328.947 829.435 329.302 829.16 329.762 828.96C330.222 828.75 330.747 828.645 331.337 828.645C332.247 828.645 332.982 828.875 333.542 829.335C334.102 829.795 334.402 830.425 334.442 831.225H333.077C333.047 830.795 332.872 830.45 332.552 830.19C332.242 829.93 331.822 829.8 331.292 829.8C330.802 829.8 330.412 829.905 330.122 830.115C329.832 830.325 329.687 830.6 329.687 830.94C329.687 831.21 329.772 831.435 329.942 831.615C330.122 831.785 330.342 831.925 330.602 832.035C330.872 832.135 331.242 832.25 331.712 832.38C332.302 832.54 332.782 832.7 333.152 832.86C333.522 833.01 333.837 833.24 334.097 833.55C334.367 833.86 334.507 834.265 334.517 834.765C334.517 835.215 334.392 835.62 334.142 835.98C333.892 836.34 333.537 836.625 333.077 836.835C332.627 837.035 332.107 837.135 331.517 837.135Z" fill="#084236"/>
<path d="M277.386 833.087C278.138 830.468 279.901 830.909 280.599 833.13C280.896 833.893 281.219 834.637 281.553 835.267C282.085 836.273 282.852 837.378 283.635 838.403C284.511 839.548 283.476 841.37 282.083 841.085C280.807 840.824 279.621 840.606 279.054 840.568C278.483 840.53 277.289 840.729 276.006 840.997C274.614 841.288 273.529 839.486 274.383 838.325C275.125 837.316 275.854 836.238 276.377 835.267C276.723 834.623 277.066 833.863 277.386 833.087Z" stroke="#084236" stroke-width="2"/>
<path d="M285.411 827.077C285.179 828.361 283.95 829.213 282.666 828.98C281.382 828.748 280.53 827.519 280.763 826.235C280.995 824.952 282.362 823.184 283.646 823.416C284.93 823.648 285.644 825.793 285.411 827.077Z" stroke="#084236" stroke-width="2"/>
<path d="M277.448 826.264C277.584 827.561 276.642 828.723 275.345 828.859C274.047 828.995 272.885 828.053 272.749 826.755C272.614 825.458 273.258 823.403 274.556 823.267C275.853 823.131 277.312 824.966 277.448 826.264Z" stroke="#084236" stroke-width="2"/>
<path d="M273.131 833.138C273.322 834.428 272.432 835.63 271.141 835.821C269.851 836.013 268.649 835.122 268.458 833.831C268.266 832.541 269.046 830.591 270.337 830.399C271.627 830.208 272.939 831.848 273.131 833.138Z" stroke="#084236" stroke-width="2"/>
<path d="M289.687 833.63C289.556 834.928 288.398 835.874 287.1 835.743C285.802 835.612 284.856 834.454 284.987 833.156C285.117 831.858 286.352 830.159 287.65 830.29C288.948 830.42 289.818 832.332 289.687 833.63Z" stroke="#084236" stroke-width="2"/>
<path d="M311.335 1008.67H306.775L305.935 1011H304.495L308.275 1000.6H309.85L313.615 1011H312.175L311.335 1008.67ZM310.945 1007.56L309.055 1002.28L307.165 1007.56H310.945ZM315.997 1001.44C315.737 1001.44 315.517 1001.35 315.337 1001.17C315.167 1000.99 315.082 1000.77 315.082 1000.51C315.082 1000.25 315.167 1000.03 315.337 999.855C315.517 999.675 315.737 999.585 315.997 999.585C316.257 999.585 316.472 999.675 316.642 999.855C316.822 1000.03 316.912 1000.25 316.912 1000.51C316.912 1000.77 316.822 1000.99 316.642 1001.17C316.472 1001.35 316.257 1001.44 315.997 1001.44ZM316.672 1012.79C316.672 1013.52 316.487 1014.05 316.117 1014.39C315.747 1014.73 315.207 1014.9 314.497 1014.9H313.702V1013.75H314.272C314.652 1013.75 314.917 1013.67 315.067 1013.52C315.227 1013.37 315.307 1013.12 315.307 1012.76V1002.78H316.672V1012.79ZM326.273 1002.78V1011H324.908V1009.78C324.648 1010.2 324.283 1010.53 323.813 1010.77C323.353 1011.01 322.843 1011.12 322.283 1011.12C321.643 1011.12 321.068 1010.99 320.558 1010.73C320.048 1010.46 319.643 1010.06 319.343 1009.53C319.053 1009 318.908 1008.35 318.908 1007.59V1002.78H320.258V1007.41C320.258 1008.22 320.463 1008.85 320.873 1009.29C321.283 1009.72 321.843 1009.93 322.553 1009.93C323.283 1009.93 323.858 1009.71 324.278 1009.26C324.698 1008.81 324.908 1008.15 324.908 1007.29V1002.78H326.273ZM331.488 1011.14C330.858 1011.14 330.293 1011.03 329.793 1010.82C329.293 1010.6 328.898 1010.3 328.608 1009.92C328.318 1009.53 328.158 1009.08 328.128 1008.58H329.538C329.578 1008.99 329.768 1009.33 330.108 1009.59C330.458 1009.85 330.913 1009.98 331.473 1009.98C331.993 1009.98 332.403 1009.86 332.703 1009.63C333.003 1009.4 333.153 1009.11 333.153 1008.76C333.153 1008.4 332.993 1008.14 332.673 1007.97C332.353 1007.79 331.858 1007.61 331.188 1007.44C330.578 1007.28 330.078 1007.12 329.688 1006.96C329.308 1006.79 328.978 1006.55 328.698 1006.23C328.428 1005.9 328.293 1005.47 328.293 1004.94C328.293 1004.52 328.418 1004.13 328.668 1003.78C328.918 1003.43 329.273 1003.16 329.733 1002.96C330.193 1002.75 330.718 1002.64 331.308 1002.64C332.218 1002.64 332.953 1002.87 333.513 1003.33C334.073 1003.79 334.373 1004.42 334.413 1005.22H333.048C333.018 1004.79 332.843 1004.45 332.523 1004.19C332.213 1003.93 331.793 1003.8 331.263 1003.8C330.773 1003.8 330.383 1003.9 330.093 1004.11C329.803 1004.32 329.658 1004.6 329.658 1004.94C329.658 1005.21 329.743 1005.43 329.913 1005.61C330.093 1005.78 330.313 1005.92 330.573 1006.03C330.843 1006.13 331.213 1006.25 331.683 1006.38C332.273 1006.54 332.753 1006.7 333.123 1006.86C333.493 1007.01 333.808 1007.24 334.068 1007.55C334.338 1007.86 334.478 1008.26 334.488 1008.76C334.488 1009.21 334.363 1009.62 334.113 1009.98C333.863 1010.34 333.508 1010.62 333.048 1010.83C332.598 1011.04 332.078 1011.14 331.488 1011.14ZM338.08 1003.9V1008.75C338.08 1009.15 338.165 1009.43 338.335 1009.6C338.505 1009.76 338.8 1009.84 339.22 1009.84H340.225V1011H338.995C338.235 1011 337.665 1010.82 337.285 1010.47C336.905 1010.12 336.715 1009.55 336.715 1008.75V1003.9H335.65V1002.78H336.715V1000.71H338.08V1002.78H340.225V1003.9H338.08ZM349.379 1006.57C349.379 1006.83 349.364 1007.11 349.334 1007.4H342.764C342.814 1008.21 343.089 1008.84 343.589 1009.3C344.099 1009.75 344.714 1009.98 345.434 1009.98C346.024 1009.98 346.514 1009.84 346.904 1009.57C347.304 1009.29 347.584 1008.92 347.744 1008.46H349.214C348.994 1009.25 348.554 1009.9 347.894 1010.4C347.234 1010.89 346.414 1011.14 345.434 1011.14C344.654 1011.14 343.954 1010.96 343.334 1010.61C342.724 1010.26 342.244 1009.76 341.894 1009.12C341.544 1008.47 341.369 1007.72 341.369 1006.87C341.369 1006.02 341.539 1005.28 341.879 1004.64C342.219 1004 342.694 1003.51 343.304 1003.17C343.924 1002.82 344.634 1002.64 345.434 1002.64C346.214 1002.64 346.904 1002.81 347.504 1003.15C348.104 1003.49 348.564 1003.96 348.884 1004.56C349.214 1005.15 349.379 1005.82 349.379 1006.57ZM347.969 1006.29C347.969 1005.77 347.854 1005.32 347.624 1004.95C347.394 1004.57 347.079 1004.29 346.679 1004.1C346.289 1003.9 345.854 1003.8 345.374 1003.8C344.684 1003.8 344.094 1004.02 343.604 1004.46C343.124 1004.9 342.849 1005.51 342.779 1006.29H347.969ZM354.09 1011.14C353.46 1011.14 352.895 1011.03 352.395 1010.82C351.895 1010.6 351.5 1010.3 351.21 1009.92C350.92 1009.53 350.76 1009.08 350.73 1008.58H352.14C352.18 1008.99 352.37 1009.33 352.71 1009.59C353.06 1009.85 353.515 1009.98 354.075 1009.98C354.595 1009.98 355.005 1009.86 355.305 1009.63C355.605 1009.4 355.755 1009.11 355.755 1008.76C355.755 1008.4 355.595 1008.14 355.275 1007.97C354.955 1007.79 354.46 1007.61 353.79 1007.44C353.18 1007.28 352.68 1007.12 352.29 1006.96C351.91 1006.79 351.58 1006.55 351.3 1006.23C351.03 1005.9 350.895 1005.47 350.895 1004.94C350.895 1004.52 351.02 1004.13 351.27 1003.78C351.52 1003.43 351.875 1003.16 352.335 1002.96C352.795 1002.75 353.32 1002.64 353.91 1002.64C354.82 1002.64 355.555 1002.87 356.115 1003.33C356.675 1003.79 356.975 1004.42 357.015 1005.22H355.65C355.62 1004.79 355.445 1004.45 355.125 1004.19C354.815 1003.93 354.395 1003.8 353.865 1003.8C353.375 1003.8 352.985 1003.9 352.695 1004.11C352.405 1004.32 352.26 1004.6 352.26 1004.94C352.26 1005.21 352.345 1005.43 352.515 1005.61C352.695 1005.78 352.915 1005.92 353.175 1006.03C353.445 1006.13 353.815 1006.25 354.285 1006.38C354.875 1006.54 355.355 1006.7 355.725 1006.86C356.095 1007.01 356.41 1007.24 356.67 1007.55C356.94 1007.86 357.08 1008.26 357.09 1008.76C357.09 1009.21 356.965 1009.62 356.715 1009.98C356.465 1010.34 356.11 1010.62 355.65 1010.83C355.2 1011.04 354.68 1011.14 354.09 1011.14Z" fill="#084236"/>
<path d="M279 1009C280.657 1009 282 1007.66 282 1006C282 1004.34 280.657 1003 279 1003C277.343 1003 276 1004.34 276 1006C276 1007.66 277.343 1009 279 1009Z" stroke="#084236" stroke-width="2" stroke-linecap="round" stroke-linejoin="round"/>
<path d="M286.4 1009C286.267 1009.3 286.227 1009.64 286.286 1009.96C286.345 1010.28 286.499 1010.58 286.73 1010.82L286.79 1010.88C286.976 1011.07 287.123 1011.29 287.224 1011.53C287.325 1011.77 287.377 1012.03 287.377 1012.3C287.377 1012.56 287.325 1012.82 287.224 1013.06C287.123 1013.3 286.976 1013.52 286.79 1013.71C286.604 1013.9 286.384 1014.04 286.141 1014.14C285.898 1014.24 285.638 1014.3 285.375 1014.3C285.112 1014.3 284.852 1014.24 284.609 1014.14C284.366 1014.04 284.146 1013.9 283.96 1013.71L283.9 1013.65C283.664 1013.42 283.365 1013.26 283.041 1013.21C282.716 1013.15 282.382 1013.19 282.08 1013.32C281.784 1013.45 281.532 1013.66 281.354 1013.93C281.177 1014.19 281.081 1014.51 281.08 1014.83V1015C281.08 1015.53 280.869 1016.04 280.494 1016.41C280.119 1016.79 279.61 1017 279.08 1017C278.55 1017 278.041 1016.79 277.666 1016.41C277.291 1016.04 277.08 1015.53 277.08 1015V1014.91C277.072 1014.58 276.965 1014.26 276.773 1013.99C276.58 1013.72 276.311 1013.51 276 1013.4C275.698 1013.27 275.364 1013.23 275.039 1013.29C274.715 1013.34 274.416 1013.5 274.18 1013.73L274.12 1013.79C273.934 1013.98 273.714 1014.12 273.471 1014.22C273.228 1014.32 272.968 1014.38 272.705 1014.38C272.442 1014.38 272.182 1014.32 271.939 1014.22C271.696 1014.12 271.476 1013.98 271.29 1013.79C271.104 1013.6 270.957 1013.38 270.856 1013.14C270.755 1012.9 270.703 1012.64 270.703 1012.38C270.703 1012.11 270.755 1011.85 270.856 1011.61C270.957 1011.37 271.104 1011.15 271.29 1010.96L271.35 1010.9C271.581 1010.66 271.735 1010.36 271.794 1010.04C271.853 1009.72 271.813 1009.38 271.68 1009.08C271.553 1008.78 271.343 1008.53 271.074 1008.35C270.806 1008.18 270.492 1008.08 270.17 1008.08H270C269.47 1008.08 268.961 1007.87 268.586 1007.49C268.211 1007.12 268 1006.61 268 1006.08C268 1005.55 268.211 1005.04 268.586 1004.67C268.961 1004.29 269.47 1004.08 270 1004.08H270.09C270.421 1004.07 270.742 1003.97 271.011 1003.77C271.281 1003.58 271.486 1003.31 271.6 1003C271.733 1002.7 271.773 1002.36 271.714 1002.04C271.655 1001.72 271.501 1001.42 271.27 1001.18L271.21 1001.12C271.024 1000.93 270.877 1000.71 270.776 1000.47C270.675 1000.23 270.623 999.968 270.623 999.705C270.623 999.442 270.675 999.182 270.776 998.939C270.877 998.696 271.024 998.476 271.21 998.29C271.396 998.104 271.616 997.957 271.859 997.856C272.102 997.755 272.362 997.703 272.625 997.703C272.888 997.703 273.148 997.755 273.391 997.856C273.634 997.957 273.854 998.104 274.04 998.29L274.1 998.35C274.336 998.581 274.635 998.735 274.959 998.794C275.284 998.853 275.618 998.813 275.92 998.68H276C276.296 998.553 276.548 998.343 276.726 998.074C276.903 997.806 276.999 997.492 277 997.17V997C277 996.47 277.211 995.961 277.586 995.586C277.961 995.211 278.47 995 279 995C279.53 995 280.039 995.211 280.414 995.586C280.789 995.961 281 996.47 281 997V997.09C281.001 997.412 281.097 997.726 281.274 997.994C281.452 998.263 281.704 998.473 282 998.6C282.302 998.733 282.636 998.773 282.961 998.714C283.285 998.655 283.584 998.501 283.82 998.27L283.88 998.21C284.066 998.024 284.286 997.877 284.529 997.776C284.772 997.675 285.032 997.623 285.295 997.623C285.558 997.623 285.818 997.675 286.061 997.776C286.304 997.877 286.524 998.024 286.71 998.21C286.896 998.396 287.043 998.616 287.144 998.859C287.245 999.102 287.297 999.362 287.297 999.625C287.297 999.888 287.245 1000.15 287.144 1000.39C287.043 1000.63 286.896 1000.85 286.71 1001.04L286.65 1001.1C286.419 1001.34 286.265 1001.64 286.206 1001.96C286.147 1002.28 286.187 1002.62 286.32 1002.92V1003C286.447 1003.3 286.657 1003.55 286.926 1003.73C287.194 1003.9 287.508 1004 287.83 1004H288C288.53 1004 289.039 1004.21 289.414 1004.59C289.789 1004.96 290 1005.47 290 1006C290 1006.53 289.789 1007.04 289.414 1007.41C289.039 1007.79 288.53 1008 288 1008H287.91C287.588 1008 287.274 1008.1 287.006 1008.27C286.737 1008.45 286.527 1008.7 286.4 1009V1009Z" stroke="#084236" stroke-width="2" stroke-linecap="round" stroke-linejoin="round"/>
<path d="M313.795 943.545L309.85 954H308.275L304.33 943.545H305.785L309.07 952.56L312.355 943.545H313.795ZM322.792 949.575C322.792 949.835 322.777 950.11 322.747 950.4H316.177C316.227 951.21 316.502 951.845 317.002 952.305C317.512 952.755 318.127 952.98 318.847 952.98C319.437 952.98 319.927 952.845 320.317 952.575C320.717 952.295 320.997 951.925 321.157 951.465H322.627C322.407 952.255 321.967 952.9 321.307 953.4C320.647 953.89 319.827 954.135 318.847 954.135C318.067 954.135 317.367 953.96 316.747 953.61C316.137 953.26 315.657 952.765 315.307 952.125C314.957 951.475 314.782 950.725 314.782 949.875C314.782 949.025 314.952 948.28 315.292 947.64C315.632 947 316.107 946.51 316.717 946.17C317.337 945.82 318.047 945.645 318.847 945.645C319.627 945.645 320.317 945.815 320.917 946.155C321.517 946.495 321.977 946.965 322.297 947.565C322.627 948.155 322.792 948.825 322.792 949.575ZM321.382 949.29C321.382 948.77 321.267 948.325 321.037 947.955C320.807 947.575 320.492 947.29 320.092 947.1C319.702 946.9 319.267 946.8 318.787 946.8C318.097 946.8 317.507 947.02 317.017 947.46C316.537 947.9 316.262 948.51 316.192 949.29H321.382ZM326.258 946.905V951.75C326.258 952.15 326.343 952.435 326.513 952.605C326.683 952.765 326.978 952.845 327.398 952.845H328.403V954H327.173C326.413 954 325.843 953.825 325.463 953.475C325.083 953.125 324.893 952.55 324.893 951.75V946.905H323.828V945.78H324.893V943.71H326.258V945.78H328.403V946.905H326.258ZM332.967 954.135C332.337 954.135 331.772 954.03 331.272 953.82C330.772 953.6 330.377 953.3 330.087 952.92C329.797 952.53 329.637 952.085 329.607 951.585H331.017C331.057 951.995 331.247 952.33 331.587 952.59C331.937 952.85 332.392 952.98 332.952 952.98C333.472 952.98 333.882 952.865 334.182 952.635C334.482 952.405 334.632 952.115 334.632 951.765C334.632 951.405 334.472 951.14 334.152 950.97C333.832 950.79 333.337 950.615 332.667 950.445C332.057 950.285 331.557 950.125 331.167 949.965C330.787 949.795 330.457 949.55 330.177 949.23C329.907 948.9 329.772 948.47 329.772 947.94C329.772 947.52 329.897 947.135 330.147 946.785C330.397 946.435 330.752 946.16 331.212 945.96C331.672 945.75 332.197 945.645 332.787 945.645C333.697 945.645 334.432 945.875 334.992 946.335C335.552 946.795 335.852 947.425 335.892 948.225H334.527C334.497 947.795 334.322 947.45 334.002 947.19C333.692 946.93 333.272 946.8 332.742 946.8C332.252 946.8 331.862 946.905 331.572 947.115C331.282 947.325 331.137 947.6 331.137 947.94C331.137 948.21 331.222 948.435 331.392 948.615C331.572 948.785 331.792 948.925 332.052 949.035C332.322 949.135 332.692 949.25 333.162 949.38C333.752 949.54 334.232 949.7 334.602 949.86C334.972 950.01 335.287 950.24 335.547 950.55C335.817 950.86 335.957 951.265 335.967 951.765C335.967 952.215 335.842 952.62 335.592 952.98C335.342 953.34 334.987 953.625 334.527 953.835C334.077 954.035 333.557 954.135 332.967 954.135Z" fill="#084236"/>
<path d="M282.838 948.665L282.834 948.663C282.771 948.636 282.71 948.605 282.646 948.58C283.36 948.02 283.938 947.305 284.335 946.489C284.733 945.673 284.939 944.778 284.94 943.87C284.938 943.659 284.923 943.449 284.895 943.24C284.911 943.2 284.923 943.159 284.933 943.118L285.214 940.72C285.302 939.963 285.098 939.2 284.645 938.587C284.191 937.974 283.522 937.557 282.772 937.419L281.982 937.275C279.971 936.908 277.91 936.908 275.899 937.275L275.108 937.419C274.358 937.557 273.689 937.974 273.235 938.587C272.782 939.2 272.578 939.963 272.666 940.72L272.947 943.118C272.957 943.159 272.969 943.2 272.985 943.24C272.957 943.449 272.942 943.659 272.94 943.87C272.94 944.778 273.147 945.673 273.545 946.489C273.942 947.305 274.52 948.02 275.234 948.58C275.17 948.605 275.109 948.636 275.046 948.663L275.041 948.665C273.404 949.353 271.981 950.466 270.92 951.89C269.858 953.314 269.198 954.996 269.006 956.762C268.977 957.025 269.054 957.29 269.22 957.496C269.387 957.703 269.628 957.836 269.892 957.864C270.155 957.893 270.42 957.816 270.626 957.65C270.833 957.484 270.965 957.242 270.994 956.979C271.135 955.681 271.593 954.437 272.328 953.359C273.064 952.28 274.053 951.399 275.21 950.794L278.233 953.817C278.326 953.91 278.436 953.983 278.557 954.034C278.679 954.084 278.809 954.11 278.94 954.11C279.071 954.11 279.201 954.084 279.323 954.034C279.444 953.983 279.554 953.91 279.647 953.817L282.67 950.794C283.827 951.399 284.816 952.28 285.552 953.359C286.287 954.438 286.745 955.681 286.886 956.979C286.912 957.223 287.028 957.45 287.212 957.614C287.395 957.779 287.632 957.87 287.878 957.87C287.915 957.87 287.952 957.868 287.988 957.864C288.252 957.836 288.493 957.703 288.66 957.496C288.826 957.29 288.903 957.025 288.874 956.762C288.682 954.996 288.022 953.314 286.96 951.89C285.899 950.466 284.476 949.353 282.838 948.665ZM274.652 940.487C274.623 940.234 274.691 939.98 274.842 939.776C274.993 939.572 275.216 939.433 275.466 939.387L276.256 939.243C278.031 938.919 279.849 938.919 281.624 939.243L282.414 939.387C282.664 939.433 282.887 939.572 283.038 939.776C283.189 939.98 283.257 940.234 283.228 940.487L283.05 942.001H274.83L274.652 940.487ZM278.94 951.696L277.29 950.046C278.377 949.812 279.502 949.812 280.59 950.046L278.94 951.696ZM278.94 947.87C277.902 947.869 276.905 947.465 276.159 946.743C275.414 946.021 274.977 945.038 274.942 944.001H282.938C282.903 945.038 282.466 946.021 281.721 946.743C280.975 947.465 279.978 947.869 278.94 947.87Z" fill="#084236"/>
<path d="M515.55 643.625C517.4 643.625 519.017 643.983 520.4 644.7C521.8 645.4 522.875 646.417 523.625 647.75C524.392 649.067 524.775 650.608 524.775 652.375C524.775 654.142 524.392 655.675 523.625 656.975C522.875 658.275 521.8 659.275 520.4 659.975C519.017 660.658 517.4 661 515.55 661H509.875V643.625H515.55ZM515.55 658.675C517.583 658.675 519.142 658.125 520.225 657.025C521.308 655.925 521.85 654.375 521.85 652.375C521.85 650.358 521.308 648.783 520.225 647.65C519.142 646.517 517.583 645.95 515.55 645.95H512.725V658.675H515.55ZM526.65 654.05C526.65 652.667 526.933 651.442 527.5 650.375C528.083 649.308 528.866 648.483 529.85 647.9C530.85 647.3 531.95 647 533.15 647C534.233 647 535.175 647.217 535.975 647.65C536.791 648.067 537.441 648.592 537.925 649.225V647.225H540.8V661H537.925V658.95C537.441 659.6 536.783 660.142 535.95 660.575C535.116 661.008 534.166 661.225 533.1 661.225C531.916 661.225 530.833 660.925 529.85 660.325C528.866 659.708 528.083 658.858 527.5 657.775C526.933 656.675 526.65 655.433 526.65 654.05ZM537.925 654.1C537.925 653.15 537.725 652.325 537.325 651.625C536.941 650.925 536.433 650.392 535.8 650.025C535.166 649.658 534.483 649.475 533.75 649.475C533.016 649.475 532.333 649.658 531.7 650.025C531.066 650.375 530.55 650.9 530.15 651.6C529.766 652.283 529.575 653.1 529.575 654.05C529.575 655 529.766 655.833 530.15 656.55C530.55 657.267 531.066 657.817 531.7 658.2C532.35 658.567 533.033 658.75 533.75 658.75C534.483 658.75 535.166 658.567 535.8 658.2C536.433 657.833 536.941 657.3 537.325 656.6C537.725 655.883 537.925 655.05 537.925 654.1ZM549.543 661.225C548.46 661.225 547.485 661.033 546.618 660.65C545.768 660.25 545.093 659.717 544.593 659.05C544.093 658.367 543.826 657.608 543.793 656.775H546.743C546.793 657.358 547.068 657.85 547.568 658.25C548.085 658.633 548.726 658.825 549.493 658.825C550.293 658.825 550.91 658.675 551.343 658.375C551.793 658.058 552.018 657.658 552.018 657.175C552.018 656.658 551.768 656.275 551.268 656.025C550.785 655.775 550.01 655.5 548.943 655.2C547.91 654.917 547.068 654.642 546.418 654.375C545.768 654.108 545.201 653.7 544.718 653.15C544.251 652.6 544.018 651.875 544.018 650.975C544.018 650.242 544.235 649.575 544.668 648.975C545.101 648.358 545.718 647.875 546.518 647.525C547.335 647.175 548.268 647 549.318 647C550.885 647 552.143 647.4 553.093 648.2C554.06 648.983 554.576 650.058 554.643 651.425H551.793C551.743 650.808 551.493 650.317 551.043 649.95C550.593 649.583 549.985 649.4 549.218 649.4C548.468 649.4 547.893 649.542 547.493 649.825C547.093 650.108 546.893 650.483 546.893 650.95C546.893 651.317 547.026 651.625 547.293 651.875C547.56 652.125 547.885 652.325 548.268 652.475C548.651 652.608 549.218 652.783 549.968 653C550.968 653.267 551.785 653.542 552.418 653.825C553.068 654.092 553.626 654.492 554.093 655.025C554.56 655.558 554.801 656.267 554.818 657.15C554.818 657.933 554.601 658.633 554.168 659.25C553.735 659.867 553.118 660.35 552.318 660.7C551.535 661.05 550.61 661.225 549.543 661.225ZM565.022 647C566.072 647 567.006 647.225 567.822 647.675C568.656 648.125 569.306 648.792 569.772 649.675C570.256 650.558 570.497 651.625 570.497 652.875V661H567.672V653.3C567.672 652.067 567.364 651.125 566.747 650.475C566.131 649.808 565.289 649.475 564.222 649.475C563.156 649.475 562.306 649.808 561.672 650.475C561.056 651.125 560.747 652.067 560.747 653.3V661H557.897V642.5H560.747V648.825C561.231 648.242 561.839 647.792 562.572 647.475C563.322 647.158 564.139 647 565.022 647ZM576.983 649.275C577.466 648.608 578.124 648.067 578.958 647.65C579.808 647.217 580.749 647 581.783 647C582.999 647 584.099 647.292 585.083 647.875C586.066 648.458 586.841 649.292 587.408 650.375C587.974 651.442 588.258 652.667 588.258 654.05C588.258 655.433 587.974 656.675 587.408 657.775C586.841 658.858 586.058 659.708 585.058 660.325C584.074 660.925 582.983 661.225 581.783 661.225C580.716 661.225 579.766 661.017 578.933 660.6C578.116 660.183 577.466 659.65 576.983 659V661H574.133V642.5H576.983V649.275ZM585.358 654.05C585.358 653.1 585.158 652.283 584.758 651.6C584.374 650.9 583.858 650.375 583.208 650.025C582.574 649.658 581.891 649.475 581.158 649.475C580.441 649.475 579.758 649.658 579.108 650.025C578.474 650.392 577.958 650.925 577.558 651.625C577.174 652.325 576.983 653.15 576.983 654.1C576.983 655.05 577.174 655.883 577.558 656.6C577.958 657.3 578.474 657.833 579.108 658.2C579.758 658.567 580.441 658.75 581.158 658.75C581.891 658.75 582.574 658.567 583.208 658.2C583.858 657.817 584.374 657.267 584.758 656.55C585.158 655.833 585.358 655 585.358 654.05ZM597.051 661.225C595.751 661.225 594.576 660.933 593.526 660.35C592.476 659.75 591.651 658.917 591.051 657.85C590.451 656.767 590.151 655.517 590.151 654.1C590.151 652.7 590.46 651.458 591.076 650.375C591.693 649.292 592.535 648.458 593.601 647.875C594.668 647.292 595.86 647 597.176 647C598.493 647 599.685 647.292 600.751 647.875C601.818 648.458 602.66 649.292 603.276 650.375C603.893 651.458 604.201 652.7 604.201 654.1C604.201 655.5 603.885 656.742 603.251 657.825C602.618 658.908 601.751 659.75 600.651 660.35C599.568 660.933 598.368 661.225 597.051 661.225ZM597.051 658.75C597.785 658.75 598.468 658.575 599.101 658.225C599.751 657.875 600.276 657.35 600.676 656.65C601.076 655.95 601.276 655.1 601.276 654.1C601.276 653.1 601.085 652.258 600.701 651.575C600.318 650.875 599.81 650.35 599.176 650C598.543 649.65 597.86 649.475 597.126 649.475C596.393 649.475 595.71 649.65 595.076 650C594.46 650.35 593.968 650.875 593.601 651.575C593.235 652.258 593.051 653.1 593.051 654.1C593.051 655.583 593.426 656.733 594.176 657.55C594.943 658.35 595.901 658.75 597.051 658.75ZM606.069 654.05C606.069 652.667 606.352 651.442 606.919 650.375C607.502 649.308 608.285 648.483 609.269 647.9C610.269 647.3 611.369 647 612.569 647C613.652 647 614.594 647.217 615.394 647.65C616.21 648.067 616.86 648.592 617.344 649.225V647.225H620.219V661H617.344V658.95C616.86 659.6 616.202 660.142 615.369 660.575C614.535 661.008 613.585 661.225 612.519 661.225C611.335 661.225 610.252 660.925 609.269 660.325C608.285 659.708 607.502 658.858 606.919 657.775C606.352 656.675 606.069 655.433 606.069 654.05ZM617.344 654.1C617.344 653.15 617.144 652.325 616.744 651.625C616.36 650.925 615.852 650.392 615.219 650.025C614.585 649.658 613.902 649.475 613.169 649.475C612.435 649.475 611.752 649.658 611.119 650.025C610.485 650.375 609.969 650.9 609.569 651.6C609.185 652.283 608.994 653.1 608.994 654.05C608.994 655 609.185 655.833 609.569 656.55C609.969 657.267 610.485 657.817 611.119 658.2C611.769 658.567 612.452 658.75 613.169 658.75C613.902 658.75 614.585 658.567 615.219 658.2C615.852 657.833 616.36 657.3 616.744 656.6C617.144 655.883 617.344 655.05 617.344 654.1ZM626.812 649.225C627.229 648.525 627.779 647.983 628.462 647.6C629.162 647.2 629.987 647 630.937 647V649.95H630.212C629.095 649.95 628.245 650.233 627.662 650.8C627.095 651.367 626.812 652.35 626.812 653.75V661H623.962V647.225H626.812V649.225ZM632.607 654.05C632.607 652.667 632.89 651.442 633.457 650.375C634.04 649.308 634.823 648.483 635.807 647.9C636.807 647.3 637.915 647 639.132 647C640.032 647 640.915 647.2 641.782 647.6C642.665 647.983 643.365 648.5 643.882 649.15V642.5H646.757V661H643.882V658.925C643.415 659.592 642.765 660.142 641.932 660.575C641.115 661.008 640.173 661.225 639.107 661.225C637.907 661.225 636.807 660.925 635.807 660.325C634.823 659.708 634.04 658.858 633.457 657.775C632.89 656.675 632.607 655.433 632.607 654.05ZM643.882 654.1C643.882 653.15 643.682 652.325 643.282 651.625C642.898 650.925 642.39 650.392 641.757 650.025C641.123 649.658 640.44 649.475 639.707 649.475C638.973 649.475 638.29 649.658 637.657 650.025C637.023 650.375 636.507 650.9 636.107 651.6C635.723 652.283 635.532 653.1 635.532 654.05C635.532 655 635.723 655.833 636.107 656.55C636.507 657.267 637.023 657.817 637.657 658.2C638.307 658.567 638.99 658.75 639.707 658.75C640.44 658.75 641.123 658.567 641.757 658.2C642.39 657.833 642.898 657.3 643.282 656.6C643.682 655.883 643.882 655.05 643.882 654.1Z" fill="#084236"/>
<path d="M312.11 647.697L308.195 658.122H306.215L302.285 647.697H304.115L307.205 656.367L310.31 647.697H312.11ZM315.25 649.077V652.137H318.85V653.532H315.25V656.727H319.3V658.122H313.54V647.682H319.3V649.077H315.25ZM328.141 647.697V649.092H325.366V658.122H323.656V649.092H320.866V647.697H328.141ZM330.563 658.227C330.253 658.227 329.993 658.122 329.783 657.912C329.573 657.702 329.468 657.442 329.468 657.132C329.468 656.822 329.573 656.562 329.783 656.352C329.993 656.142 330.253 656.037 330.563 656.037C330.863 656.037 331.118 656.142 331.328 656.352C331.538 656.562 331.643 656.822 331.643 657.132C331.643 657.442 331.538 657.702 331.328 657.912C331.118 658.122 330.863 658.227 330.563 658.227Z" fill="#084236"/>
<path d="M287.945 655.433C288.517 653.44 289.86 653.776 290.391 655.467C290.617 656.047 290.863 656.614 291.117 657.093C291.522 657.859 292.106 658.701 292.703 659.48C293.369 660.352 292.581 661.739 291.521 661.522C290.549 661.323 289.647 661.158 289.215 661.129C288.78 661.099 287.871 661.251 286.894 661.455C285.835 661.676 285.008 660.305 285.659 659.421C286.224 658.653 286.779 657.832 287.177 657.093C287.44 656.603 287.701 656.024 287.945 655.433Z" fill="#084236"/>
<path d="M294.054 650.858C293.877 651.836 292.942 652.484 291.965 652.307C290.987 652.13 290.339 651.195 290.515 650.218C290.692 649.24 291.733 647.894 292.711 648.071C293.688 648.248 294.231 649.881 294.054 650.858Z" fill="#084236"/>
<path d="M287.992 650.239C288.096 651.227 287.379 652.111 286.391 652.215C285.403 652.318 284.519 651.601 284.415 650.613C284.312 649.626 284.803 648.061 285.79 647.958C286.778 647.854 287.889 649.251 287.992 650.239Z" fill="#084236"/>
<path d="M284.706 655.472C284.852 656.455 284.173 657.369 283.191 657.515C282.209 657.661 281.294 656.983 281.148 656C281.002 655.018 281.596 653.533 282.578 653.387C283.561 653.242 284.56 654.49 284.706 655.472Z" fill="#084236"/>
<path d="M297.309 655.847C297.21 656.835 296.328 657.555 295.34 657.456C294.352 657.356 293.631 656.474 293.731 655.486C293.831 654.498 294.77 653.204 295.759 653.304C296.747 653.404 297.409 654.859 297.309 655.847Z" fill="#084236"/>
<path d="M278.516 643.948C278.516 642.267 279.879 640.903 281.561 640.903C283.243 640.903 284.606 642.267 284.606 643.948L284.606 645.93C285.091 645.673 285.6 645.453 286.129 645.273V643.948C286.129 641.426 284.084 639.381 281.561 639.381C279.038 639.381 276.993 641.426 276.993 643.948L276.993 646.993H273.948C271.426 646.993 269.381 649.038 269.381 651.561C269.381 654.084 271.426 656.129 273.948 656.129H276.993V659.174C276.993 661.696 279.038 663.741 281.561 663.741C282.492 663.741 283.359 663.463 284.081 662.984C283.597 662.69 283.14 662.358 282.715 661.993C282.359 662.138 281.969 662.219 281.561 662.219C279.879 662.219 278.516 660.855 278.516 659.174V654.606H273.948C272.266 654.606 270.903 653.243 270.903 651.561C270.903 649.879 272.266 648.516 273.948 648.516H278.516L278.516 643.948Z" fill="#084236"/>
<path fill-rule="evenodd" clip-rule="evenodd" d="M281.561 639.761C279.249 639.761 277.374 641.636 277.374 643.948L277.374 646.993C277.374 647.204 277.204 647.374 276.993 647.374H273.948C271.636 647.374 269.761 649.249 269.761 651.561C269.761 653.873 271.636 655.748 273.948 655.748H276.993C277.204 655.748 277.374 655.918 277.374 656.129V659.174C277.374 661.486 279.249 663.361 281.561 663.361C282.2 663.361 282.806 663.218 283.348 662.962C283.103 662.793 282.867 662.614 282.639 662.426C282.3 662.539 281.937 662.599 281.561 662.599C279.669 662.599 278.135 661.066 278.135 659.174V654.987H273.948C272.056 654.987 270.523 653.453 270.523 651.561C270.523 649.669 272.056 648.135 273.948 648.135H278.135L278.135 643.948C278.135 642.056 279.669 640.523 281.561 640.523C283.453 640.523 284.987 642.056 284.987 643.948L284.987 645.318C285.235 645.204 285.489 645.099 285.748 645.004V643.948C285.748 641.636 283.873 639.761 281.561 639.761ZM276.613 643.948C276.613 641.215 278.828 639 281.561 639C284.294 639 286.509 641.215 286.509 643.948V645.273C286.509 645.436 286.406 645.581 286.251 645.633C285.742 645.806 285.252 646.019 284.784 646.266C284.666 646.329 284.524 646.325 284.41 646.256C284.295 646.187 284.225 646.064 284.225 645.93L284.225 643.948C284.225 642.477 283.033 641.284 281.561 641.284C280.089 641.284 278.897 642.477 278.897 643.948L278.897 648.516C278.897 648.726 278.726 648.897 278.516 648.897H273.948C272.477 648.897 271.284 650.089 271.284 651.561C271.284 653.033 272.477 654.225 273.948 654.225H278.516C278.726 654.225 278.897 654.396 278.897 654.606V659.174C278.897 660.645 280.089 661.838 281.561 661.838C281.919 661.838 282.26 661.768 282.57 661.64C282.703 661.586 282.854 661.611 282.963 661.704C283.372 662.056 283.812 662.375 284.279 662.659C284.39 662.726 284.459 662.846 284.462 662.976C284.464 663.107 284.4 663.229 284.291 663.301C283.509 663.82 282.569 664.122 281.561 664.122C278.828 664.122 276.613 661.907 276.613 659.174V656.509H273.948C271.215 656.509 269 654.294 269 651.561C269 648.828 271.215 646.613 273.948 646.613H276.613L276.613 643.948ZM286.94 648.944C286.553 648.514 286.14 648.304 285.83 648.336C285.542 648.367 285.256 648.623 285.042 649.108C284.834 649.578 284.749 650.149 284.794 650.574C284.875 651.353 285.573 651.918 286.351 651.836C287.13 651.755 287.695 651.057 287.614 650.279C287.573 649.887 287.317 649.363 286.94 648.944ZM287.506 648.435C287.957 648.935 288.308 649.603 288.371 650.199C288.496 651.396 287.627 652.468 286.431 652.593C285.234 652.719 284.162 651.85 284.037 650.653C283.978 650.09 284.087 649.386 284.346 648.8C284.598 648.23 285.051 647.653 285.751 647.579C286.429 647.508 287.065 647.945 287.506 648.435ZM291.592 648.97C291.229 649.363 290.964 649.88 290.89 650.285C290.751 651.056 291.262 651.793 292.032 651.933C292.803 652.072 293.54 651.561 293.68 650.791C293.753 650.389 293.678 649.812 293.465 649.314C293.246 648.801 292.94 648.5 292.643 648.446C292.349 648.393 291.967 648.566 291.592 648.97ZM291.034 648.453C291.468 647.985 292.095 647.573 292.778 647.697C293.459 647.82 293.913 648.424 294.165 649.015C294.424 649.622 294.533 650.35 294.429 650.926C294.215 652.11 293.081 652.896 291.897 652.682C290.713 652.468 289.927 651.334 290.141 650.15C290.244 649.578 290.588 648.934 291.034 648.453ZM294.701 654.234C294.372 654.619 294.151 655.119 294.11 655.524C294.031 656.303 294.599 656.998 295.378 657.077C296.157 657.156 296.852 656.588 296.931 655.809C296.972 655.404 296.854 654.87 296.609 654.427C296.359 653.975 296.034 653.714 295.72 653.683C295.407 653.651 295.037 653.841 294.701 654.234ZM294.122 653.74C294.529 653.264 295.122 652.857 295.797 652.925C296.471 652.993 296.972 653.51 297.275 654.058C297.583 654.615 297.747 655.302 297.688 655.885C297.567 657.083 296.499 657.955 295.302 657.834C294.104 657.714 293.232 656.645 293.352 655.448C293.411 654.865 293.709 654.224 294.122 653.74ZM283.678 654.267C283.325 653.891 282.946 653.718 282.634 653.764C282.323 653.81 282.01 654.086 281.782 654.549C281.557 655.003 281.465 655.542 281.525 655.944C281.64 656.719 282.361 657.253 283.135 657.139C283.91 657.024 284.444 656.303 284.329 655.528C284.269 655.125 284.025 654.637 283.678 654.267ZM284.233 653.746C284.669 654.21 284.996 654.837 285.082 655.417C285.259 656.607 284.437 657.715 283.247 657.892C282.057 658.068 280.948 657.246 280.772 656.056C280.686 655.477 280.817 654.782 281.099 654.212C281.376 653.65 281.852 653.11 282.523 653.011C283.193 652.911 283.805 653.29 284.233 653.746ZM288.768 654.624C288.611 654.787 288.444 655.075 288.311 655.539L288.305 655.559L288.297 655.578C288.051 656.176 287.784 656.768 287.512 657.273C287.102 658.035 286.535 658.873 285.966 659.646C285.751 659.939 285.765 660.332 285.961 660.656C286.157 660.979 286.482 661.152 286.817 661.083C287.309 660.98 287.788 660.889 288.202 660.828C288.607 660.768 288.979 660.731 289.24 660.749C289.703 660.78 290.633 660.952 291.597 661.149C291.928 661.217 292.243 661.043 292.429 660.72C292.616 660.396 292.622 660.001 292.4 659.712C291.799 658.925 291.2 658.064 290.781 657.271C290.517 656.774 290.265 656.193 290.036 655.605L290.032 655.593L290.028 655.581C289.907 655.195 289.746 654.908 289.579 654.719C289.412 654.529 289.258 654.458 289.146 654.447C289.046 654.438 288.918 654.469 288.768 654.624ZM290.75 655.34C290.606 654.885 290.401 654.501 290.151 654.216C289.9 653.931 289.582 653.725 289.22 653.69C288.847 653.653 288.499 653.806 288.22 654.096C287.951 654.375 287.738 654.784 287.585 655.308C287.347 655.885 287.093 656.444 286.841 656.913C286.456 657.629 285.913 658.434 285.353 659.195C284.917 659.787 284.99 660.522 285.31 661.05C285.629 661.578 286.247 661.979 286.972 661.828C287.457 661.727 287.92 661.639 288.314 661.581C288.716 661.521 289.017 661.497 289.189 661.508C289.59 661.535 290.465 661.695 291.444 661.895C292.174 662.044 292.783 661.633 293.089 661.099C293.395 660.567 293.45 659.831 293.005 659.249C292.414 658.476 291.844 657.653 291.453 656.915C291.211 656.457 290.972 655.909 290.75 655.34Z" fill="#084236"/>
</g>
</g>
<defs>
<linearGradient id="paint0_linear_653_2" x1="960" y1="0" x2="960" y2="1280" gradientUnits="userSpaceOnUse">
<stop stop-color="#6AB99E"/>
<stop offset="1" stop-color="#A4E6D0"/>
</linearGradient>
<clipPath id="clip0_653_2">
<rect width="1920" height="1280" fill="white"/>
</clipPath>
<clipPath id="clip1_653_2">
<rect x="240" y="615" width="1366" height="768" rx="40" fill="white"/>
</clipPath>
</defs>
</svg>
